<?xml version="1.0" encoding="UTF-8" standalone="no"?>
<!DOCTYPE svg PUBLIC "-//W3C//DTD SVG 1.1//EN" "http://www.w3.org/Graphics/SVG/1.1/DTD/svg11.dtd">
<svg xmlns:dc="http://purl.org/dc/elements/1.1/" xmlns:xl="http://www.w3.org/1999/xlink" xmlns="http://www.w3.org/2000/svg" version="1.1" viewBox="0 0 1000.89 412.79">
  <defs/>
  <g id="Canvas_1" stroke-dasharray="none" stroke-opacity="1" fill-opacity="1" stroke="none" fill="none">
    <title>Canvas 1</title>
    <g id="Canvas_1_Layer_1">
      <title>Layer 1</title>
      <g id="Graphic_2">
        <path d="M 726.01 216.1 L 755.81 252.41 L 722.05 252.76 L 697.68 223.61 L 681.45 242.66 L 690.76 242.85 L 698.76 233.81 L 705.42 241.67 L 696.09 252.76 L 662.61 252.41 L 697.82 208.91 L 727.38 242.85 L 736.69 242.66 L 713.76 216.14 L 736.69 189.51 L 727.41 189.51 L 709.07 210.72 L 690.73 189.51 L 681.45 189.51 L 694.01 204.1 L 688.19 211.27 L 662.33 179.6 L 696.37 179.99 L 709.07 195.46 L 721.77 179.99 L 755.81 179.6 Z" fill="#0e3496"/>
      </g>
      <g id="Graphic_3">
        <path d="M 250.18 250.64 L 299.67 250.64 L 299.67 242.05 L 258.77 242.05 L 258.77 219.15 L 283.19 219.15 L 283.19 210.56 L 258.77 210.56 L 258.77 187.67 L 299.67 187.67 L 299.67 179.07 L 250.18 179.07 Z" fill="#929293"/>
      </g>
      <g id="Graphic_4">
        <path d="M 361.66 199.2 L 360.06 198.66 C 356.16 197.37 351.9 197.48 348.07 198.98 C 346.26 199.69 344.58 200.69 343.09 201.96 L 342.63 202.35 L 334.06 198.98 C 330.23 197.48 325.97 197.37 322.07 198.67 L 320.47 199.2 C 313.25 201.6 308.41 208.31 308.41 215.92 L 308.41 250.9 L 316.76 250.9 L 316.76 215.92 C 316.76 211.92 319.31 208.39 323.1 207.13 L 324.7 206.6 C 326.76 205.91 329 205.97 331.01 206.76 L 337.88 209.46 L 337.62 210.34 C 337.13 211.99 336.89 213.68 336.89 215.38 L 336.89 250.91 L 345.24 250.91 L 345.24 215.38 C 345.24 211.55 347.55 208.16 351.12 206.76 C 353.13 205.97 355.37 205.91 357.43 206.59 L 359.03 207.13 C 362.82 208.39 365.37 211.92 365.37 215.92 L 365.37 250.9 L 373.72 250.9 L 373.72 215.92 C 373.72 208.32 368.88 201.6 361.66 199.2 Z" fill="#929293"/>
      </g>
      <g id="Group_5">
        <g id="Graphic_7">
          <path d="M 392.38 190.43 C 395.26 190.43 397.59 188.09 397.59 185.21 C 397.59 182.33 395.26 180 392.38 180 C 389.5 180 387.17 182.34 387.17 185.21 C 387.17 188.08 389.51 190.43 392.38 190.43 Z" fill="#929293"/>
        </g>
        <g id="Graphic_6">
          <rect x="388.2" y="200.38" width="8.36" height="50.47" fill="#929293"/>
        </g>
      </g>
      <g id="Graphic_8">
        <path d="M 452.41 237.33 C 452.41 224.17 440.92 221.61 429.69 220.85 C 419.67 220.17 418.85 217.46 418.85 214.5 C 418.85 209.61 422.83 206.91 430.07 206.91 C 438.91 206.91 445.52 209.32 448.64 211.07 L 453.26 204.09 C 450.49 202.46 442.54 198.55 430.07 198.55 C 417.6 198.55 410.49 204.81 410.49 214.5 C 410.49 226.53 421.12 228.64 429.12 229.19 C 442.93 230.12 444.05 233.43 444.05 237.33 C 444.05 240.42 443.16 243.72 432.48 243.88 C 422.9 243.99 415.78 240.86 413.39 239.64 L 408.94 246.74 C 411.58 248.19 420.03 252.25 431.81 252.25 C 432.07 252.25 432.34 252.24 432.6 252.24 C 445.75 252.03 452.41 247.02 452.41 237.33 Z" fill="#929293"/>
      </g>
      <g id="Graphic_9">
        <path d="M 506.84 237.33 C 506.84 224.17 495.36 221.61 484.12 220.85 C 474.11 220.17 473.28 217.46 473.28 214.5 C 473.28 209.61 477.26 206.91 484.5 206.91 C 493.34 206.91 499.95 209.32 503.07 211.07 L 507.69 204.09 C 504.92 202.46 496.96 198.55 484.5 198.55 C 472.04 198.55 464.92 204.81 464.92 214.5 C 464.92 226.53 475.55 228.64 483.55 229.19 C 497.36 230.12 498.48 233.43 498.48 237.33 C 498.48 240.42 497.59 243.72 486.91 243.88 C 477.33 243.99 470.21 240.86 467.82 239.64 L 463.37 246.74 C 466.01 248.19 474.46 252.25 486.24 252.25 C 486.5 252.25 486.77 252.24 487.04 252.24 C 500.18 252.03 506.84 247.02 506.84 237.33 Z" fill="#929293"/>
      </g>
      <g id="Group_10">
        <g id="Graphic_12">
          <path d="M 524.54 190.43 C 527.41 190.43 529.75 188.09 529.75 185.21 C 529.75 182.33 527.41 180 524.54 180 C 521.67 180 519.32 182.34 519.32 185.21 C 519.32 188.08 521.66 190.43 524.54 190.43 Z" fill="#929293"/>
        </g>
        <g id="Graphic_11">
          <rect x="520.36" y="200.38" width="8.36" height="50.47" fill="#929293"/>
        </g>
      </g>
      <g id="Graphic_13">
        <path d="M 568.64 198.93 L 565.47 198.93 C 552.34 198.93 541.66 209.61 541.66 222.74 L 541.66 229.41 C 541.66 242.54 552.34 253.22 565.47 253.22 L 568.64 253.22 C 581.77 253.22 592.45 242.54 592.45 229.41 L 592.45 222.74 C 592.45 209.61 581.77 198.93 568.64 198.93 Z M 584.09 229.41 C 584.09 237.93 577.16 244.86 568.64 244.86 L 565.47 244.86 C 556.95 244.86 550.01 237.93 550.01 229.41 L 550.01 222.74 C 550.01 214.22 556.95 207.29 565.47 207.29 L 568.64 207.29 C 577.16 207.29 584.09 214.22 584.09 222.74 Z" fill="#929293"/>
      </g>
      <g id="Graphic_14">
        <path d="M 634.93 200.12 L 619.04 200.12 C 611.28 200.12 604.97 206.43 604.97 214.19 L 604.97 250.85 L 613.33 250.85 L 613.33 214.19 C 613.33 211.04 615.89 208.48 619.04 208.48 L 634.93 208.48 C 638.08 208.48 640.64 211.04 640.64 214.19 L 640.64 250.85 L 649 250.85 L 649 214.19 C 649 206.43 642.69 200.12 634.93 200.12 Z" fill="#929293"/>
      </g>
    </g>
  </g>
</svg>
