<?xml version="1.0" encoding="UTF-8" standalone="no"?>
<!DOCTYPE svg PUBLIC "-//W3C//DTD SVG 1.1//EN" "http://www.w3.org/Graphics/SVG/1.1/DTD/svg11.dtd">
<svg xmlns="http://www.w3.org/2000/svg" xmlns:dc="http://purl.org/dc/elements/1.1/" version="1.1" xmlns:xl="http://www.w3.org/1999/xlink" viewBox="0 0 1000.9 412.8">
  <defs/>
  <g id="Canvas_1" stroke-opacity="1" fill-opacity="1" stroke-dasharray="none" fill="none" stroke="none">
    <title>Canvas 1</title>
    <g id="Canvas_1_Layer_1">
      <title>Layer 1</title>
      <g id="Group_2">
        <g id="Group_15">
          <g id="Graphic_16">
            <path d="M 897.2 206.3 L 950.3 270.9 L 890.2 271.5 L 846.8 219.7 L 818 253.6 L 834.5 253.9 L 848.8 237.8 L 860.6 251.8 L 844 271.5 L 784.4 270.9 L 847.1 193.5 L 899.7 253.9 L 916.2 253.6 L 875.4 206.4 L 916.2 159 L 899.7 159 L 867.1 196.7 L 834.5 159 L 818 159 L 840.3 185 L 829.9 197.7 L 783.9 141.4 L 844.5 142.1 L 867.1 169.6 L 889.7 142.1 L 950.3 141.4 Z" fill="#003296"/>
          </g>
        </g>
        <g id="Graphic_14">
          <path d="M 50.6 267.8 L 138.7 267.8 L 138.7 252.5 L 65.9 252.5 L 65.9 211.7 L 109.4 211.7 L 109.4 196.5 L 65.9 196.5 L 65.9 155.7 L 138.7 155.7 L 138.7 140.4 L 50.6 140.4 Z" fill="#939393"/>
        </g>
        <g id="Graphic_13">
          <path d="M 249 176.2 L 246.2 175.2 C 239.3 172.9 231.7 173.1 224.9 175.8 C 221.7 177.1 218.7 178.8 216 181.1 L 215.2 181.8 L 200 175.8 C 193.2 173.1 185.6 172.9 178.7 175.2 L 175.9 176.1 C 163.1 180.4 154.4 192.3 154.4 205.8 L 154.4 268 L 169.3 268 L 169.3 206 C 169.3 198.9 173.8 192.6 180.6 190.4 L 183.4 189.5 C 187.1 188.3 191.1 188.4 194.6 189.8 L 206.8 194.6 L 206.3 196.2 C 205.4 199.1 205 202.1 205 205.2 L 205 268.4 L 219.9 268.4 L 219.9 205 C 219.9 198.2 224 192.2 230.4 189.7 C 234 188.3 238 188.2 241.6 189.4 L 244.4 190.4 C 251.1 192.6 255.7 198.9 255.7 206 L 255.7 268.2 L 270.6 268.2 L 270.6 206 C 270.4 192.5 261.8 180.5 249 176.2 Z" fill="#939393"/>
        </g>
        <g id="Group_10">
          <g id="Graphic_12">
            <path d="M 303.6 160.6 C 308.7 160.6 312.9 156.4 312.9 151.3 C 312.9 146.2 308.8 142 303.6 142 C 298.5 142 294.3 146.2 294.3 151.3 C 294.4 156.5 298.5 160.6 303.6 160.6 Z" fill="#939393"/>
          </g>
          <g id="Graphic_11">
            <rect x="296.2" y="178.3" width="14.9" height="89.8" fill="#939393"/>
          </g>
        </g>
        <g id="Graphic_9">
          <path d="M 410.4 244.1 C 410.4 220.7 390 216.1 370 214.8 C 352.2 213.6 350.7 208.8 350.7 203.5 C 350.7 194.8 357.8 190 370.7 190 C 386.4 190 398.2 194.3 403.7 197.4 L 411.9 185 C 407 182.1 392.8 175.1 370.6 175.1 C 349.4 175.1 335.8 186.2 335.8 203.5 C 335.8 224.9 354.7 228.7 368.9 229.6 C 393.5 231.3 395.5 237.1 395.5 244.1 C 395.5 249.6 393.9 255.5 374.9 255.8 C 357.9 256 345.2 250.4 340.9 248.3 L 333 260.9 C 337.7 263.5 352.7 270.7 373.7 270.7 C 374.2 270.7 374.6 270.7 375.1 270.7 C 398.6 270.2 410.4 261.3 410.4 244.1 Z" fill="#939393"/>
        </g>
        <g id="Graphic_8">
          <path d="M 507.3 244.1 C 507.3 220.7 486.9 216.1 466.9 214.8 C 449.1 213.6 447.6 208.8 447.6 203.5 C 447.6 194.8 454.7 190 467.6 190 C 483.3 190 495.1 194.3 500.6 197.4 L 508.8 185 C 503.9 182.1 489.7 175.1 467.5 175.1 C 446.3 175.1 432.7 186.2 432.7 203.5 C 432.7 224.9 451.6 228.7 465.8 229.6 C 490.4 231.3 492.4 237.1 492.4 244.1 C 492.4 249.6 490.8 255.5 471.8 255.8 C 454.8 256 442.1 250.4 437.8 248.3 L 429.9 260.9 C 434.6 263.5 449.6 270.7 470.6 270.7 C 471.1 270.7 471.5 270.7 472 270.7 C 495.4 270.2 507.3 261.3 507.3 244.1 Z" fill="#939393"/>
        </g>
        <g id="Group_5">
          <g id="Graphic_7">
            <path d="M 538.8 160.6 C 543.9 160.6 548.1 156.4 548.1 151.3 C 548.1 146.2 543.9 142 538.8 142 C 533.7 142 529.5 146.2 529.5 151.3 C 529.5 156.5 533.7 160.6 538.8 160.6 Z" fill="#939393"/>
          </g>
          <g id="Graphic_6">
            <rect x="531.3" y="178.3" width="14.9" height="89.8" fill="#939393"/>
          </g>
        </g>
        <g id="Graphic_4">
          <path d="M 617.2 175.8 L 611.6 175.8 C 588.2 175.8 569.2 194.8 569.2 218.2 L 569.2 230 C 569.2 253.4 588.2 272.4 611.6 272.4 L 617.2 272.4 C 640.6 272.4 659.6 253.4 659.6 230 L 659.6 218.1 C 659.6 194.8 640.6 175.8 617.2 175.8 Z M 644.7 230 C 644.7 245.2 632.4 257.5 617.2 257.5 L 611.6 257.5 C 596.4 257.5 584.1 245.2 584.1 230 L 584.1 218.1 C 584.1 202.9 596.4 190.6 611.6 190.6 L 617.2 190.6 C 632.4 190.6 644.7 202.9 644.7 218.1 Z" fill="#939393"/>
        </g>
        <g id="Graphic_3">
          <path d="M 735.2 177.9 L 706.9 177.9 C 693.1 177.9 681.9 189.1 681.9 202.9 L 681.9 268.1 L 696.8 268.1 L 696.8 202.9 C 696.8 197.3 701.4 192.7 707 192.7 L 735.3 192.7 C 740.9 192.7 745.5 197.3 745.5 202.9 L 745.5 268.1 L 760.4 268.1 L 760.4 202.9 C 760.2 189.1 749 177.9 735.2 177.9 Z" fill="#939393"/>
        </g>
      </g>
    </g>
  </g>
</svg>
