<?xml version="1.0" encoding="UTF-8"?>
<svg id="Layer_1" data-name="Layer 1" xmlns="http://www.w3.org/2000/svg" viewBox="50 20 353.78 507.7" width="660" height="400">
  <defs>
    <style>
      .cls-1, .cls-2 {
        stroke-width: 2px;
      }

      .cls-1, .cls-2, .cls-3 {
        fill: none;
        stroke-miterlimit: 10;
      }

      .cls-1, .cls-3 {
        stroke: #757575;
      }

      .cls-4 {
        fill: #fff;
      }

      .cls-5 {
        fill: #55e0e0;
      }

      .cls-6 {
        fill: #b7a5d3;
      }

      .cls-7 {
        fill: #6d11a3;
      }

      .cls-8 {
        fill: #2e5cb7;
      }

      .cls-9 {
        fill: #d0d2d3;
      }

      .cls-10 {
        fill: #9a5ae5;
      }

      .cls-11 {
        fill: #d9cfff;
      }

      .cls-12 {
        fill: #3bb6bc;
      }

      .cls-13 {
        fill: #fede3a;
      }

      .cls-14 {
        fill: #e7ad27;
      }

      .cls-15 {
        fill: #4f1e7a;
      }

      .cls-2 {
        stroke: #55e0e0;
      }

      .cls-16 {
        fill: #7229a5;
      }

      .cls-3 {
        stroke-width: 3px;
      }

      .cls-17 {
        fill: #757575;
      }

      .cls-18 {
        fill: #d1d3d4;
      }

      .cls-19 {
        fill: #1b4993;
      }

      .cls-20 {
        fill: #15919e;
      }
    </style>
  </defs>
  <line class="cls-1" x1="140.07" y1="112.49" x2="168.83" y2="112.49"/>
  <line class="cls-1" x1="200.62" y1="206.93" x2="229.39" y2="206.93"/>
  <line class="cls-1" x1="139.59" y1="300.97" x2="168.36" y2="300.97"/>
  <line class="cls-1" x1="200.57" y1="395.21" x2="229.33" y2="395.21"/>
  <g>
    <g>
      <circle class="cls-15" cx="92.09" cy="111.53" r="52.93"/>
      <circle class="cls-7" cx="92.09" cy="111.53" r="45.21"/>
    </g>
    <path class="cls-15" d="m112.88,83.47h-41.59c-1.72,0-3.11,1.39-3.11,3.11v10.69c0,.11,0,.21.02.32,0,.05.01.1.02.16,0,.03,0,.05.01.08,0,.05.02.1.03.15.01.05.02.1.04.15.29,1.03,1.11,1.85,2.14,2.14.05.01.1.03.15.04.05.01.1.02.15.03.03,0,.05,0,.08.01.05,0,.1.01.16.02.1.01.21.02.32.02h.58v3.01h-.58c-1.72,0-3.11,1.39-3.11,3.11v10.69c0,.11,0,.21.02.32,0,.05.01.1.02.16,0,.03,0,.05.01.08,0,.05.02.1.03.15.01.05.02.1.04.15.02.07.04.15.07.22,0,.02.02.05.03.07.35.89,1.11,1.59,2.04,1.85.05.01.1.03.15.04.05.01.1.02.15.03.03,0,.05,0,.08.01.05,0,.1.01.16.02.1.01.21.02.32.02h.58v3.01h-.58c-1.72,0-3.11,1.39-3.11,3.11v10.69c0,.08,0,.16,0,.24.1,1.32,1.02,2.4,2.25,2.75.05.01.1.03.15.04.05.01.1.02.15.03.03,0,.05,0,.08.01.05,0,.1.01.16.02.1.01.21.02.32.02h10.36c.92,4.93,5.24,8.66,10.44,8.66s9.52-3.73,10.44-8.66h10.36c.08,0,.16,0,.24,0,1.53-.12,2.74-1.33,2.86-2.86,0-.08,0-.16,0-.24v-10.69c0-1.72-1.39-3.11-3.11-3.11h-.58v-3.01h.58c.08,0,.16,0,.24,0,1.32-.1,2.4-1.02,2.75-2.25.01-.05.03-.1.04-.15.01-.05.02-.1.03-.15,0-.03,0-.05.01-.08,0-.05.01-.1.02-.16.01-.1.02-.21.02-.32v-10.69c0-1.72-1.39-3.11-3.11-3.11h-.58v-3.01h.58c.08,0,.16,0,.24,0,1.32-.1,2.4-1.02,2.75-2.25.01-.05.03-.1.04-.15.01-.05.02-.1.03-.15,0-.03,0-.05.01-.08,0-.05.01-.1.02-.16.01-.1.02-.21.02-.32v-10.69c0-1.72-1.39-3.11-3.11-3.11Z"/>
    <g>
      <g>
        <g>
          <rect class="cls-20" x="71.88" y="80.38" width="40.42" height="56.74"/>
          <g>
            <g>
              <rect class="cls-5" x="68.19" y="80.38" width="47.8" height="16.91" rx="2.93" ry="2.93"/>
              <path class="cls-12" d="m112.88,94.95h-41.59c-1.72,0-3.11-1.39-3.11-3.11v2.33c0,1.72,1.39,3.11,3.11,3.11h41.59c1.72,0,3.11-1.39,3.11-3.11v-2.33c0,1.72-1.39,3.11-3.11,3.11Z"/>
              <circle class="cls-11" cx="77.61" cy="88.83" r="3.01"/>
              <path class="cls-6" d="m77.61,90.29c-1.39,0-2.55-.95-2.9-2.23-.07.25-.11.51-.11.78,0,1.66,1.35,3.01,3.01,3.01s3.01-1.35,3.01-3.01c0-.27-.05-.53-.11-.78-.34,1.28-1.51,2.23-2.9,2.23Z"/>
              <g>
                <path class="cls-13" d="m101.84,91.84h0c-.51,0-.92-.41-.92-.92v-4.17c0-.51.41-.92.92-.92h0c.51,0,.92.41.92.92v4.17c0,.51-.41.92-.92.92Z"/>
                <path class="cls-11" d="m101.84,91.84h0c-.51,0-.92-.41-.92-.92v-4.17c0-.51.41-.92.92-.92h0c.51,0,.92.41.92.92v4.17c0,.51-.41.92-.92.92Z"/>
                <path class="cls-6" d="m101.84,90.29c-.51,0-.92-.41-.92-.92v1.55c0,.51.41.92.92.92s.92-.41.92-.92v-1.55c0,.51-.41.92-.92.92Z"/>
                <path class="cls-11" d="m105.92,91.84h0c-.51,0-.92-.41-.92-.92v-4.17c0-.51.41-.92.92-.92h0c.51,0,.92.41.92.92v4.17c0,.51-.41.92-.92.92Z"/>
                <path class="cls-11" d="m110,91.84h0c-.51,0-.92-.41-.92-.92v-4.17c0-.51.41-.92.92-.92h0c.51,0,.92.41.92.92v4.17c0,.51-.41.92-.92.92Z"/>
                <path class="cls-6" d="m105.92,90.29c-.51,0-.92-.41-.92-.92v1.55c0,.51.41.92.92.92s.92-.41.92-.92v-1.55c0,.51-.41.92-.92.92Z"/>
                <path class="cls-6" d="m110,90.29c-.51,0-.92-.41-.92-.92v1.55c0,.51.41.92.92.92s.92-.41.92-.92v-1.55c0,.51-.41.92-.92.92Z"/>
              </g>
            </g>
            <g>
              <rect class="cls-5" x="68.19" y="100.3" width="47.8" height="16.91" rx="3.11" ry="3.11"/>
              <path class="cls-12" d="m112.88,114.87h-41.59c-1.72,0-3.11-1.39-3.11-3.11v2.33c0,1.72,1.39,3.11,3.11,3.11h41.59c1.72,0,3.11-1.39,3.11-3.11v-2.33c0,1.72-1.39,3.11-3.11,3.11Z"/>
              <path class="cls-11" d="m80.63,108.75c0,1.66-1.35,3.01-3.01,3.01s-3.01-1.35-3.01-3.01,1.35-3.01,3.01-3.01,3.01,1.35,3.01,3.01Z"/>
              <g>
                <path class="cls-11" d="m101.84,111.75h0c-.51,0-.92-.41-.92-.92v-4.17c0-.51.41-.92.92-.92h0c.51,0,.92.41.92.92v4.17c0,.51-.41.92-.92.92Z"/>
                <path class="cls-11" d="m105.92,111.75h0c-.51,0-.92-.41-.92-.92v-4.17c0-.51.41-.92.92-.92h0c.51,0,.92.41.92.92v4.17c0,.51-.41.92-.92.92Z"/>
                <path class="cls-11" d="m110,111.75h0c-.51,0-.92-.41-.92-.92v-4.17c0-.51.41-.92.92-.92h0c.51,0,.92.41.92.92v4.17c0,.51-.41.92-.92.92Z"/>
              </g>
            </g>
            <g>
              <rect class="cls-5" x="68.19" y="120.22" width="47.8" height="16.91" rx="2.84" ry="2.84"/>
              <path class="cls-12" d="m112.88,134.79h-41.59c-1.72,0-3.11-1.39-3.11-3.11v2.33c0,1.72,1.39,3.11,3.11,3.11h41.59c1.72,0,3.11-1.39,3.11-3.11v-2.33c0,1.72-1.39,3.11-3.11,3.11Z"/>
              <path class="cls-11" d="m80.63,128.67c0,1.66-1.35,3.01-3.01,3.01s-3.01-1.35-3.01-3.01,1.35-3.01,3.01-3.01,3.01,1.35,3.01,3.01Z"/>
              <g>
                <path class="cls-11" d="m101.84,131.66h0c-.51,0-.92-.41-.92-.92v-4.17c0-.51.41-.92.92-.92h0c.51,0,.92.41.92.92v4.17c0,.51-.41.92-.92.92Z"/>
                <path class="cls-11" d="m105.92,131.66h0c-.51,0-.92-.41-.92-.92v-4.17c0-.51.41-.92.92-.92h0c.51,0,.92.41.92.92v4.17c0,.51-.41.92-.92.92Z"/>
                <path class="cls-11" d="m110,131.66h0c-.51,0-.92-.41-.92-.92v-4.17c0-.51.41-.92.92-.92h0c.51,0,.92.41.92.92v4.17c0,.51-.41.92-.92.92Z"/>
              </g>
            </g>
          </g>
        </g>
        <path class="cls-6" d="m77.61,110.25c-1.39,0-2.55-.95-2.9-2.23-.07.25-.11.51-.11.78,0,1.66,1.35,3.01,3.01,3.01s3.01-1.35,3.01-3.01c0-.27-.05-.53-.11-.78-.34,1.28-1.51,2.23-2.9,2.23Z"/>
        <path class="cls-6" d="m101.84,110.25c-.51,0-.92-.41-.92-.92v1.55c0,.51.41.92.92.92s.92-.41.92-.92v-1.55c0,.51-.41.92-.92.92Z"/>
        <path class="cls-6" d="m105.92,110.25c-.51,0-.92-.41-.92-.92v1.55c0,.51.41.92.92.92s.92-.41.92-.92v-1.55c0,.51-.41.92-.92.92Z"/>
        <path class="cls-6" d="m110,110.25c-.51,0-.92-.41-.92-.92v1.55c0,.51.41.92.92.92s.92-.41.92-.92v-1.55c0,.51-.41.92-.92.92Z"/>
        <path class="cls-6" d="m77.61,130.11c-1.39,0-2.55-.95-2.9-2.23-.07.25-.11.51-.11.78,0,1.66,1.35,3.01,3.01,3.01s3.01-1.35,3.01-3.01c0-.27-.05-.53-.11-.78-.34,1.28-1.51,2.23-2.9,2.23Z"/>
        <path class="cls-6" d="m101.84,130.11c-.51,0-.92-.41-.92-.92v1.55c0,.51.41.92.92.92s.92-.41.92-.92v-1.55c0,.51-.41.92-.92.92Z"/>
        <path class="cls-6" d="m105.92,130.11c-.51,0-.92-.41-.92-.92v1.55c0,.51.41.92.92.92s.92-.41.92-.92v-1.55c0,.51-.41.92-.92.92Z"/>
        <path class="cls-6" d="m110,130.11c-.51,0-.92-.41-.92-.92v1.55c0,.51.41.92.92.92s.92-.41.92-.92v-1.55c0,.51-.41.92-.92.92Z"/>
      </g>
      <g>
        <circle class="cls-4" cx="92.09" cy="135.16" r="10.62"/>
        <g>
          <path class="cls-18" d="m91.18,141.32c-.52,0-1.02-.21-1.39-.57l-3.83-3.83c-.77-.77-.77-2.01,0-2.77.77-.77,2.01-.77,2.77,0l2.45,2.45,4.96-4.96c.77-.77,2.01-.77,2.77,0,.77.77.77,2.01,0,2.77l-6.34,6.35c-.37.37-.87.57-1.39.57Z"/>
          <path class="cls-5" d="m91.18,140.49c-.52,0-1.02-.21-1.39-.57l-3.83-3.83c-.77-.77-.77-2.01,0-2.77.77-.77,2.01-.77,2.77,0l2.45,2.45,4.96-4.96c.77-.77,2.01-.77,2.77,0,.77.77.77,2.01,0,2.77l-6.34,6.35c-.37.37-.87.57-1.39.57Z"/>
          <path class="cls-12" d="m98.91,130.93l-6.34,6.35c-.37.37-.87.57-1.39.57s-1.02-.21-1.39-.57l-3.83-3.83s-.03-.04-.05-.07c-.71.77-.69,1.96.05,2.71l3.83,3.83c.37.37.87.57,1.39.57s1.02-.21,1.39-.57l6.34-6.35c.75-.75.76-1.94.05-2.71-.02.02-.03.04-.05.07Z"/>
        </g>
      </g>
    </g>
  </g>
  <g>
    <g>
      <circle class="cls-15" cx="276.62" cy="206.56" r="52.93"/>
      <circle class="cls-7" cx="276.62" cy="206.56" r="45.79"/>
    </g>
    <path class="cls-15" d="m299.16,177h-11.32v-1.99c0-1.1-.89-1.99-1.99-1.99h-18.46c-1.1,0-1.99.89-1.99,1.99v1.99h-11.32c-1.1,0-1.99.89-1.99,1.99v56.45c0,1.1.89,1.99,1.99,1.99h45.08c1.1,0,1.99-.89,1.99-1.99v-56.45c0-1.1-.89-1.99-1.99-1.99Z"/>
    <g>
      <rect class="cls-4" x="252.08" y="174.34" width="49.07" height="60.44" rx="4.53" ry="4.53"/>
      <path class="cls-9" d="m299.16,232.96h-45.08c-1.1,0-1.99-.89-1.99-1.99v1.82c0,1.1.89,1.99,1.99,1.99h45.08c1.1,0,1.99-.89,1.99-1.99v-1.82c0,1.1-.89,1.99-1.99,1.99Z"/>
      <rect class="cls-9" x="265.39" y="171.68" width="22.45" height="7.98" rx="3.33" ry="3.33"/>
      <rect class="cls-8" x="265.39" y="170.35" width="22.45" height="7.98" rx="3.33" ry="3.33"/>
      <path class="cls-19" d="m285.84,175.85h-18.46c-1.1,0-1.99-.89-1.99-1.99v2.48c0,1.1.89,1.99,1.99,1.99h18.46c1.1,0,1.99-.89,1.99-1.99v-2.48c0,1.1-.89,1.99-1.99,1.99Z"/>
      <g>
        <path class="cls-9" d="m264.97,218.9h-4.41c-.37,0-.66.3-.66.66v7.35h0v1.54c0,.31.25.56.56.56h4.61c.31,0,.56-.25.56-.56v-8.9c0-.37-.3-.66-.66-.66Z"/>
        <path class="cls-9" d="m271.9,212.21h-4.41c-.37,0-.66.3-.66.66v15.59c0,.31.25.56.56.56h4.61c.31,0,.56-.25.56-.56v-15.59c0-.37-.3-.66-.66-.66Z"/>
        <path class="cls-9" d="m278.82,216h-4.41c-.37,0-.66.3-.66.66v11.7h0v.1c0,.31.25.56.56.56h4.61c.31,0,.56-.25.56-.56v-.1h0v-11.7c0-.37-.3-.66-.66-.66Z"/>
        <path class="cls-9" d="m285.75,209.64h-4.41c-.37,0-.66.3-.66.66v18.15c0,.31.25.56.56.56h4.61c.31,0,.56-.25.56-.56v-18.15c0-.37-.3-.66-.66-.66Z"/>
        <path class="cls-9" d="m293.29,212.54s-.01.02-.02.04c-.11-.22-.33-.37-.59-.37h-4.41c-.37,0-.66.3-.66.66v15.59c0,.31.25.56.56.56h4.61c.31,0,.56-.25.56-.56v-15.69c0-.08-.02-.16-.05-.23Z"/>
      </g>
      <g>
        <g>
          <rect class="cls-11" x="259.89" y="217.57" width="5.74" height="10.13" rx="2.4" ry="2.4"/>
          <rect class="cls-11" x="266.82" y="210.88" width="5.74" height="16.82" rx="2.4" ry="2.4"/>
          <rect class="cls-11" x="287.6" y="209.18" width="5.74" height="18.52" rx="1.96" ry="1.96"/>
          <rect class="cls-11" x="273.74" y="214.67" width="5.74" height="13.03" rx="2.4" ry="2.4"/>
          <rect class="cls-11" x="280.67" y="208.31" width="5.74" height="19.38" rx="2.4" ry="2.4"/>
        </g>
        <path class="cls-6" d="m259.89,225.58v1.54c0,.31.25.56.56.56h4.61c.31,0,.56-.25.56-.56v-.78c-1.97-.07-3.89-.33-5.74-.76Z"/>
        <path class="cls-6" d="m266.82,226.37v.76c0,.31.25.56.56.56h4.61c.31,0,.56-.25.56-.56v-1.3c-1.86.35-3.78.54-5.74.54Z"/>
        <path class="cls-6" d="m273.74,225.58v1.54c0,.31.25.56.56.56h4.61c.31,0,.56-.25.56-.56v-3.49c-1.83.83-3.75,1.48-5.74,1.94Z"/>
        <path class="cls-6" d="m280.67,223.07v4.06c0,.31.25.56.56.56h4.61c.31,0,.56-.25.56-.56v-7.83c-1.76,1.46-3.68,2.73-5.74,3.77Z"/>
        <path class="cls-6" d="m287.6,218.26v8.87c0,.31.25.56.56.56h4.61c.31,0,.56-.25.56-.56v-15.69c0-.08-.02-.16-.05-.23-1.54,2.62-3.47,5-5.69,7.05Z"/>
      </g>
      <g>
        <path class="cls-9" d="m283.05,202.12l-6.68-6.68h-10.76c.29,5.82,5.1,10.45,10.99,10.45,2.84,0,5.42-1.07,7.38-2.84l-.93-.93h0Z"/>
        <path class="cls-9" d="m265.74,193.16c-.01.07-.02.14-.03.21-.01.1-.02.2-.04.29,0,.06-.01.12-.02.18-.02.16-.03.32-.04.48h10.43v-10.43c-5.06.25-9.21,3.92-10.21,8.74h0s0,.04-.01.05c-.02.07-.03.15-.04.23-.02.08-.03.17-.04.25Z"/>
        <path class="cls-9" d="m287.6,194.32s0-.06,0-.09c0-.16-.02-.31-.04-.47,0,0,0,0,0,0,0,0,0,0,0,0-.55-5.37-4.95-9.6-10.39-9.87v10.76l7.61,7.61c1.76-1.95,2.84-4.54,2.84-7.38,0-.19,0-.38-.01-.56Z"/>
      </g>
      <g>
        <path class="cls-10" d="m276.38,194.12h-10.76c.29,5.82,5.1,10.45,10.99,10.45,2.84,0,5.42-1.07,7.38-2.84l-7.61-7.61Z"/>
        <path class="cls-16" d="m276.61,202.87c-5.31,0-9.74-3.76-10.78-8.76h-.22c.29,5.82,5.1,10.45,10.99,10.45,2.84,0,5.42-1.07,7.38-2.84l-.93-.93c-1.81,1.31-4.04,2.08-6.44,2.08Z"/>
        <path class="cls-5" d="m276.05,192.99v-10.43c-5.63.28-10.15,4.8-10.43,10.43h10.43Z"/>
        <path class="cls-12" d="m265.61,192.99h10.43v-1.69h-10.21c-.11.55-.19,1.11-.22,1.69Z"/>
        <path class="cls-11" d="m277.17,193.32l7.61,7.61c1.76-1.95,2.84-4.54,2.84-7.38,0-5.89-4.63-10.7-10.45-10.99v10.76Z"/>
        <path class="cls-6" d="m284.78,198.68l-7.61-7.61v2.25l7.61,7.61c1.76-1.95,2.84-4.54,2.84-7.38,0-.38-.02-.76-.06-1.13-.24,2.39-1.25,4.56-2.78,6.25Z"/>
      </g>
    </g>
  </g>
  <g>
    <g>
      <circle class="cls-15" cx="276.62" cy="395.21" r="52.1"/>
      <circle class="cls-7" cx="276.62" cy="395.21" r="45.08"/>
    </g>
    <path class="cls-14" d="m265.87,405.79s-.04.08-.06.12h0s.04-.08.06-.12Z"/>
    <g>
      <path class="cls-15" d="m309.36,395.79v3.65c0,.19-.03.38-.08.54-.25.85-1.05,1.52-2.07,1.65l-6.43.88c-.03.15-.06.31-.1.46-.06.28-.13.57-.21.85-.08.31-.17.61-.26.91-.02.09-.05.18-.08.28-.09.29-.19.57-.29.86-.08.24-.17.48-.27.71-.18.47-.38.93-.6,1.39-.07.15-.14.29-.21.43-.44.9-.93,1.76-1.48,2.6-.05.07-.09.14-.14.21l.92,1.22,3.02,3.98c.76.99.74,2.3-.03,3.07l-2.58,2.58c-.29.29-.66.47-1.05.55-.14.02-.27.04-.41.04-.08,0-.15,0-.23,0-.11-.02-.23-.03-.35-.06-.11-.02-.21-.05-.32-.1-.14-.05-.28-.11-.41-.19-.1-.06-.21-.12-.3-.2l-5.21-3.95c-2.59,1.71-5.52,2.95-8.67,3.59l-.89,6.49c-.02.14-.05.27-.08.4-1.3.08-2.61.12-3.94.12s-2.64-.05-3.94-.12c-.04-.13-.06-.26-.08-.4l-.89-6.49c-1.57-.32-3.09-.79-4.53-1.39-.33-.14-.65-.28-.97-.42-.19-.09-.38-.18-.56-.28-.27-.13-.54-.27-.8-.41-.25-.14-.49-.28-.73-.41-.38-.22-.74-.44-1.1-.68l-5.2,3.95c-1,.76-2.3.74-3.08-.03l-2.58-2.58c-.77-.77-.79-2.08-.03-3.07l3.02-3.98.92-1.22c-1.73-2.59-2.98-5.53-3.63-8.7l-6.42-.88c-1.24-.17-2.15-1.1-2.15-2.2v-3.65c0-1.1.91-2.03,2.15-2.2l6.39-.87c.13-.66.28-1.3.47-1.94.21-.78.48-1.55.77-2.29.07-.19.15-.38.22-.56.18-.43.38-.85.59-1.27.02-.03.03-.07.05-.1h0c.04-.08.08-.17.12-.25.07-.14.15-.28.22-.42.35-.67.74-1.31,1.16-1.95l-3.88-5.11c-.76-1-.74-2.3.03-3.08l2.58-2.58c.78-.77,2.08-.79,3.08-.03l5.09,3.87c.07-.05.15-.1.22-.15,2-1.3,4.2-2.33,6.54-3.01.1-.03.2-.06.3-.08.57-.16,1.15-.3,1.74-.42l.87-6.32c.17-1.24,1.1-2.15,2.2-2.15h3.65c1.1,0,2.03.91,2.2,2.15l.87,6.32c3.2.64,6.18,1.91,8.8,3.66l5.1-3.87c.99-.76,2.3-.74,3.07.03l2.58,2.58c.25.25.42.56.51.9.18.7.03,1.51-.48,2.18l-3.88,5.11c.14.21.28.44.41.65.26.43.51.86.74,1.29.12.22.24.45.35.67.31.63.6,1.27.86,1.93.08.18.15.38.21.56.44,1.19.78,2.41,1.03,3.67l6.4.87c1.23.17,2.15,1.1,2.15,2.2Z"/>
      <g>
        <g>
          <g>
            <path class="cls-12" d="m279.65,375.6h-6.06c-1.36,0-2.41-1.39-2.2-2.93l1.21-8.82c.17-1.24,1.1-2.15,2.2-2.15h3.65c1.1,0,2.03.91,2.2,2.15l1.21,8.82c.21,1.54-.83,2.93-2.2,2.93Z"/>
            <path class="cls-12" d="m273.58,413.27h6.06c1.36,0,2.41,1.39,2.2,2.93l-1.21,8.82c-.17,1.24-1.1,2.15-2.2,2.15h-3.65c-1.1,0-2.03-.91-2.2-2.15l-1.21-8.82c-.21-1.54.83-2.93,2.2-2.93Z"/>
          </g>
          <g>
            <path class="cls-5" d="m278.44,375.6h-3.65c-.82,0-1.45-1.39-1.32-2.93l.73-8.82c.1-1.24.66-2.15,1.32-2.15h2.2c.66,0,1.22.91,1.32,2.15l.73,8.82c.13,1.54-.5,2.93-1.32,2.93Z"/>
            <path class="cls-5" d="m274.79,413.27h3.65c.82,0,1.45,1.39,1.32,2.93l-.73,8.82c-.1,1.24-.66,2.15-1.32,2.15h-2.2c-.66,0-1.22-.91-1.32-2.15l-.73-8.82c-.13-1.54.5-2.93,1.32-2.93Z"/>
          </g>
          <g>
            <path class="cls-5" d="m295.45,397.47v-6.06c0-1.36,1.39-2.41,2.93-2.2l8.82,1.21c1.24.17,2.15,1.1,2.15,2.2v3.65c0,1.1-.91,2.03-2.15,2.2l-8.82,1.21c-1.54.21-2.93-.83-2.93-2.2Z"/>
            <path class="cls-12" d="m307.21,395.61l-8.82,1.21c-1.54.21-2.93-.83-2.93-2.2v2.85c0,1.36,1.39,2.41,2.93,2.2l8.82-1.21c1.24-.17,2.15-1.1,2.15-2.2v-2.85c0,1.1-.91,2.03-2.15,2.2Z"/>
            <path class="cls-5" d="m257.78,391.4v6.06c0,1.36-1.39,2.41-2.93,2.2l-8.82-1.21c-1.24-.17-2.15-1.1-2.15-2.2v-3.65c0-1.1.91-2.03,2.15-2.2l8.82-1.21c1.54-.21,2.93.83,2.93,2.2Z"/>
            <path class="cls-12" d="m246.02,395.61l8.82,1.21c1.54.21,2.93-.83,2.93-2.2v2.85c0,1.36-1.39,2.41-2.93,2.2l-8.82-1.21c-1.24-.17-2.15-1.1-2.15-2.2v-2.85c0,1.1.91,2.03,2.15,2.2Z"/>
          </g>
          <g>
            <path class="cls-5" d="m292.08,383.26l-4.29-4.29c-.97-.97-.72-2.69.52-3.63l7.09-5.39c.99-.76,2.3-.74,3.07.03l2.58,2.58c.77.77.79,2.08.03,3.07l-5.39,7.09c-.94,1.24-2.66,1.49-3.63.52Z"/>
            <path class="cls-12" d="m299.08,373.63l-5.39,7.09c-.94,1.24-2.66,1.49-3.63.52l2.02,2.02c.97.97,2.69.72,3.63-.52l5.39-7.09c.76-.99.74-2.3-.03-3.07l-2.02-2.02c.77.77.79,2.08.03,3.07Z"/>
            <path class="cls-5" d="m261.15,405.61l4.29,4.29c.97.97.72,2.69-.52,3.63l-7.09,5.39c-.99.76-2.3.74-3.07-.03l-2.58-2.58c-.77-.77-.79-2.08-.03-3.07l5.39-7.09c.94-1.24,2.66-1.49,3.63-.52Z"/>
            <path class="cls-12" d="m255.81,416.9l7.09-5.39c1.24-.94,1.49-2.66.52-3.63l2.02,2.02c.97.97.72,2.69-.52,3.63l-7.09,5.39c-.99.76-2.3.74-3.07-.03l-2.02-2.02c.77.77,2.08.79,3.07.03Z"/>
          </g>
          <g>
            <path class="cls-5" d="m287.79,409.9l4.29-4.29c.97-.97,2.69-.72,3.63.52l5.39,7.09c.76.99.74,2.3-.03,3.07l-2.58,2.58c-.77.77-2.08.79-3.07.03l-7.09-5.39c-1.24-.94-1.49-2.66-.52-3.63Z"/>
            <path class="cls-12" d="m297.42,416.9l-7.09-5.39c-1.24-.94-1.49-2.66-.52-3.63l-2.02,2.02c-.97.97-.72,2.69.52,3.63l7.09,5.39c.99.76,2.3.74,3.07-.03l2.02-2.02c-.77.77-2.08.79-3.07.03Z"/>
            <path class="cls-5" d="m265.44,378.97l-4.29,4.29c-.97.97-2.69.72-3.63-.52l-5.39-7.09c-.76-.99-.74-2.3.03-3.07l2.58-2.58c.77-.77,2.08-.79,3.07-.03l7.09,5.39c1.24.94,1.49,2.66.52,3.63Z"/>
            <path class="cls-12" d="m254.16,373.63l5.39,7.09c.94,1.24,2.66,1.49,3.63.52l-2.02,2.02c-.97.97-2.69.72-3.63-.52l-5.39-7.09c-.76-.99-.74-2.3.03-3.07l2.02-2.02c-.77.77-.79,2.08-.03,3.07Z"/>
          </g>
          <path class="cls-5" d="m276.62,369.68c-13.63,0-24.67,11.05-24.67,24.67s11.05,24.67,24.67,24.67,24.67-11.05,24.67-24.67-11.05-24.67-24.67-24.67Zm0,38.99c-7.91,0-14.32-6.41-14.32-14.32s6.41-14.32,14.32-14.32,14.32,6.41,14.32,14.32-6.41,14.32-14.32,14.32Z"/>
          <path class="cls-12" d="m276.62,369.68c-13.63,0-24.67,11.05-24.67,24.67s11.05,24.67,24.67,24.67,24.67-11.05,24.67-24.67-11.05-24.67-24.67-24.67Zm0,44.8c-11.12,0-20.13-9.01-20.13-20.13s9.01-20.13,20.13-20.13,20.13,9.01,20.13,20.13-9.01,20.13-20.13,20.13Z"/>
        </g>
        <circle class="cls-16" cx="276.62" cy="394.36" r="14.32" transform="translate(-198.36 474.54) rotate(-64.53)"/>
        <circle class="cls-10" cx="276.62" cy="394.36" r="11.41" transform="translate(-195.93 487.78) rotate(-66.14)"/>
      </g>
    </g>
  </g>
  <g>
    <g>
      <circle class="cls-15" cx="92.09" cy="300.97" r="52.93"/>
      <circle class="cls-7" cx="92.09" cy="300.97" r="45.79"/>
    </g>
    <g>
      <path class="cls-15" d="m126.4,281.37s0,0,0,0c0,0,0-.01,0-.02,0-.1,0-.2,0-.3,0-.04,0-.09,0-.13,0-.06,0-.12-.01-.18,0-.05,0-.11-.01-.16,0-.04-.01-.08-.02-.12-.02-.13-.04-.26-.06-.4,0-.01,0-.03,0-.04-.02-.08-.03-.17-.05-.25,0,0,0,0,0,0-.73-3.22-3.61-5.63-7.06-5.63s-6.33,2.41-7.06,5.63c0,0,0,0,0,0-.02.08-.04.17-.05.25,0,.01,0,.03,0,.04-.02.13-.04.27-.06.4,0,.04-.01.08-.01.12,0,.05-.01.11-.02.16,0,.06-.01.12-.01.18,0,.04,0,.09,0,.13,0,.1,0,.2,0,.3,0,0,0,.01,0,.02,0,0,0,0,0,0,0,0,0,0,0,0,0,.76.12,1.5.34,2.19l-7.61,6.21c-1.05-.59-2.25-.92-3.53-.92-2.04,0-3.88.85-5.2,2.2l-5.62-2.33s0-.08,0-.12c0-.11,0-.22,0-.33,0-.03,0-.07,0-.1,0-.08-.01-.16-.02-.24,0-.04,0-.07,0-.11-.01-.1-.02-.21-.04-.31,0-.03-.01-.06-.02-.09-.01-.07-.02-.15-.04-.22,0-.05-.02-.09-.03-.14-.01-.06-.03-.12-.04-.17-.01-.05-.02-.09-.03-.14-.02-.09-.05-.18-.08-.27h0c-.91-2.96-3.66-5.12-6.92-5.12s-6.02,2.16-6.92,5.13c-.03.09-.05.17-.07.26-.01.05-.02.1-.04.14-.01.06-.03.11-.04.17-.01.05-.02.09-.03.14-.01.07-.03.14-.04.22,0,.03-.01.06-.02.1-.02.1-.03.21-.04.31,0,.04,0,.07-.01.11,0,.08-.01.16-.02.24,0,.03,0,.07,0,.1,0,.11,0,.22,0,.33h0c0,.5.05.99.15,1.46.02.12.05.23.08.35.09.35.2.68.34,1.01.04.09.08.17.12.26l-8.82,9.36c-.83-.33-1.73-.51-2.68-.51-3.26,0-6.02,2.16-6.92,5.13-.03.09-.05.17-.07.26-.01.05-.02.1-.04.14-.01.06-.03.11-.04.17-.01.05-.02.09-.03.14-.01.07-.03.14-.04.22,0,.03-.01.06-.02.1-.02.1-.03.21-.04.31,0,.04,0,.07,0,.11,0,.08-.01.16-.02.24,0,.03,0,.07,0,.1,0,.11,0,.22,0,.33,0,4,3.24,7.24,7.24,7.24,3.12,0,5.78-1.98,6.8-4.75.04-.11.08-.22.11-.34.18-.57.28-1.16.32-1.78,0-.12,0-.25,0-.37,0-.11,0-.22,0-.33,0-.03,0-.07,0-.1,0-.08-.01-.16-.02-.24,0-.04,0-.07-.01-.11-.01-.1-.02-.21-.04-.31,0-.03-.01-.06-.02-.1-.01-.07-.02-.14-.04-.22,0-.05-.02-.09-.03-.14-.01-.06-.03-.11-.04-.17-.01-.05-.02-.1-.04-.14-.02-.09-.05-.18-.08-.27h0c-.1-.33-.23-.65-.37-.96l8.82-9.36c.83.33,1.73.51,2.68.51.12,0,.25,0,.37,0,.62-.03,1.21-.14,1.78-.32.11-.04.23-.07.34-.11,1.03-.38,1.96-.99,2.71-1.77l5.62,2.33s0,.08,0,.12h0c0,2,.81,3.81,2.12,5.12.08.08.17.16.25.24.17.16.35.3.54.44,1.21.9,2.71,1.44,4.33,1.44.12,0,.25,0,.37,0,.62-.03,1.21-.14,1.78-.32.11-.04.23-.07.34-.11.75-.28,1.45-.67,2.06-1.17.11-.09.22-.18.32-.27,1.46-1.32,2.37-3.23,2.37-5.36,0-.11,0-.22,0-.33,0-.03,0-.07,0-.1,0-.08-.01-.16-.02-.24,0-.04,0-.07,0-.11-.01-.1-.02-.21-.04-.31,0-.03-.01-.06-.02-.09-.01-.07-.02-.15-.04-.22,0-.05-.02-.09-.03-.14-.01-.06-.03-.12-.04-.17-.01-.05-.02-.09-.03-.14-.02-.09-.05-.18-.08-.27h0s-.02-.05-.02-.08l7.61-6.21c1.05.59,2.25.92,3.54.92,4,0,7.24-3.24,7.24-7.24,0,0,0,0,0,0Z"/>
      <polygon class="cls-15" points="63.75 319 62.36 319 62.36 327.82 63.75 327.82 66.29 327.82 67.68 327.82 67.68 319 66.29 319 63.75 319"/>
      <polygon class="cls-15" points="117.89 292.84 116.51 292.84 116.51 327.82 117.89 327.82 120.44 327.82 121.83 327.82 121.83 292.84 120.44 292.84 117.89 292.84"/>
      <polygon class="cls-15" points="81.79 299.84 80.41 299.84 80.41 327.82 81.79 327.82 84.34 327.82 85.73 327.82 85.73 299.84 84.34 299.84 81.79 299.84"/>
      <polygon class="cls-15" points="99.84 307.32 98.46 307.32 98.46 327.82 99.84 327.82 102.39 327.82 103.78 327.82 103.78 307.32 102.39 307.32 99.84 307.32"/>
    </g>
    <g>
      <polygon class="cls-4" points="66.95 306.94 63.08 303.29 82.39 282.79 100.67 290.36 117.48 276.64 120.85 280.77 101.57 296.49 83.75 289.11 66.95 306.94"/>
      <polygon class="cls-9" points="101.57 293.21 83.75 285.83 66.95 303.65 64.72 301.55 63.08 303.29 66.95 306.94 83.75 289.11 101.57 296.49 120.85 280.77 119.24 278.79 101.57 293.21"/>
      <g>
        <circle class="cls-11" cx="65.02" cy="305.11" r="7.24"/>
        <path class="cls-6" d="m65.02,308.11c-3.26,0-6.02-2.16-6.92-5.12-.21.67-.32,1.38-.32,2.12,0,4,3.24,7.24,7.24,7.24s7.24-3.24,7.24-7.24c0-.74-.11-1.45-.32-2.12-.91,2.96-3.66,5.12-6.92,5.12Z"/>
        <circle class="cls-10" cx="83.07" cy="285.95" r="7.24"/>
        <circle class="cls-5" cx="101.12" cy="293.43" r="7.24"/>
        <circle class="cls-11" cx="119.17" cy="278.7" r="7.24"/>
        <path class="cls-16" d="m83.07,288.95c-3.26,0-6.02-2.16-6.92-5.12-.21.67-.32,1.38-.32,2.12,0,4,3.24,7.24,7.24,7.24s7.24-3.24,7.24-7.24c0-.74-.11-1.45-.32-2.12-.91,2.96-3.66,5.12-6.92,5.12Z"/>
        <path class="cls-12" d="m101.12,296.43c-3.26,0-6.02-2.16-6.92-5.12-.21.67-.32,1.38-.32,2.12,0,4,3.24,7.24,7.24,7.24s7.24-3.24,7.24-7.24c0-.74-.11-1.45-.32-2.12-.91,2.96-3.66,5.12-6.92,5.12Z"/>
        <path class="cls-6" d="m119.17,281.71c-3.26,0-6.02-2.16-6.92-5.12-.21.67-.32,1.38-.32,2.12,0,4,3.24,7.24,7.24,7.24s7.24-3.24,7.24-7.24c0-.74-.11-1.45-.32-2.12-.91,2.96-3.66,5.12-6.92,5.12Z"/>
      </g>
      <rect class="cls-9" x="62.36" y="316.34" width="5.32" height="8.82"/>
      <rect class="cls-4" x="63.75" y="316.34" width="2.55" height="8.82"/>
      <rect class="cls-9" x="80.41" y="297.18" width="5.32" height="27.98"/>
      <rect class="cls-9" x="98.46" y="304.66" width="5.32" height="20.5"/>
      <rect class="cls-9" x="116.51" y="290.18" width="5.32" height="34.98"/>
      <rect class="cls-4" x="117.89" y="290.18" width="2.55" height="34.98"/>
      <rect class="cls-4" x="81.79" y="297.18" width="2.55" height="27.98"/>
      <rect class="cls-4" x="99.84" y="304.66" width="2.55" height="20.5"/>
    </g>
  </g>
  <circle class="cls-17" cx="184.49" cy="27.21" r="7.11"/>
  <circle class="cls-17" cx="184.49" cy="480.49" r="7.11"/>
  <path class="cls-3" d="m184.49,476.47s0-65.18,0-65.18c8.88,0,16.07-7.2,16.07-16.07s-7.2-16.07-16.07-16.07v-62.09c-8.88,0-16.07-7.2-16.07-16.07s7.2-16.07,16.07-16.07c0,0,0-62.09,0-62.09,8.88,0,16.07-7.2,16.07-16.07s-7.2-16.07-16.07-16.07c0,0,0-62.09,0-62.09-8.88,0-16.07-7.2-16.07-16.07s7.2-16.07,16.07-16.07V30.32"/>
  <circle class="cls-5" cx="183.52" cy="111.53" r="6.14"/>
  <circle class="cls-5" cx="185.47" cy="206.93" r="6.14"/>
  <circle class="cls-5" cx="182.96" cy="300.31" r="6.14"/>
  <circle class="cls-5" cx="186.07" cy="395.21" r="6.14"/>
  <g>
    <line class="cls-2" x1="183.52" y1="111.53" x2="206.19" y2="111.73"/>
    <polygon class="cls-5" points="204.36 117.8 214.95 111.81 204.47 105.63 204.36 117.8"/>
  </g>
  <g>
    <path class="cls-15" d="m224.78,103.57h6.57c5.09,0,8.01,3.31,8.01,7.54,0,5-3.55,8.06-8.07,8.06h-6.51v-15.6Zm2.58,13.51h3.47c3.88,0,5.79-2.38,5.79-5.89s-2.14-5.52-5.64-5.54h-3.62v11.43Z"/>
    <path class="cls-15" d="m252.38,116.31c0,1.18.07,2.6.1,2.86h-2.33c-.09-.37-.12-1.19-.13-1.55-.59,1.11-1.86,1.85-4.17,1.85-3.14,0-4.32-1.9-4.32-3.61,0-2.88,2.59-3.68,5.81-3.68h2.63v-.54c0-1.15-.49-2.19-2.7-2.19-1.99,0-2.46.85-2.66,1.79h-2.45c.12-1.46,1.11-3.58,5.1-3.58,4.26,0,5.11,2.06,5.11,3.92v4.72Zm-2.4-2.45c-.33,0-1.08,0-2.58,0-2.38,0-3.46.55-3.46,1.89,0,1.02.77,1.87,2.48,1.87,2.72,0,3.56-1.53,3.56-3.34v-.41Z"/>
    <path class="cls-15" d="m254.15,107.98h2.17v-3.53h2.46v3.53h2.84v1.88h-2.84v5.78c0,1.2.3,1.74,1.48,1.74.32,0,.75-.01,1.07-.09v1.76c-.53.18-1.17.22-1.86.22-2.42,0-3.15-1.07-3.15-3.27v-6.14h-2.17v-1.88Z"/>
    <path class="cls-15" d="m274,116.31c0,1.18.07,2.6.1,2.86h-2.33c-.09-.37-.12-1.19-.13-1.55-.59,1.11-1.86,1.85-4.17,1.85-3.14,0-4.32-1.9-4.32-3.61,0-2.88,2.59-3.68,5.81-3.68h2.63v-.54c0-1.15-.49-2.19-2.7-2.19-1.99,0-2.46.85-2.66,1.79h-2.45c.12-1.46,1.11-3.58,5.1-3.58,4.26,0,5.11,2.06,5.11,3.92v4.72Zm-2.4-2.45c-.33,0-1.08,0-2.58,0-2.38,0-3.46.55-3.46,1.89,0,1.02.77,1.87,2.48,1.87,2.72,0,3.56-1.53,3.56-3.34v-.41Z"/>
  </g>
  <g>
    <line class="cls-2" x1="182.96" y1="300.36" x2="205.64" y2="300.56"/>
    <polygon class="cls-5" points="203.81 306.62 214.4 300.63 203.91 294.46 203.81 306.62"/>
  </g>
  <g>
    <path class="cls-15" d="m226.79,303.55l-1.86,4.44h-2.68l6.61-15.6h3.19l6.89,15.6h-2.8l-1.95-4.44h-7.4Zm6.61-2.15c-1.8-4.13-2.65-6.12-3.01-7.21h-.02c-.33,1.06-1.34,3.66-2.81,7.21h5.85Z"/>
    <path class="cls-15" d="m241.1,299.63c0-.94,0-2-.02-2.82h2.39c.04.37.08,1.23.09,1.92.49-1,1.62-2.23,3.97-2.23,2.66,0,4.34,1.64,4.34,4.67v6.83h-2.47v-6.41c0-1.7-.65-3.08-2.62-3.08-2.17,0-3.22,1.62-3.22,4.07v5.42h-2.46v-8.37Z"/>
    <path class="cls-15" d="m265.29,305.14c0,1.18.07,2.6.1,2.86h-2.33c-.09-.37-.12-1.19-.13-1.55-.59,1.11-1.86,1.85-4.17,1.85-3.14,0-4.32-1.9-4.32-3.61,0-2.88,2.59-3.68,5.81-3.68h2.63v-.54c0-1.15-.49-2.19-2.7-2.19-1.99,0-2.46.85-2.66,1.79h-2.45c.12-1.46,1.11-3.58,5.1-3.58,4.26,0,5.11,2.06,5.11,3.92v4.72Zm-2.4-2.45c-.33,0-1.08,0-2.58,0-2.38,0-3.46.55-3.46,1.89,0,1.02.77,1.87,2.48,1.87,2.72,0,3.56-1.53,3.56-3.34v-.41Z"/>
    <path class="cls-15" d="m268.75,308v-16.5h2.45v16.5h-2.45Z"/>
    <path class="cls-15" d="m276.16,296.81c2.27,5.33,3.45,8.37,3.75,9.28h.04c.37-1.11,1.45-4.26,3.43-9.28h2.53l-4.23,10.38c-1.97,4.85-2.66,5.98-5.72,5.98-.43,0-1.13-.04-1.53-.12v-2.09c.45.06.9.08,1.21.08,1.51,0,2.04-.59,2.95-2.54l-5.13-11.68h2.69Z"/>
    <path class="cls-15" d="m287.34,296.81h2.17v-3.53h2.46v3.53h2.84v1.88h-2.84v5.78c0,1.2.3,1.74,1.48,1.74.32,0,.75-.01,1.07-.09v1.76c-.53.18-1.17.22-1.86.22-2.42,0-3.15-1.07-3.15-3.27v-6.14h-2.17v-1.88Z"/>
    <path class="cls-15" d="m297.21,291.49h2.45v2.6h-2.45v-2.6Zm0,5.31h2.45v11.19h-2.45v-11.19Z"/>
    <path class="cls-15" d="m313.87,304.43c-.52,2.05-2.3,3.88-5.6,3.88-4.06,0-5.97-2.69-5.97-5.88s2.16-5.92,5.99-5.92,5.31,2.52,5.53,3.95h-2.45c-.34-.94-1.14-2.01-3.1-2.01-2.23,0-3.47,1.66-3.47,3.96s1.19,3.97,3.47,3.97c1.68,0,2.6-.74,3.13-1.93h2.45Z"/>
    <path class="cls-15" d="m318.08,304.6c.37,1.2,1.41,1.91,3.31,1.91,2,0,2.67-.68,2.67-1.57s-.54-1.41-3.24-1.75c-4.01-.52-4.72-1.94-4.72-3.33,0-1.51,1.19-3.37,4.84-3.37,3.89,0,5.05,1.97,5.18,3.37h-2.45c-.17-.64-.61-1.61-2.86-1.61-1.89,0-2.28.8-2.28,1.38,0,.74.49,1.19,2.93,1.52,4.29.59,5.03,1.95,5.03,3.58,0,2.02-1.54,3.56-5.26,3.56-3.21,0-5.24-1.36-5.61-3.71h2.46Z"/>
  </g>
  <g>
    <line class="cls-2" x1="185.04" y1="395.93" x2="162.37" y2="396.13"/>
    <polygon class="cls-5" points="164.09 390.04 153.61 396.21 164.2 402.2 164.09 390.04"/>
  </g>
  <g>
    <path class="cls-15" d="m29,387.87l-1.86,4.44h-2.68l6.61-15.6h3.19l6.89,15.6h-2.8l-1.95-4.44h-7.4Zm6.61-2.15c-1.8-4.13-2.65-6.12-3.01-7.21h-.02c-.33,1.06-1.34,3.66-2.81,7.21h5.85Z"/>
    <path class="cls-15" d="m54,388.75c-.52,2.05-2.3,3.88-5.6,3.88-4.06,0-5.97-2.69-5.97-5.88s2.16-5.93,5.99-5.93,5.31,2.52,5.53,3.95h-2.45c-.34-.94-1.14-2.01-3.1-2.01-2.23,0-3.47,1.66-3.47,3.96s1.19,3.97,3.47,3.97c1.68,0,2.6-.74,3.13-1.94h2.45Z"/>
    <path class="cls-15" d="m55.32,381.13h2.17v-3.53h2.46v3.53h2.84v1.88h-2.84v5.78c0,1.2.3,1.74,1.48,1.74.32,0,.75-.01,1.07-.09v1.76c-.53.18-1.17.21-1.86.21-2.42,0-3.15-1.07-3.15-3.27v-6.14h-2.17v-1.88Z"/>
    <path class="cls-15" d="m65.18,375.81h2.45v2.6h-2.45v-2.6Zm0,5.31h2.45v11.19h-2.45v-11.19Z"/>
    <path class="cls-15" d="m82.43,386.72c0,3.19-2.1,5.91-6.15,5.91s-6-2.8-6-5.9,2.23-5.91,6.11-5.91,6.04,2.98,6.04,5.9Zm-9.64.01c0,2.03,1.26,3.94,3.57,3.94s3.54-1.8,3.54-3.91-1.23-3.99-3.59-3.99-3.53,1.84-3.53,3.96Z"/>
    <path class="cls-15" d="m85.08,383.95c0-.94,0-2-.02-2.82h2.39c.04.37.08,1.23.09,1.92.49-1,1.62-2.23,3.97-2.23,2.66,0,4.34,1.64,4.34,4.67v6.83h-2.47v-6.41c0-1.71-.65-3.08-2.62-3.08-2.17,0-3.22,1.62-3.22,4.07v5.42h-2.46v-8.37Z"/>
    <path class="cls-15" d="m109.27,389.46c0,1.18.07,2.6.1,2.86h-2.33c-.09-.37-.12-1.19-.13-1.54-.59,1.11-1.86,1.85-4.17,1.85-3.14,0-4.32-1.9-4.32-3.61,0-2.88,2.59-3.68,5.81-3.68h2.63v-.54c0-1.14-.49-2.19-2.7-2.19-1.99,0-2.46.85-2.66,1.79h-2.45c.12-1.46,1.11-3.58,5.1-3.58,4.26,0,5.11,2.06,5.11,3.92v4.72Zm-2.4-2.45c-.33,0-1.08,0-2.58,0-2.38,0-3.46.55-3.46,1.89,0,1.02.77,1.87,2.48,1.87,2.72,0,3.56-1.53,3.56-3.35v-.41Z"/>
    <path class="cls-15" d="m112.73,375.81h2.45v6.92c.56-.82,1.72-1.91,4.04-1.91,3.1,0,5.4,2.43,5.4,5.7,0,3.77-2.38,6.11-5.55,6.11-2.34,0-3.39-.98-3.96-1.93-.01.48-.02,1.26-.06,1.62h-2.35c.02-1.46.02-2.55.02-3.82v-12.68Zm9.37,10.8c0-1.83-1.02-3.79-3.46-3.79s-3.55,1.66-3.55,3.88c0,2.36,1.34,3.89,3.54,3.89,2.44,0,3.46-1.89,3.46-3.99Z"/>
    <path class="cls-15" d="m127.32,392.32v-16.5h2.45v16.5h-2.45Z"/>
    <path class="cls-15" d="m134.86,387.3c.11,1.95,1.45,3.4,3.57,3.4,1.65,0,2.53-.64,3.09-1.63h2.45c-.62,1.74-2.23,3.55-5.63,3.55-4.15,0-5.93-2.96-5.93-5.88,0-3.32,2.22-5.93,5.88-5.93,4.27,0,5.83,3.09,5.83,5.86,0,.21,0,.37,0,.62h-9.25Zm6.73-1.66c-.09-1.21-.74-2.98-3.31-2.98-2.19,0-3.2,1.33-3.37,2.98h6.69Z"/>
    <path class="cls-15" d="m92.33,402.86h-5.84v-2.14h14.26v2.14h-5.83v13.46h-2.59v-13.46Z"/>
    <path class="cls-15" d="m111.54,410.72c0,3.19-2.1,5.91-6.15,5.91s-6-2.8-6-5.9,2.23-5.91,6.11-5.91,6.04,2.98,6.04,5.9Zm-9.64.01c0,2.03,1.26,3.94,3.57,3.94s3.54-1.8,3.54-3.91-1.23-3.99-3.59-3.99-3.53,1.84-3.53,3.96Z"/>
    <path class="cls-15" d="m125.55,410.72c0,3.19-2.1,5.91-6.15,5.91s-6-2.8-6-5.9,2.23-5.91,6.11-5.91,6.04,2.98,6.04,5.9Zm-9.64.01c0,2.03,1.26,3.94,3.57,3.94s3.54-1.8,3.54-3.91-1.23-3.99-3.59-3.99-3.53,1.84-3.53,3.96Z"/>
    <path class="cls-15" d="m128.24,416.32v-16.5h2.45v16.5h-2.45Z"/>
    <path class="cls-15" d="m135.67,412.92c.37,1.2,1.41,1.91,3.31,1.91,2,0,2.67-.68,2.67-1.57s-.54-1.41-3.24-1.75c-4.01-.52-4.72-1.94-4.72-3.33,0-1.51,1.19-3.37,4.84-3.37,3.89,0,5.05,1.97,5.18,3.37h-2.45c-.17-.64-.61-1.61-2.86-1.61-1.89,0-2.28.8-2.28,1.38,0,.74.49,1.19,2.93,1.52,4.29.59,5.03,1.95,5.03,3.58,0,2.02-1.54,3.56-5.26,3.56-3.21,0-5.24-1.36-5.61-3.71h2.46Z"/>
  </g>
  <g>
    <line class="cls-2" x1="185.04" y1="207.63" x2="162.37" y2="207.84"/>
    <polygon class="cls-5" points="164.09 201.74 153.61 207.91 164.2 213.9 164.09 201.74"/>
  </g>
  <g>
    <path class="cls-15" d="m38.11,208.89v6.55h-2.56v-15.6h7.7c3.29,0,5.41,1.54,5.41,4.29,0,1.92-.99,3.22-2.82,3.71.93.28,2.41,1.02,2.41,3.76v.71c0,1.17,0,2.45.19,3.13h-2.64c-.24-.68-.22-1.8-.22-3.2v-.52c0-2.13-.82-2.84-3.44-2.84h-4.02Zm0-2.05h4.51c2.29,0,3.39-.81,3.39-2.54,0-1.59-1.11-2.41-3.32-2.41h-4.58v4.94Z"/>
    <path class="cls-15" d="m53.36,210.43c.11,1.95,1.45,3.4,3.57,3.4,1.65,0,2.53-.64,3.09-1.63h2.45c-.62,1.74-2.23,3.55-5.63,3.55-4.15,0-5.93-2.96-5.93-5.87,0-3.33,2.22-5.93,5.88-5.93,4.27,0,5.83,3.08,5.83,5.86,0,.21,0,.37,0,.62h-9.25Zm6.73-1.66c-.09-1.21-.74-2.98-3.31-2.98-2.19,0-3.2,1.33-3.37,2.98h6.69Z"/>
    <path class="cls-15" d="m67.72,213.93v6.38h-2.45v-13.27c0-.92,0-1.86-.02-2.78h2.4c.04.29.08,1.05.08,1.81.65-1.11,1.92-2.12,4.21-2.12,2.99,0,5.22,2.46,5.22,5.7,0,3.71-2.59,6.1-5.6,6.1-2.2,0-3.24-.94-3.83-1.83Zm6.91-4.17c0-1.91-1.09-3.81-3.45-3.81-2.47,0-3.52,1.71-3.52,3.94s1.16,3.84,3.48,3.84,3.49-1.82,3.49-3.97Z"/>
    <path class="cls-15" d="m91.17,209.85c0,3.19-2.1,5.91-6.15,5.91s-6-2.8-6-5.9,2.23-5.91,6.11-5.91,6.04,2.98,6.04,5.9Zm-9.64.01c0,2.03,1.26,3.94,3.57,3.94s3.54-1.8,3.54-3.91-1.23-3.99-3.59-3.99-3.53,1.84-3.53,3.96Z"/>
    <path class="cls-15" d="m93.83,207.3c0-1.01,0-2.03-.02-3.04h2.39c.04.35.09,1.54.09,2.45.7-1.66,2.26-2.78,4.48-2.75v2.31c-2.56-.03-4.48,1.38-4.48,4.66v4.53h-2.45v-8.15Z"/>
    <path class="cls-15" d="m102.24,204.25h2.17v-3.53h2.46v3.53h2.84v1.88h-2.84v5.78c0,1.2.3,1.74,1.48,1.74.32,0,.75-.01,1.07-.09v1.76c-.53.18-1.17.22-1.86.22-2.42,0-3.15-1.07-3.15-3.27v-6.14h-2.17v-1.88Z"/>
    <path class="cls-15" d="m112.11,198.94h2.45v2.6h-2.45v-2.6Zm0,5.31h2.45v11.19h-2.45v-11.19Z"/>
    <path class="cls-15" d="m117.99,207.08c0-.94,0-2-.02-2.82h2.39c.04.37.08,1.23.09,1.92.49-1,1.62-2.23,3.97-2.23,2.66,0,4.34,1.64,4.34,4.67v6.83h-2.47v-6.41c0-1.7-.65-3.08-2.62-3.08-2.17,0-3.22,1.62-3.22,4.07v5.42h-2.46v-8.37Z"/>
    <path class="cls-15" d="m143.26,214.03c0,4.17-1.48,6.58-6.13,6.58s-5.42-2.58-5.63-3.88h2.5c.31,1.03,1.08,1.96,3.27,1.96,3.04,0,3.58-1.95,3.58-4.51v-.57c-.67,1.21-1.81,2.01-4.09,2.01-3.18,0-5.37-2.5-5.37-5.64,0-3.56,2.58-6.04,5.64-6.04,2.51,0,3.5,1.11,3.82,1.92,0-.51.03-1.31.07-1.61h2.38c-.02,1.09-.02,2.17-.02,3.26v6.52Zm-9.36-4.14c0,2.13,1.37,3.74,3.48,3.74s3.51-1.36,3.51-3.86-1.23-3.82-3.4-3.82c-2.42,0-3.59,1.91-3.59,3.94Z"/>
  </g>
</svg>