<?xml version="1.0" encoding="UTF-8"?>
<svg id="Layer_1" data-name="Layer 1" xmlns="http://www.w3.org/2000/svg" viewBox="0 0 888.08 924.31" height="400">
  <defs>
    <style>
      .cls-1 {
        fill: #fff;
      }

      .cls-2 {
        fill: #55e0e0;
      }

      .cls-3 {
        fill: #6d11a3;
      }

      .cls-4 {
        fill: #4262d3;
      }

      .cls-5 {
        fill: #9a5ae5;
      }

      .cls-6 {
        fill: none;
        stroke: #999;
        stroke-miterlimit: 10;
        stroke-width: 4px;
      }

      .cls-7 {
        fill: #3bb6bc;
      }

      .cls-8 {
        fill: #e7ad27;
      }

      .cls-9 {
        fill: #69a3e2;
      }

      .cls-10 {
        fill: #4f1e7a;
      }

      .cls-11 {
        fill: #dee0e0;
      }
    </style>
  </defs>
  <g>
    <path class="cls-8" d="m551.73,188.95c-.02.05-.05.1-.08.16h0c.03-.05.05-.1.08-.16Z"/>
    <path class="cls-11" d="m581.07,155.3l-.93,13.65c-.05.72-.21,1.4-.43,2.02-1.14,3.12-4.32,5.41-8.17,5.66l-24.28,1.65c-.15.57-.31,1.13-.49,1.69-.3,1.05-.63,2.09-.99,3.13-.39,1.13-.79,2.25-1.21,3.35-.11.34-.25.67-.39,1.01-.42,1.07-.86,2.1-1.31,3.14-.38.87-.75,1.73-1.19,2.6-.81,1.7-1.67,3.4-2.59,5.07-.3.53-.59,1.05-.88,1.55-1.89,3.24-3.95,6.36-6.2,9.34-.19.25-.38.49-.57.74l3.13,4.79,10.28,15.65c2.59,3.89,2.19,8.79-.9,11.49l-10.32,9c-1.16,1.01-2.59,1.61-4.07,1.8-.52.05-1.01.07-1.53.04-.29-.02-.57-.07-.86-.09-.43-.09-.85-.17-1.3-.32-.4-.11-.79-.26-1.18-.46-.5-.21-1-.5-1.5-.82-.36-.25-.74-.51-1.07-.82l-18.49-16.13c-10.13,5.73-21.43,9.63-33.38,11.2l-4.99,24.06c-.09.51-.24.99-.42,1.47-4.89-.05-9.81-.21-14.77-.55-4.96-.34-9.85-.85-14.71-1.47-.11-.5-.16-.99-.21-1.51l-1.66-24.51c-5.8-1.61-11.35-3.74-16.59-6.35-1.2-.6-2.37-1.2-3.5-1.82-.69-.39-1.36-.78-2.02-1.18-.97-.56-1.94-1.14-2.88-1.72-.88-.58-1.76-1.16-2.62-1.73-1.35-.93-2.64-1.85-3.93-2.83l-20.48,13.46c-3.92,2.58-8.79,2.19-11.52-.9l-9-10.32c-2.7-3.09-2.42-8,.67-11.51l12.32-14.11,3.75-4.32c-5.82-10.13-9.74-21.47-11.36-33.47l-23.8-4.94c-4.6-.95-7.77-4.68-7.49-8.78l.93-13.65c.28-4.1,3.93-7.37,8.62-7.68l24.14-1.63c.66-2.43,1.39-4.8,2.24-7.13,1-2.87,2.17-5.67,3.48-8.38.31-.7.64-1.37.97-2.04.8-1.56,1.65-3.08,2.53-4.61.07-.11.13-.25.2-.36h.03c.17-.3.36-.61.52-.91.29-.5.62-1.02.94-1.52,1.49-2.4,3.12-4.71,4.83-6.99l-13.23-20.12c-2.58-3.92-2.19-8.79.9-11.52l10.32-9c3.12-2.7,8-2.42,11.53.67l18.08,15.78c.27-.15.57-.34.87-.49,7.82-4.36,16.31-7.64,25.26-9.59.38-.09.76-.18,1.14-.24,2.16-.46,4.38-.82,6.62-1.13l4.86-23.43c.95-4.6,4.68-7.77,8.78-7.49l13.65.93c4.1.28,7.36,3.93,7.68,8.62l1.62,23.88c11.82,3.23,22.65,8.72,32.01,15.96l20.09-13.17c3.89-2.59,8.79-2.19,11.49.9l9,10.32c.88,1.01,1.43,2.2,1.69,3.49.51,2.66-.27,5.66-2.37,8.05l-15.85,18.13c.46.84.92,1.7,1.38,2.54.87,1.67,1.7,3.34,2.45,5.04.4.86.77,1.75,1.15,2.61,1.02,2.43,1.91,4.91,2.72,7.45.24.71.45,1.44.66,2.15,1.33,4.56,2.31,9.23,2.9,14l23.72,4.91c4.57.95,7.75,4.68,7.47,8.78Z"/>
    <g>
      <g>
        <path class="cls-10" d="m474.84,72.05l-22.7-1.55c-5.11-.35-8.65-5.83-7.47-11.54l6.77-32.71c.95-4.59,4.67-7.76,8.77-7.48l13.66.93c4.1.28,7.36,3.93,7.67,8.61l2.26,33.33c.39,5.82-3.86,10.77-8.97,10.42Z"/>
        <path class="cls-10" d="m442.5,211.51l22.7,1.55c5.11.35,8.65,5.83,7.47,11.54l-6.77,32.71c-.95,4.59-4.67,7.76-8.77,7.48l-13.66-.93c-4.1-.28-7.36-3.93-7.67-8.61l-2.26-33.33c-.39-5.82,3.86-10.77,8.97-10.42Z"/>
      </g>
      <g>
        <path class="cls-3" d="m470.32,71.74l-13.65-.93c-3.07-.21-5.06-5.58-4.19-11.32l4.97-32.84c.7-4.6,3.03-7.87,5.49-7.7l8.22.56c2.47.17,4.33,3.73,4.39,8.38l.46,33.21c.08,5.8-2.62,10.85-5.7,10.64Z"/>
        <path class="cls-3" d="m447.02,211.82l13.65.93c3.07.21,5.06,5.58,4.19,11.32l-4.97,32.84c-.7,4.6-3.03,7.87-5.49,7.7l-8.22-.56c-2.47-.17-4.33-3.73-4.39-8.38l-.46-33.21c-.08-5.8,2.62-10.85,5.7-10.64Z"/>
      </g>
      <g>
        <path class="cls-3" d="m528.4,157.95l1.55-22.7c.35-5.11,5.83-8.65,11.54-7.47l32.71,6.77c4.59.95,7.76,4.67,7.48,8.77l-.93,13.66c-.28,4.1-3.93,7.36-8.61,7.67l-33.33,2.26c-5.82.39-10.77-3.86-10.42-8.97Z"/>
        <path class="cls-10" d="m572.88,153.99l-33.33,2.26c-5.82.39-10.77-3.86-10.42-8.97l-.73,10.67c-.35,5.11,4.6,9.37,10.42,8.97l33.33-2.26c4.67-.32,8.32-3.57,8.61-7.67l.73-10.67c-.28,4.1-3.93,7.36-8.61,7.67Z"/>
        <path class="cls-3" d="m388.94,125.61l-1.55,22.7c-.35,5.11-5.83,8.65-11.54,7.47l-32.71-6.77c-4.59-.95-7.76-4.67-7.48-8.77l.93-13.66c.28-4.1,3.93-7.36,8.61-7.67l33.33-2.26c5.82-.39,10.77,3.86,10.42,8.97Z"/>
        <path class="cls-10" d="m343.87,138.33l32.71,6.77c5.71,1.18,11.19-2.36,11.54-7.47l-.73,10.67c-.35,5.11-5.83,8.65-11.54,7.47l-32.71-6.77c-4.59-.95-7.76-4.67-7.48-8.77l.73-10.67c-.28,4.1,2.89,7.82,7.48,8.77Z"/>
      </g>
      <g>
        <path class="cls-3" d="m519.41,103.91l-14.95-17.15c-3.37-3.86-2-10.24,2.88-13.44l27.92-18.34c3.91-2.57,8.79-2.18,11.49.91l9,10.32c2.7,3.1,2.42,7.98-.66,11.51l-21.97,25.16c-3.84,4.4-10.35,4.88-13.71,1.02Z"/>
        <path class="cls-10" d="m548.07,69.66l-21.97,25.16c-3.84,4.4-10.35,4.88-13.71,1.02l7.03,8.06c3.37,3.86,9.87,3.37,13.71-1.02l21.97-25.16c3.08-3.53,3.36-8.41.66-11.51l-7.03-8.06c2.7,3.1,2.42,7.98-.66,11.51Z"/>
        <path class="cls-3" d="m397.93,179.65l14.95,17.15c3.37,3.86,2,10.24-2.88,13.44l-27.92,18.34c-3.91,2.57-8.79,2.18-11.49-.91l-9-10.32c-2.7-3.1-2.42-7.98.66-11.51l21.97-25.16c3.84-4.4,10.35-4.88,13.71-1.02Z"/>
        <path class="cls-10" d="m375.05,220.52l27.92-18.34c4.88-3.2,6.24-9.59,2.88-13.44l7.03,8.06c3.37,3.86,2,10.24-2.88,13.44l-27.92,18.34c-3.91,2.57-8.79,2.18-11.49-.91l-7.03-8.06c2.7,3.1,7.58,3.49,11.49.91Z"/>
      </g>
      <g>
        <path class="cls-3" d="m496.54,202.52l17.15-14.95c3.86-3.37,10.24-2,13.44,2.88l18.34,27.92c2.57,3.91,2.18,8.79-.91,11.49l-10.32,9c-3.1,2.7-7.98,2.42-11.51-.66l-25.16-21.97c-4.4-3.84-4.88-10.35-1.02-13.71Z"/>
        <path class="cls-10" d="m530.79,231.17l-25.16-21.97c-4.4-3.84-4.88-10.35-1.02-13.71l-8.06,7.03c-3.86,3.37-3.37,9.87,1.02,13.71l25.16,21.97c3.53,3.08,8.41,3.36,11.51.66l8.06-7.03c-3.1,2.7-7.98,2.42-11.51-.66Z"/>
        <path class="cls-3" d="m420.8,81.04l-17.15,14.95c-3.86,3.37-10.24,2-13.44-2.88l-18.34-27.92c-2.57-3.91-2.18-8.79.91-11.49l10.32-9c3.1-2.7,7.98-2.42,11.51.66l25.16,21.97c4.4,3.84,4.88,10.35,1.02,13.71Z"/>
        <path class="cls-10" d="m379.93,58.16l18.34,27.92c3.2,4.88,9.59,6.24,13.44,2.88l-8.06,7.03c-3.86,3.37-10.24,2-13.44-2.88l-18.34-27.92c-2.57-3.91-2.18-8.79.91-11.49l8.06-7.03c-3.1,2.7-3.49,7.58-.91,11.49Z"/>
      </g>
      <path class="cls-3" d="m465.01,49.13c-51-3.49-95.18,35.03-98.67,86.03-3.49,51,35.03,95.18,86.03,98.67,51,3.49,95.18-35.03,98.67-86.03,3.49-51-35.03-95.18-86.03-98.67Zm-9.98,145.93c-29.59-2.02-51.94-27.66-49.92-57.25,2.02-29.59,27.66-51.94,57.25-49.92s51.94,27.66,49.92,57.25c-2.02,29.59-27.66,51.94-57.25,49.92Z"/>
      <path class="cls-10" d="m465.01,49.13c-51-3.49-95.18,35.03-98.67,86.03-3.49,51,35.03,95.18,86.03,98.67,51,3.49,95.18-35.03,98.67-86.03,3.49-51-35.03-95.18-86.03-98.67Zm-11.47,167.69c-41.61-2.85-73.03-38.88-70.18-80.49,2.85-41.61,38.88-73.03,80.49-70.19,41.61,2.85,73.03,38.88,70.19,80.49-2.85,41.61-38.88,73.03-80.49,70.19Z"/>
    </g>
    <g>
      <circle class="cls-10" cx="458.67" cy="141.78" r="64.13" transform="translate(110.11 471.91) rotate(-60.62)"/>
      <circle class="cls-1" cx="458.67" cy="141.78" r="51.1" transform="translate(119.47 481.52) rotate(-62.22)"/>
    </g>
    <g>
      <path class="cls-10" d="m419.91,141.48v10.46h-3.61v-23.38h5c3.56,0,5.66,1.43,5.66,5.63v.89c0,3.59-1.47,4.51-2.38,4.88,1.36.64,2.14,1.62,2.14,4.79,0,1.97-.04,5.77.21,7.18h-3.48c-.31-1.41-.24-5.25-.24-6.95,0-2.85-.37-3.5-2.46-3.5h-.84Zm0-2.98h.83c1.91,0,2.61-.72,2.61-3.26v-.8c0-1.81-.37-2.91-2.42-2.91h-1.02v6.97Z"/>
      <path class="cls-10" d="m432.55,143.83v2.66c0,1.4.32,2.68,1.69,2.68,1.44,0,1.61-1.29,1.61-2.59v-.09h3.51v.08c0,1.9-.41,5.63-5.04,5.63s-5.29-2.86-5.29-6.52v-5.94c0-2.48.78-6.22,5.27-6.22,3.87,0,5.13,2.61,5.13,6.19v4.11h-6.89Zm3.43-2.82v-1.85c0-1.68-.39-2.58-1.68-2.58-1.16,0-1.72.82-1.72,2.59v1.85h3.4Z"/>
      <path class="cls-10" d="m451.38,148.23c0,1.14,0,3.02.07,3.71h-3.29c-.07-.34-.2-1.07-.23-1.33-.62,1.11-1.6,1.61-2.99,1.61-2.72,0-3.82-2.52-3.82-5.26v-.32c0-4.46,3.01-5.65,6.27-5.65h.42v-2.31c0-1.42-.17-2.22-1.27-2.22s-1.32.83-1.32,1.96v.29h-3.54v-.23c0-2.62,1.01-4.94,4.99-4.94,3.5,0,4.72,1.93,4.72,4.86v9.83Zm-3.51-4.5h-.6c-1.64,0-2.73.62-2.73,2.88v.28c0,1.28.46,2.19,1.59,2.19,1.21,0,1.74-.83,1.74-3.28v-2.08Z"/>
      <path class="cls-10" d="m463.94,145.92v.25c0,3.27-.83,6.05-5.04,6.05s-4.94-2.8-4.94-6.54v-6.22c0-2.96.98-5.92,5.11-5.92,4.43,0,4.87,3.21,4.87,5.45v.68h-3.55v-.76c0-1.39-.22-2.33-1.39-2.33-1.07,0-1.43.83-1.43,2.36v7.85c0,1.25.23,2.39,1.42,2.39s1.4-.92,1.4-2.4v-.86h3.55Z"/>
      <path class="cls-10" d="m465.25,133.82h1.92v-4.35h3.6v4.35h2.27v3.16h-2.27v10.71c0,.86.12,1.54,1.21,1.54.32,0,.79-.04.98-.11v2.72c-.61.29-1.52.36-2.2.36-2.26,0-3.6-.73-3.6-3.87v-11.36h-1.92v-3.16Z"/>
      <path class="cls-10" d="m474.92,133.82h3.61v18.12h-3.61v-18.12Zm.03-6.28h3.61v3.85h-3.61v-3.85Z"/>
      <path class="cls-10" d="m484.06,133.82c.58,3.56,1.61,10.12,2.08,14.11h.04c.33-3.84,1.6-10.37,2.19-14.11h3.61l-3.89,18.12h-4.07l-3.82-18.12h3.86Z"/>
      <path class="cls-10" d="m496.63,143.83v2.66c0,1.4.32,2.68,1.69,2.68,1.44,0,1.61-1.29,1.61-2.59v-.09h3.51v.08c0,1.9-.41,5.63-5.04,5.63s-5.29-2.86-5.29-6.52v-5.94c0-2.48.78-6.22,5.27-6.22,3.87,0,5.13,2.61,5.13,6.19v4.11h-6.89Zm3.43-2.82v-1.85c0-1.68-.39-2.58-1.68-2.58-1.16,0-1.72.82-1.72,2.59v1.85h3.4Z"/>
    </g>
  </g>
  <path class="cls-6" d="m583.14,69.16c12.78,22.15,20.11,47.99,20.11,75.59,0,29.04-8.12,56.14-22.16,79.03"/>
  <line class="cls-6" x1="617.36" y1="142.59" x2="604.8" y2="142.47"/>
  <g>
    <path d="m642.47,121.11h9.84v1.74h-7.84v4.97h7.35v1.74h-7.35v6.86h-2v-15.31Z"/>
    <path d="m654.52,120.26h1.93v2.41h-1.93v-2.41Zm0,5h1.93v11.16h-1.93v-11.16Z"/>
    <path d="m660.64,125.26c1.57,2.48,2.24,3.54,2.64,4.17h.02c.47-.72,1.41-2.18,2.73-4.17h2.16l-3.77,5.36,3.81,5.79h-2.22c-1.36-2.18-2.3-3.68-2.75-4.41h-.02c-.37.62-1.28,2.11-2.73,4.41h-2.15l3.75-5.57-3.63-5.58h2.18Z"/>
    <path d="m676.41,125.26c1.39,5.23,2.18,8.22,2.37,9.37h.03c.2-1.04.99-3.82,2.57-9.37h1.89c1.74,6.32,2.27,8.15,2.45,9.16h.02c.28-1.19.72-2.87,2.46-9.16h1.95l-3.44,11.16h-2.08c-1.09-4.07-2.16-7.84-2.39-9.04h-.02c-.2,1.22-1.2,4.61-2.46,9.04h-2.15l-3.23-11.16h2.04Z"/>
    <path d="m694.1,120.26v6.64c.57-.98,1.59-1.91,3.48-1.91,1.79,0,3.76.98,3.76,4.3v7.12h-1.92v-6.8c0-1.9-.8-2.95-2.43-2.95-2.01,0-2.9,1.33-2.9,3.65v6.1h-1.93v-16.15h1.93Z"/>
    <path d="m705.78,131.19c.01,2.27,1.16,3.88,3.05,3.88,1.76,0,2.34-.91,2.69-1.73h1.94c-.44,1.43-1.64,3.34-4.69,3.34-3.51,0-4.94-2.85-4.94-5.72,0-3.32,1.67-5.96,5.06-5.96,3.6,0,4.78,2.89,4.78,5.27,0,.34,0,.62-.03.93h-7.86Zm5.94-1.36c-.02-1.84-.95-3.31-2.85-3.31s-2.83,1.37-3.02,3.31h5.87Z"/>
    <path d="m716.17,128.07c0-.97,0-1.95-.02-2.81h1.87c.05.33.08,1.5.08,1.83.45-.96,1.36-2.1,3.51-2.1s3.73,1.28,3.73,4.25v7.18h-1.93v-6.93c0-1.69-.66-2.82-2.36-2.82-2.1,0-2.95,1.6-2.95,3.84v5.91h-1.93v-8.35Z"/>
    <path d="m732.74,125.26h1.93v-3.29h1.93v3.29h2.46v1.57h-2.46v6.54c0,1.08.26,1.64,1.27,1.64.27,0,.67-.01.97-.09v1.45c-.48.18-1.14.21-1.67.21-1.74,0-2.5-.9-2.5-2.75v-6.99h-1.93v-1.57Z"/>
    <path d="m743.03,120.26v6.64c.57-.98,1.59-1.91,3.48-1.91,1.79,0,3.76.98,3.76,4.3v7.12h-1.92v-6.8c0-1.9-.8-2.95-2.43-2.95-2.01,0-2.9,1.33-2.9,3.65v6.1h-1.93v-16.15h1.93Z"/>
    <path d="m754.71,131.19c.01,2.27,1.16,3.88,3.05,3.88,1.76,0,2.34-.91,2.69-1.73h1.94c-.44,1.43-1.64,3.34-4.69,3.34-3.51,0-4.94-2.85-4.94-5.72,0-3.32,1.67-5.96,5.06-5.96,3.6,0,4.78,2.89,4.78,5.27,0,.34,0,.62-.03.93h-7.86Zm5.94-1.36c-.02-1.84-.95-3.31-2.85-3.31s-2.83,1.37-3.02,3.31h5.87Z"/>
    <path d="m643.26,155.19c.01,2.27,1.16,3.88,3.05,3.88,1.76,0,2.34-.91,2.69-1.73h1.94c-.44,1.43-1.64,3.34-4.69,3.34-3.51,0-4.94-2.85-4.94-5.72,0-3.32,1.67-5.96,5.06-5.96,3.6,0,4.78,2.89,4.78,5.27,0,.34,0,.62-.03.93h-7.86Zm5.94-1.36c-.02-1.84-.95-3.31-2.85-3.31s-2.83,1.37-3.02,3.31h5.87Z"/>
    <path d="m661.11,158.81c-.57,1.17-1.6,1.87-3.53,1.87-2.53,0-4.63-2.01-4.63-5.72s2.23-5.97,4.91-5.97c2.07,0,2.99.95,3.25,1.68,0-.41.04-.96.07-1.42h1.83c-.01,1.16-.02,2.06-.02,3.08v12.46h-1.87v-5.99Zm-6.16-3.93c0,2.25.98,4.17,3.1,4.17,2.41,0,3.11-1.66,3.11-4.26s-.62-4.14-3.04-4.14c-2.08,0-3.17,1.76-3.17,4.24Z"/>
    <path d="m675.24,157.17c0,1.09.01,2.59.02,3.25h-1.87c-.04-.29-.07-.97-.07-1.67-.55,1.24-1.62,1.94-3.38,1.94-1.88,0-3.69-.94-3.69-4.08v-7.34h1.91v6.93c0,1.47.46,2.82,2.31,2.82,2.05,0,2.84-1.14,2.84-3.92v-5.82h1.93v7.91Z"/>
    <path d="m678.54,144.26h1.93v2.41h-1.93v-2.41Zm0,5h1.93v11.16h-1.93v-11.16Z"/>
    <path d="m685.67,159.04v5.76h-1.92v-12.82c0-.91,0-1.85-.02-2.72h1.87c.04.37.07,1.05.07,1.75.6-1.12,1.74-2.02,3.65-2.02,2.58,0,4.46,2.16,4.46,5.56,0,3.98-2.15,6.13-4.85,6.13-1.8,0-2.75-.76-3.25-1.64Zm6.12-4.41c0-2.37-1.08-3.98-2.98-3.98-2.31,0-3.22,1.46-3.22,4.17s.75,4.24,3.08,4.24c2.04,0,3.13-1.68,3.13-4.43Z"/>
    <path d="m696.29,152.14c0-.96,0-1.97-.02-2.88h1.86c.03.33.08,1.16.08,1.72.51-1,1.48-1.98,3.25-1.98,1.58,0,2.67.8,3.09,2,.6-1.06,1.65-2,3.56-2s3.52,1.07,3.52,4.09v7.33h-1.89v-7.1c0-1.29-.47-2.66-2.21-2.66s-2.6,1.37-2.6,3.35v6.41h-1.89v-7.04c0-1.43-.41-2.71-2.16-2.71s-2.65,1.45-2.65,3.58v6.18h-1.91v-8.28Z"/>
    <path d="m716.06,155.19c.01,2.27,1.16,3.88,3.05,3.88,1.76,0,2.34-.91,2.69-1.73h1.94c-.44,1.43-1.64,3.34-4.69,3.34-3.51,0-4.94-2.85-4.94-5.72,0-3.32,1.67-5.96,5.06-5.96,3.6,0,4.78,2.89,4.78,5.27,0,.34,0,.62-.03.93h-7.86Zm5.94-1.36c-.02-1.84-.95-3.31-2.85-3.31s-2.83,1.37-3.02,3.31h5.87Z"/>
    <path d="m726.44,152.07c0-.97,0-1.95-.02-2.81h1.87c.05.33.08,1.5.08,1.83.45-.96,1.36-2.1,3.51-2.1s3.73,1.28,3.73,4.25v7.18h-1.93v-6.93c0-1.69-.66-2.82-2.36-2.82-2.1,0-2.95,1.6-2.95,3.84v5.91h-1.93v-8.35Z"/>
    <path d="m737.32,149.26h1.93v-3.29h1.93v3.29h2.46v1.57h-2.46v6.54c0,1.08.26,1.64,1.27,1.64.27,0,.67-.01.97-.09v1.45c-.48.18-1.14.21-1.67.21-1.74,0-2.5-.9-2.5-2.75v-6.99h-1.93v-1.57Z"/>
    <path d="m751.34,144.26h1.93v2.41h-1.93v-2.41Zm0,5h1.93v11.16h-1.93v-11.16Z"/>
    <path d="m757.37,157.23c.32,1.22,1.22,1.94,2.74,1.94,1.64,0,2.28-.71,2.28-1.72s-.51-1.53-2.64-2.04c-3.19-.78-3.85-1.75-3.85-3.26s1.16-3.14,4.03-3.14,4.06,1.67,4.2,3.22h-1.86c-.16-.72-.71-1.72-2.42-1.72-1.56,0-2.03.75-2.03,1.48,0,.83.46,1.25,2.5,1.73,3.38.8,4.06,1.93,4.06,3.59,0,1.96-1.55,3.38-4.33,3.38s-4.31-1.46-4.59-3.46h1.92Z"/>
    <path d="m781.69,144.26v13c0,1.05,0,2.08.02,3.15h-1.85c-.05-.29-.09-1.15-.1-1.58-.55,1.16-1.68,1.85-3.51,1.85-2.87,0-4.63-2.32-4.63-5.73s1.9-5.96,4.99-5.96c1.97,0,2.85.8,3.15,1.42v-6.16h1.93Zm-8.07,10.63c0,2.69,1.28,4.15,3.03,4.15,2.61,0,3.18-1.92,3.18-4.37s-.52-4.05-3.03-4.05c-1.97,0-3.19,1.56-3.19,4.27Z"/>
    <path d="m794.56,154.82c0,3.21-1.84,5.86-5.25,5.86-3.2,0-5.13-2.47-5.13-5.83s1.89-5.86,5.26-5.86c3.1,0,5.13,2.32,5.13,5.82Zm-8.4.02c0,2.45,1.22,4.23,3.23,4.23s3.19-1.69,3.19-4.22-1.14-4.24-3.23-4.24-3.18,1.68-3.18,4.23Z"/>
    <path d="m797.9,149.26c1.39,5.23,2.18,8.22,2.37,9.37h.03c.2-1.04.99-3.82,2.57-9.37h1.89c1.74,6.32,2.27,8.15,2.45,9.16h.02c.28-1.19.72-2.87,2.46-9.16h1.95l-3.44,11.16h-2.08c-1.09-4.07-2.16-7.84-2.39-9.04h-.02c-.2,1.22-1.2,4.61-2.46,9.04h-2.15l-3.23-11.16h2.04Z"/>
    <path d="m813.43,152.07c0-.97,0-1.95-.02-2.81h1.87c.05.33.08,1.5.08,1.83.45-.96,1.36-2.1,3.51-2.1s3.73,1.28,3.73,4.25v7.18h-1.93v-6.93c0-1.69-.66-2.82-2.36-2.82-2.1,0-2.95,1.6-2.95,3.84v5.91h-1.93v-8.35Z"/>
  </g>
  <g>
    <path class="cls-8" d="m493.71,405c-.02.05-.05.1-.08.16h0c.03-.05.05-.1.08-.16Z"/>
    <path class="cls-11" d="m523.05,371.34l-.93,13.65c-.05.72-.21,1.4-.43,2.02-1.14,3.12-4.32,5.41-8.17,5.66l-24.28,1.65c-.15.57-.31,1.13-.49,1.69-.3,1.05-.63,2.09-.99,3.13-.39,1.13-.79,2.25-1.21,3.35-.11.34-.25.67-.39,1.01-.42,1.07-.86,2.1-1.31,3.14-.38.87-.75,1.73-1.19,2.6-.81,1.7-1.67,3.4-2.59,5.07-.3.53-.59,1.05-.88,1.55-1.89,3.24-3.95,6.36-6.2,9.34-.19.25-.38.49-.57.74l3.13,4.79,10.28,15.65c2.59,3.89,2.19,8.79-.9,11.49l-10.32,9c-1.16,1.01-2.59,1.61-4.07,1.8-.52.05-1.01.07-1.53.04-.29-.02-.57-.07-.86-.09-.43-.09-.85-.17-1.3-.32-.4-.11-.79-.26-1.18-.46-.5-.21-1-.5-1.5-.82-.36-.25-.74-.51-1.07-.82l-18.49-16.13c-10.13,5.73-21.43,9.63-33.38,11.2l-4.99,24.06c-.09.51-.24.99-.42,1.47-4.89-.05-9.81-.21-14.77-.55-4.96-.34-9.85-.85-14.71-1.47-.11-.5-.16-.99-.21-1.51l-1.66-24.51c-5.8-1.61-11.35-3.74-16.59-6.35-1.2-.6-2.37-1.2-3.5-1.82-.69-.39-1.36-.78-2.02-1.18-.97-.56-1.94-1.14-2.88-1.72-.88-.58-1.76-1.16-2.62-1.73-1.35-.93-2.64-1.85-3.93-2.83l-20.48,13.46c-3.92,2.58-8.79,2.19-11.52-.9l-9-10.32c-2.7-3.09-2.42-8,.67-11.51l12.32-14.11,3.75-4.32c-5.82-10.13-9.74-21.47-11.36-33.47l-23.8-4.94c-4.6-.95-7.77-4.68-7.49-8.78l.93-13.65c.28-4.1,3.93-7.37,8.62-7.68l24.14-1.63c.66-2.43,1.39-4.8,2.24-7.13,1-2.87,2.17-5.67,3.48-8.38.31-.7.64-1.37.97-2.04.8-1.56,1.65-3.08,2.53-4.61.07-.11.13-.25.2-.36h.03c.17-.3.36-.61.52-.91.29-.5.62-1.02.94-1.52,1.49-2.4,3.12-4.71,4.83-6.99l-13.23-20.12c-2.58-3.92-2.19-8.79.9-11.52l10.32-9c3.12-2.7,8-2.42,11.53.67l18.08,15.78c.27-.15.57-.34.87-.49,7.82-4.36,16.31-7.64,25.26-9.59.38-.09.76-.18,1.14-.24,2.16-.46,4.38-.82,6.62-1.13l4.86-23.43c.95-4.6,4.68-7.77,8.78-7.49l13.65.93c4.1.28,7.36,3.93,7.68,8.62l1.62,23.88c11.82,3.23,22.65,8.72,32.01,15.96l20.09-13.17c3.89-2.59,8.79-2.19,11.49.9l9,10.32c.88,1.01,1.43,2.2,1.69,3.49.51,2.66-.27,5.66-2.37,8.05l-15.85,18.13c.46.84.92,1.7,1.38,2.54.87,1.67,1.7,3.34,2.45,5.04.4.86.77,1.75,1.15,2.61,1.02,2.43,1.91,4.91,2.72,7.45.24.71.45,1.44.66,2.15,1.33,4.56,2.31,9.23,2.9,14l23.72,4.91c4.57.95,7.75,4.68,7.47,8.78Z"/>
    <g>
      <g>
        <path class="cls-7" d="m416.82,288.1l-22.7-1.55c-5.11-.35-8.65-5.83-7.47-11.54l6.77-32.71c.95-4.59,4.67-7.76,8.77-7.48l13.66.93c4.1.28,7.36,3.93,7.67,8.61l2.26,33.33c.39,5.82-3.86,10.77-8.97,10.42Z"/>
        <path class="cls-7" d="m384.48,427.56l22.7,1.55c5.11.35,8.65,5.83,7.47,11.54l-6.77,32.71c-.95,4.59-4.67,7.76-8.77,7.48l-13.66-.93c-4.1-.28-7.36-3.93-7.67-8.61l-2.26-33.33c-.39-5.82,3.86-10.77,8.97-10.42Z"/>
      </g>
      <g>
        <path class="cls-2" d="m412.3,287.79l-13.65-.93c-3.07-.21-5.06-5.58-4.19-11.32l4.97-32.84c.7-4.6,3.03-7.87,5.49-7.7l8.22.56c2.47.17,4.33,3.73,4.39,8.38l.46,33.21c.08,5.8-2.62,10.85-5.7,10.64Z"/>
        <path class="cls-2" d="m389,427.87l13.65.93c3.07.21,5.06,5.58,4.19,11.32l-4.97,32.84c-.7,4.6-3.03,7.87-5.49,7.7l-8.22-.56c-2.47-.17-4.33-3.73-4.39-8.38l-.46-33.21c-.08-5.8,2.62-10.85,5.7-10.64Z"/>
      </g>
      <g>
        <path class="cls-2" d="m470.38,374l1.55-22.7c.35-5.11,5.83-8.65,11.54-7.47l32.71,6.77c4.59.95,7.76,4.67,7.48,8.77l-.93,13.66c-.28,4.1-3.93,7.36-8.61,7.67l-33.33,2.26c-5.82.39-10.77-3.86-10.42-8.97Z"/>
        <path class="cls-7" d="m514.86,370.04l-33.33,2.26c-5.82.39-10.77-3.86-10.42-8.97l-.73,10.67c-.35,5.11,4.6,9.37,10.42,8.97l33.33-2.26c4.67-.32,8.32-3.57,8.61-7.67l.73-10.67c-.28,4.1-3.93,7.36-8.61,7.67Z"/>
        <path class="cls-2" d="m330.92,341.66l-1.55,22.7c-.35,5.11-5.83,8.65-11.54,7.47l-32.71-6.77c-4.59-.95-7.76-4.67-7.48-8.77l.93-13.66c.28-4.1,3.93-7.36,8.61-7.67l33.33-2.26c5.82-.39,10.77,3.86,10.42,8.97Z"/>
        <path class="cls-7" d="m285.84,354.37l32.71,6.77c5.71,1.18,11.19-2.36,11.54-7.47l-.73,10.67c-.35,5.11-5.83,8.65-11.54,7.47l-32.71-6.77c-4.59-.95-7.76-4.67-7.48-8.77l.73-10.67c-.28,4.1,2.89,7.82,7.48,8.77Z"/>
      </g>
      <g>
        <path class="cls-2" d="m461.39,319.96l-14.95-17.15c-3.37-3.86-2-10.24,2.88-13.44l27.92-18.34c3.91-2.57,8.79-2.18,11.49.91l9,10.32c2.7,3.1,2.42,7.98-.66,11.51l-21.97,25.16c-3.84,4.4-10.35,4.88-13.71,1.02Z"/>
        <path class="cls-7" d="m490.05,285.71l-21.97,25.16c-3.84,4.4-10.35,4.88-13.71,1.02l7.03,8.06c3.37,3.86,9.87,3.37,13.71-1.02l21.97-25.16c3.08-3.53,3.36-8.41.66-11.51l-7.03-8.06c2.7,3.1,2.42,7.98-.66,11.51Z"/>
        <path class="cls-2" d="m339.91,395.7l14.95,17.15c3.37,3.86,2,10.24-2.88,13.44l-27.92,18.34c-3.91,2.57-8.79,2.18-11.49-.91l-9-10.32c-2.7-3.1-2.42-7.98.66-11.51l21.97-25.16c3.84-4.4,10.35-4.88,13.71-1.02Z"/>
        <path class="cls-7" d="m317.03,436.57l27.92-18.34c4.88-3.2,6.24-9.59,2.88-13.44l7.03,8.06c3.37,3.86,2,10.24-2.88,13.44l-27.92,18.34c-3.91,2.57-8.79,2.18-11.49-.91l-7.03-8.06c2.7,3.1,7.58,3.49,11.49.91Z"/>
      </g>
      <g>
        <path class="cls-2" d="m438.52,418.57l17.15-14.95c3.86-3.37,10.24-2,13.44,2.88l18.34,27.92c2.57,3.91,2.18,8.79-.91,11.49l-10.32,9c-3.1,2.7-7.98,2.42-11.51-.66l-25.16-21.97c-4.4-3.84-4.88-10.35-1.02-13.71Z"/>
        <path class="cls-7" d="m472.77,447.22l-25.16-21.97c-4.4-3.84-4.88-10.35-1.02-13.71l-8.06,7.03c-3.86,3.37-3.37,9.87,1.02,13.71l25.16,21.97c3.53,3.08,8.41,3.36,11.51.66l8.06-7.03c-3.1,2.7-7.98,2.42-11.51-.66Z"/>
        <path class="cls-2" d="m362.78,297.09l-17.15,14.95c-3.86,3.37-10.24,2-13.44-2.88l-18.34-27.92c-2.57-3.91-2.18-8.79.91-11.49l10.32-9c3.1-2.7,7.98-2.42,11.51.66l25.16,21.97c4.4,3.84,4.88,10.35,1.02,13.71Z"/>
        <path class="cls-7" d="m321.91,274.21l18.34,27.92c3.2,4.88,9.59,6.24,13.44,2.88l-8.06,7.03c-3.86,3.37-10.24,2-13.44-2.88l-18.34-27.92c-2.57-3.91-2.18-8.79.91-11.49l8.06-7.03c-3.1,2.7-3.49,7.58-.91,11.49Z"/>
      </g>
      <path class="cls-2" d="m406.99,265.18c-51-3.49-95.18,35.03-98.67,86.03-3.49,51,35.03,95.18,86.03,98.67,51,3.49,95.18-35.03,98.67-86.03,3.49-51-35.03-95.18-86.03-98.67Zm-9.98,145.93c-29.59-2.02-51.94-27.66-49.92-57.25,2.02-29.59,27.66-51.94,57.25-49.92s51.94,27.66,49.92,57.25c-2.02,29.59-27.66,51.94-57.25,49.92Z"/>
      <path class="cls-7" d="m406.99,265.18c-51-3.49-95.18,35.03-98.67,86.03-3.49,51,35.03,95.18,86.03,98.67,51,3.49,95.18-35.03,98.67-86.03,3.49-51-35.03-95.18-86.03-98.67Zm-11.47,167.69c-41.61-2.85-73.03-38.88-70.18-80.49,2.85-41.61,38.88-73.03,80.49-70.19,41.61,2.85,73.03,38.88,70.19,80.49-2.85,41.61-38.88,73.03-80.49,70.19Z"/>
    </g>
    <g>
      <circle class="cls-7" cx="400.65" cy="357.83" r="64.13" transform="translate(-107.71 531.41) rotate(-60.62)"/>
      <circle class="cls-1" cx="400.65" cy="357.83" r="51.1" transform="translate(-102.66 545.55) rotate(-62.22)"/>
    </g>
    <g>
      <path class="cls-7" d="m359,344.6h5.2c3.71,0,5.61,1.83,5.61,5.97v1.38c0,3.86-1.38,6.42-5.81,6.42h-1.39v9.61h-3.61v-23.38Zm3.61,10.82h.99c2.25,0,2.63-1.31,2.63-3.59v-1.15c0-1.7-.31-3.1-2.31-3.1h-1.31v7.85Z"/>
      <path class="cls-7" d="m374.83,359.88v2.66c0,1.4.32,2.68,1.69,2.68,1.44,0,1.61-1.29,1.61-2.59v-.09h3.51v.08c0,1.9-.41,5.63-5.04,5.63s-5.29-2.86-5.29-6.52v-5.94c0-2.48.78-6.22,5.27-6.22,3.87,0,5.13,2.61,5.13,6.19v4.11h-6.89Zm3.43-2.82v-1.85c0-1.68-.39-2.58-1.68-2.58-1.16,0-1.72.82-1.72,2.59v1.85h3.4Z"/>
      <path class="cls-7" d="m384.13,356c0-3.01.03-4.29-.04-6.14h3.42c.04.35.1,1.96.1,2.93.72-2.45,2.31-3.2,3.99-3.21v4.45c-2.07,0-3.87.53-3.87,4.24v9.7h-3.61v-11.98Z"/>
      <path class="cls-7" d="m393.3,349.86h3.61v18.12h-3.61v-18.12Zm.03-6.28h3.61v3.85h-3.61v-3.85Z"/>
      <path class="cls-7" d="m410.07,355.43v6.96c0,3.88-1.93,5.87-5.35,5.87s-5.27-2.04-5.27-5.85v-7.13c0-3.92,2.23-5.69,5.38-5.69s5.24,2.01,5.24,5.84Zm-7.01-.21v7.32c0,1.46.44,2.53,1.73,2.53,1.21,0,1.67-.89,1.67-2.59v-7.29c0-1.4-.37-2.41-1.7-2.41-1.18,0-1.7.84-1.7,2.44Z"/>
      <path class="cls-7" d="m422.84,343.58v19.38c0,2.76,0,4.04.04,5.02h-3.44c-.07-.46-.13-1.44-.13-1.72-.57,1.17-1.43,2-3.2,2-3.25,0-3.88-2.6-3.88-6.11v-7.09c0-3.15,1.2-5.48,4.16-5.48,1.21,0,2.36.36,2.85,1.28v-7.28h3.61Zm-7.01,11.7v7.16c0,1.67.4,2.58,1.64,2.58,1.47,0,1.76-1.32,1.76-3.39v-5.57c0-1.96-.18-3.25-1.72-3.25-1.25,0-1.68.95-1.68,2.47Z"/>
      <path class="cls-7" d="m425.85,349.86h3.61v18.12h-3.61v-18.12Zm.03-6.28h3.61v3.85h-3.61v-3.85Z"/>
      <path class="cls-7" d="m441.98,361.97v.25c0,3.27-.83,6.05-5.04,6.05s-4.94-2.8-4.94-6.54v-6.22c0-2.96.98-5.92,5.11-5.92,4.43,0,4.87,3.21,4.87,5.45v.68h-3.55v-.76c0-1.39-.22-2.33-1.39-2.33-1.07,0-1.43.83-1.43,2.36v7.85c0,1.25.23,2.39,1.42,2.39s1.4-.92,1.4-2.4v-.86h3.55Z"/>
    </g>
  </g>
  <g>
    <path class="cls-6" d="m275.56,280.22c-12.78,22.15-20.11,47.99-20.11,75.59,0,29.04,8.12,56.14,22.16,79.03"/>
    <line class="cls-6" x1="241.34" y1="353.65" x2="253.9" y2="353.53"/>
  </g>
  <g>
    <path d="m118.37,343.22c.42,1.84,1.67,2.83,3.89,2.83,2.39,0,3.33-1.12,3.33-2.57,0-1.54-.75-2.4-3.82-3.14-3.61-.88-4.86-2.11-4.86-4.26,0-2.27,1.68-4.13,5.09-4.13,3.65,0,5.15,2.11,5.35,4.12h-2.07c-.27-1.36-1.13-2.48-3.36-2.48-1.86,0-2.91.84-2.91,2.3s.86,2,3.55,2.65c4.37,1.06,5.14,2.76,5.14,4.73,0,2.47-1.83,4.4-5.57,4.4s-5.51-2.1-5.83-4.45h2.07Z"/>
    <path d="m139.27,344.07c-.47,1.92-1.77,3.68-4.61,3.68-3.07,0-4.97-2.21-4.97-5.78,0-3.15,1.79-5.9,5.11-5.9s4.33,2.29,4.47,3.73h-1.91c-.28-1.14-.99-2.12-2.6-2.12-1.97,0-3.09,1.69-3.09,4.22s1.08,4.25,3.02,4.25c1.4,0,2.21-.74,2.66-2.08h1.92Z"/>
    <path d="m143.5,331.33v6.64c.57-.98,1.59-1.91,3.48-1.91,1.79,0,3.76.98,3.76,4.3v7.12h-1.92v-6.8c0-1.9-.8-2.95-2.43-2.95-2.01,0-2.9,1.33-2.9,3.65v6.1h-1.93v-16.15h1.93Z"/>
    <path d="m155.18,342.25c.01,2.27,1.16,3.88,3.05,3.88,1.76,0,2.34-.91,2.69-1.73h1.94c-.44,1.43-1.64,3.34-4.69,3.34-3.51,0-4.94-2.85-4.94-5.72,0-3.32,1.67-5.96,5.06-5.96,3.6,0,4.78,2.89,4.78,5.27,0,.34,0,.62-.03.93h-7.86Zm5.94-1.36c-.02-1.84-.95-3.31-2.85-3.31s-2.83,1.37-3.02,3.31h5.87Z"/>
    <path d="m174.94,331.33v13c0,1.05,0,2.08.02,3.15h-1.85c-.05-.29-.09-1.15-.1-1.58-.55,1.16-1.68,1.85-3.51,1.85-2.87,0-4.63-2.32-4.63-5.73s1.9-5.96,4.99-5.96c1.97,0,2.85.8,3.15,1.42v-6.16h1.93Zm-8.07,10.63c0,2.69,1.28,4.15,3.03,4.15,2.61,0,3.18-1.92,3.18-4.37s-.52-4.05-3.03-4.05c-1.97,0-3.19,1.56-3.19,4.27Z"/>
    <path d="m187.18,344.23c0,1.09.01,2.59.02,3.25h-1.87c-.04-.29-.07-.97-.07-1.67-.55,1.24-1.62,1.94-3.38,1.94-1.88,0-3.69-.94-3.69-4.08v-7.34h1.91v6.93c0,1.47.46,2.82,2.31,2.82,2.05,0,2.84-1.14,2.84-3.92v-5.82h1.93v7.91Z"/>
    <path d="m190.48,347.48v-16.15h1.93v16.15h-1.93Z"/>
    <path d="m196.85,342.25c.01,2.27,1.16,3.88,3.05,3.88,1.76,0,2.34-.91,2.69-1.73h1.94c-.44,1.43-1.64,3.34-4.69,3.34-3.51,0-4.94-2.85-4.94-5.72,0-3.32,1.67-5.96,5.06-5.96,3.6,0,4.78,2.89,4.78,5.27,0,.34,0,.62-.03.93h-7.86Zm5.94-1.36c-.02-1.84-.95-3.31-2.85-3.31s-2.83,1.37-3.02,3.31h5.87Z"/>
    <path d="m216.61,331.33v13c0,1.05,0,2.08.02,3.15h-1.85c-.05-.29-.09-1.15-.1-1.58-.55,1.16-1.68,1.85-3.51,1.85-2.87,0-4.63-2.32-4.63-5.73s1.9-5.96,4.99-5.96c1.97,0,2.85.8,3.15,1.42v-6.16h1.93Zm-8.07,10.63c0,2.69,1.28,4.15,3.03,4.15,2.61,0,3.18-1.92,3.18-4.37s-.52-4.05-3.03-4.05c-1.97,0-3.19,1.56-3.19,4.27Z"/>
    <path d="m94.78,363.2c0-.96,0-1.97-.02-2.88h1.86c.03.33.08,1.16.08,1.72.51-1,1.48-1.98,3.25-1.98,1.58,0,2.67.8,3.09,2,.6-1.06,1.65-2,3.56-2s3.52,1.07,3.52,4.09v7.33h-1.89v-7.1c0-1.29-.47-2.66-2.21-2.66s-2.6,1.37-2.6,3.35v6.41h-1.89v-7.04c0-1.43-.41-2.71-2.16-2.71s-2.65,1.45-2.65,3.58v6.18h-1.91v-8.28Z"/>
    <path d="m121.57,369.05c0,1.02.09,2.11.15,2.43h-1.84c-.09-.25-.15-.78-.18-1.46-.39.74-1.28,1.72-3.45,1.72-2.63,0-3.75-1.71-3.75-3.41,0-2.49,1.96-3.63,5.27-3.63h1.9v-.95c0-.98-.31-2.18-2.4-2.18-1.86,0-2.18.92-2.38,1.79h-1.86c.15-1.54,1.1-3.31,4.31-3.31,2.73,0,4.24,1.12,4.24,3.66v5.33Zm-1.88-3.01h-1.81c-2.22,0-3.42.62-3.42,2.19,0,1.16.8,2,2.17,2,2.69,0,3.05-1.81,3.05-3.83v-.36Z"/>
    <path d="m124.9,355.33h1.93v2.41h-1.93v-2.41Zm0,5h1.93v11.16h-1.93v-11.16Z"/>
    <path d="m130.12,363.13c0-.97,0-1.95-.02-2.81h1.87c.05.33.08,1.5.08,1.83.45-.96,1.36-2.1,3.51-2.1s3.73,1.28,3.73,4.25v7.18h-1.93v-6.93c0-1.69-.66-2.82-2.36-2.82-2.1,0-2.95,1.6-2.95,3.84v5.91h-1.93v-8.35Z"/>
    <path d="m141,360.32h1.93v-3.29h1.93v3.29h2.46v1.57h-2.46v6.54c0,1.08.26,1.64,1.27,1.64.27,0,.67-.01.97-.09v1.45c-.48.18-1.14.21-1.67.21-1.74,0-2.5-.9-2.5-2.75v-6.99h-1.93v-1.57Z"/>
    <path d="m150.45,366.25c.01,2.27,1.16,3.88,3.05,3.88,1.76,0,2.34-.91,2.69-1.73h1.94c-.44,1.43-1.64,3.34-4.69,3.34-3.51,0-4.94-2.85-4.94-5.72,0-3.32,1.67-5.96,5.06-5.96,3.6,0,4.78,2.89,4.78,5.27,0,.34,0,.62-.03.93h-7.86Zm5.94-1.36c-.02-1.84-.95-3.31-2.85-3.31s-2.83,1.37-3.02,3.31h5.87Z"/>
    <path d="m160.83,363.13c0-.97,0-1.95-.02-2.81h1.87c.05.33.08,1.5.08,1.83.45-.96,1.36-2.1,3.51-2.1s3.73,1.28,3.73,4.25v7.18h-1.93v-6.93c0-1.69-.66-2.82-2.36-2.82-2.1,0-2.95,1.6-2.95,3.84v5.91h-1.93v-8.35Z"/>
    <path d="m181.46,369.05c0,1.02.09,2.11.15,2.43h-1.84c-.09-.25-.15-.78-.18-1.46-.39.74-1.28,1.72-3.45,1.72-2.63,0-3.75-1.71-3.75-3.41,0-2.49,1.96-3.63,5.27-3.63h1.9v-.95c0-.98-.31-2.18-2.4-2.18-1.86,0-2.18.92-2.38,1.79h-1.86c.15-1.54,1.1-3.31,4.31-3.31,2.73,0,4.24,1.12,4.24,3.66v5.33Zm-1.88-3.01h-1.81c-2.22,0-3.42.62-3.42,2.19,0,1.16.8,2,2.17,2,2.69,0,3.05-1.81,3.05-3.83v-.36Z"/>
    <path d="m184.79,363.13c0-.97,0-1.95-.02-2.81h1.87c.05.33.08,1.5.08,1.83.45-.96,1.36-2.1,3.51-2.1s3.73,1.28,3.73,4.25v7.18h-1.93v-6.93c0-1.69-.66-2.82-2.36-2.82-2.1,0-2.95,1.6-2.95,3.84v5.91h-1.93v-8.35Z"/>
    <path d="m206.04,368.07c-.47,1.92-1.77,3.68-4.61,3.68-3.07,0-4.97-2.21-4.97-5.78,0-3.15,1.79-5.9,5.11-5.9s4.33,2.29,4.47,3.73h-1.91c-.28-1.14-.99-2.12-2.6-2.12-1.97,0-3.09,1.69-3.09,4.22s1.08,4.25,3.02,4.25c1.4,0,2.21-.74,2.66-2.08h1.92Z"/>
    <path d="m209.63,366.25c.01,2.27,1.16,3.88,3.05,3.88,1.76,0,2.34-.91,2.69-1.73h1.94c-.44,1.43-1.64,3.34-4.69,3.34-3.51,0-4.94-2.85-4.94-5.72,0-3.32,1.67-5.96,5.06-5.96,3.6,0,4.78,2.89,4.78,5.27,0,.34,0,.62-.03.93h-7.86Zm5.94-1.36c-.02-1.84-.95-3.31-2.85-3.31s-2.83,1.37-3.02,3.31h5.87Z"/>
  </g>
  <g>
    <path class="cls-8" d="m598.14,603.25c-.02.05-.05.1-.08.16h0c.03-.05.05-.1.08-.16Z"/>
    <path class="cls-11" d="m627.48,569.6l-.93,13.65c-.05.72-.21,1.4-.43,2.02-1.14,3.12-4.32,5.41-8.17,5.66l-24.28,1.65c-.15.57-.31,1.13-.49,1.69-.3,1.05-.63,2.09-.99,3.13-.39,1.13-.79,2.25-1.21,3.35-.11.34-.25.67-.39,1.01-.42,1.07-.86,2.1-1.31,3.14-.38.87-.75,1.73-1.19,2.6-.81,1.7-1.67,3.4-2.59,5.07-.3.53-.59,1.05-.88,1.55-1.89,3.24-3.95,6.36-6.2,9.34-.19.25-.38.49-.57.74l3.13,4.79,10.28,15.65c2.59,3.89,2.19,8.79-.9,11.49l-10.32,9c-1.16,1.01-2.59,1.61-4.07,1.8-.52.05-1.01.07-1.53.04-.29-.02-.57-.07-.86-.09-.43-.09-.85-.17-1.3-.32-.4-.11-.79-.26-1.18-.46-.5-.21-1-.5-1.5-.82-.36-.25-.74-.51-1.07-.82l-18.49-16.13c-10.13,5.73-21.43,9.63-33.38,11.2l-4.99,24.06c-.09.51-.24.99-.42,1.47-4.89-.05-9.81-.21-14.77-.55-4.96-.34-9.85-.85-14.71-1.47-.11-.5-.16-.99-.21-1.51l-1.66-24.51c-5.8-1.61-11.35-3.74-16.59-6.35-1.2-.6-2.37-1.2-3.5-1.82-.69-.39-1.36-.78-2.02-1.18-.97-.56-1.94-1.14-2.88-1.72-.88-.58-1.76-1.16-2.62-1.73-1.35-.93-2.64-1.85-3.93-2.83l-20.48,13.46c-3.92,2.58-8.79,2.19-11.52-.9l-9-10.32c-2.7-3.09-2.42-8,.67-11.51l12.32-14.11,3.75-4.32c-5.82-10.13-9.74-21.47-11.36-33.47l-23.8-4.94c-4.6-.95-7.77-4.68-7.49-8.78l.93-13.65c.28-4.1,3.93-7.37,8.62-7.68l24.14-1.63c.66-2.43,1.39-4.8,2.24-7.13,1-2.87,2.17-5.67,3.48-8.38.31-.7.64-1.37.97-2.04.8-1.56,1.65-3.08,2.53-4.61.07-.11.13-.25.2-.36h.03c.17-.3.36-.61.52-.91.29-.5.62-1.02.94-1.52,1.49-2.4,3.12-4.71,4.83-6.99l-13.23-20.12c-2.58-3.92-2.19-8.79.9-11.52l10.32-9c3.12-2.7,8-2.42,11.53.67l18.08,15.78c.27-.15.57-.34.87-.49,7.82-4.36,16.31-7.64,25.26-9.59.38-.09.76-.18,1.14-.24,2.16-.46,4.38-.82,6.62-1.13l4.86-23.43c.95-4.6,4.68-7.77,8.78-7.49l13.65.93c4.1.28,7.36,3.93,7.68,8.62l1.62,23.88c11.82,3.23,22.65,8.72,32.01,15.96l20.09-13.17c3.89-2.59,8.79-2.19,11.49.9l9,10.32c.88,1.01,1.43,2.2,1.69,3.49.51,2.66-.27,5.66-2.37,8.05l-15.85,18.13c.46.84.92,1.7,1.38,2.54.87,1.67,1.7,3.34,2.45,5.04.4.86.77,1.75,1.15,2.61,1.02,2.43,1.91,4.91,2.72,7.45.24.71.45,1.44.66,2.15,1.33,4.56,2.31,9.23,2.9,14l23.72,4.91c4.57.95,7.75,4.68,7.47,8.78Z"/>
    <g>
      <g>
        <path class="cls-3" d="m521.25,486.35l-22.7-1.55c-5.11-.35-8.65-5.83-7.47-11.54l6.77-32.71c.95-4.59,4.67-7.76,8.77-7.48l13.66.93c4.1.28,7.36,3.93,7.67,8.61l2.26,33.33c.39,5.82-3.86,10.77-8.97,10.42Z"/>
        <path class="cls-3" d="m488.91,625.81l22.7,1.55c5.11.35,8.65,5.83,7.47,11.54l-6.77,32.71c-.95,4.59-4.67,7.76-8.77,7.48l-13.66-.93c-4.1-.28-7.36-3.93-7.67-8.61l-2.26-33.33c-.39-5.82,3.86-10.77,8.97-10.42Z"/>
      </g>
      <g>
        <path class="cls-5" d="m516.73,486.04l-13.65-.93c-3.07-.21-5.06-5.58-4.19-11.32l4.97-32.84c.7-4.6,3.03-7.87,5.49-7.7l8.22.56c2.47.17,4.33,3.73,4.39,8.38l.46,33.21c.08,5.8-2.62,10.85-5.7,10.64Z"/>
        <path class="cls-5" d="m493.44,626.12l13.65.93c3.07.21,5.06,5.58,4.19,11.32l-4.97,32.84c-.7,4.6-3.03,7.87-5.49,7.7l-8.22-.56c-2.47-.17-4.33-3.73-4.39-8.38l-.46-33.21c-.08-5.8,2.62-10.85,5.7-10.64Z"/>
      </g>
      <g>
        <path class="cls-5" d="m574.81,572.25l1.55-22.7c.35-5.11,5.83-8.65,11.54-7.47l32.71,6.77c4.59.95,7.76,4.67,7.48,8.77l-.93,13.66c-.28,4.1-3.93,7.36-8.61,7.67l-33.33,2.26c-5.82.39-10.77-3.86-10.42-8.97Z"/>
        <path class="cls-3" d="m619.29,568.3l-33.33,2.26c-5.82.39-10.77-3.86-10.42-8.97l-.73,10.67c-.35,5.11,4.6,9.37,10.42,8.97l33.33-2.26c4.67-.32,8.32-3.57,8.61-7.67l.73-10.67c-.28,4.1-3.93,7.36-8.61,7.67Z"/>
        <path class="cls-5" d="m435.35,539.91l-1.55,22.7c-.35,5.11-5.83,8.65-11.54,7.47l-32.71-6.77c-4.59-.95-7.76-4.67-7.48-8.77l.93-13.66c.28-4.1,3.93-7.36,8.61-7.67l33.33-2.26c5.82-.39,10.77,3.86,10.42,8.97Z"/>
        <path class="cls-3" d="m390.28,552.63l32.71,6.77c5.71,1.18,11.19-2.36,11.54-7.47l-.73,10.67c-.35,5.11-5.83,8.65-11.54,7.47l-32.71-6.77c-4.59-.95-7.76-4.67-7.48-8.77l.73-10.67c-.28,4.1,2.89,7.82,7.48,8.77Z"/>
      </g>
      <g>
        <path class="cls-5" d="m565.82,518.21l-14.95-17.15c-3.37-3.86-2-10.24,2.88-13.44l27.92-18.34c3.91-2.57,8.79-2.18,11.49.91l9,10.32c2.7,3.1,2.42,7.98-.66,11.51l-21.97,25.16c-3.84,4.4-10.35,4.88-13.71,1.02Z"/>
        <path class="cls-3" d="m594.48,483.96l-21.97,25.16c-3.84,4.4-10.35,4.88-13.71,1.02l7.03,8.06c3.37,3.86,9.87,3.37,13.71-1.02l21.97-25.16c3.08-3.53,3.36-8.41.66-11.51l-7.03-8.06c2.7,3.1,2.42,7.98-.66,11.51Z"/>
        <path class="cls-5" d="m444.34,593.95l14.95,17.15c3.37,3.86,2,10.24-2.88,13.44l-27.92,18.34c-3.91,2.57-8.79,2.18-11.49-.91l-9-10.32c-2.7-3.1-2.42-7.98.66-11.51l21.97-25.16c3.84-4.4,10.35-4.88,13.71-1.02Z"/>
        <path class="cls-3" d="m421.46,634.82l27.92-18.34c4.88-3.2,6.24-9.59,2.88-13.44l7.03,8.06c3.37,3.86,2,10.24-2.88,13.44l-27.92,18.34c-3.91,2.57-8.79,2.18-11.49-.91l-7.03-8.06c2.7,3.1,7.58,3.49,11.49.91Z"/>
      </g>
      <g>
        <path class="cls-5" d="m542.95,616.82l17.15-14.95c3.86-3.37,10.24-2,13.44,2.88l18.34,27.92c2.57,3.91,2.18,8.79-.91,11.49l-10.32,9c-3.1,2.7-7.98,2.42-11.51-.66l-25.16-21.97c-4.4-3.84-4.88-10.35-1.02-13.71Z"/>
        <path class="cls-3" d="m577.2,645.48l-25.16-21.97c-4.4-3.84-4.88-10.35-1.02-13.71l-8.06,7.03c-3.86,3.37-3.37,9.87,1.02,13.71l25.16,21.97c3.53,3.08,8.41,3.36,11.51.66l8.06-7.03c-3.1,2.7-7.98,2.42-11.51-.66Z"/>
        <path class="cls-5" d="m467.21,495.34l-17.15,14.95c-3.86,3.37-10.24,2-13.44-2.88l-18.34-27.92c-2.57-3.91-2.18-8.79.91-11.49l10.32-9c3.1-2.7,7.98-2.42,11.51.66l25.16,21.97c4.4,3.84,4.88,10.35,1.02,13.71Z"/>
        <path class="cls-3" d="m426.34,472.46l18.34,27.92c3.2,4.88,9.59,6.24,13.44,2.88l-8.06,7.03c-3.86,3.37-10.24,2-13.44-2.88l-18.34-27.92c-2.57-3.91-2.18-8.79.91-11.49l8.06-7.03c-3.1,2.7-3.49,7.58-.91,11.49Z"/>
      </g>
      <path class="cls-5" d="m511.42,463.44c-51-3.49-95.18,35.03-98.67,86.03-3.49,51,35.03,95.18,86.03,98.67,51,3.49,95.18-35.03,98.67-86.03,3.49-51-35.03-95.18-86.03-98.67Zm-9.98,145.93c-29.59-2.02-51.94-27.66-49.92-57.25,2.02-29.59,27.66-51.94,57.25-49.92s51.94,27.66,49.92,57.25c-2.02,29.59-27.66,51.94-57.25,49.92Z"/>
      <path class="cls-3" d="m511.42,463.44c-51-3.49-95.18,35.03-98.67,86.03-3.49,51,35.03,95.18,86.03,98.67,51,3.49,95.18-35.03,98.67-86.03,3.49-51-35.03-95.18-86.03-98.67Zm-11.47,167.69c-41.61-2.85-73.03-38.88-70.18-80.49,2.85-41.61,38.88-73.03,80.49-70.19,41.61,2.85,73.03,38.88,70.19,80.49-2.85,41.61-38.88,73.03-80.49,70.19Z"/>
    </g>
    <g>
      <circle class="cls-3" cx="505.08" cy="556.08" r="64.13" transform="translate(-227.27 723.4) rotate(-60.62)"/>
      <circle class="cls-1" cx="505.08" cy="556.08" r="51.1" transform="translate(-222.31 743.8) rotate(-62.22)"/>
    </g>
    <g>
      <path class="cls-3" d="m460.66,542.77h4.75c3.39,0,5.12,1.68,5.12,5.46v1.26c0,3.53-1.26,5.87-5.31,5.87h-1.27v8.79h-3.3v-21.37Zm3.3,9.89h.9c2.05,0,2.41-1.2,2.41-3.29v-1.05c0-1.55-.28-2.83-2.11-2.83h-1.2v7.17Z"/>
      <path class="cls-3" d="m472.34,553.2c0-2.75.03-3.92-.03-5.61h3.12c.03.32.09,1.79.09,2.68.66-2.24,2.11-2.92,3.65-2.93v4.06c-1.89,0-3.54.48-3.54,3.88v8.87h-3.3v-10.95Z"/>
      <path class="cls-3" d="m490.17,552.67v6.37c0,3.55-1.76,5.37-4.89,5.37s-4.82-1.86-4.82-5.35v-6.52c0-3.58,2.04-5.2,4.92-5.2s4.79,1.84,4.79,5.34Zm-6.41-.19v6.69c0,1.34.41,2.31,1.58,2.31,1.1,0,1.53-.82,1.53-2.37v-6.66c0-1.28-.34-2.21-1.55-2.21-1.08,0-1.55.77-1.55,2.23Z"/>
      <path class="cls-3" d="m501.21,560.76c0,1.04,0,2.76.06,3.39h-3.01c-.07-.31-.18-.98-.21-1.21-.56,1.01-1.46,1.47-2.73,1.47-2.49,0-3.49-2.31-3.49-4.81v-.29c0-4.08,2.75-5.17,5.73-5.17h.38v-2.11c0-1.3-.15-2.03-1.16-2.03s-1.2.76-1.2,1.79v.27h-3.24v-.21c0-2.4.92-4.52,4.56-4.52,3.2,0,4.32,1.76,4.32,4.44v8.99Zm-3.21-4.12h-.55c-1.5,0-2.49.57-2.49,2.63v.26c0,1.17.42,2,1.45,2,1.1,0,1.59-.76,1.59-3v-1.9Z"/>
      <path class="cls-3" d="m512.69,558.65v.22c0,2.99-.76,5.53-4.61,5.53s-4.51-2.56-4.51-5.98v-5.68c0-2.7.89-5.41,4.67-5.41,4.05,0,4.45,2.93,4.45,4.98v.62h-3.24v-.7c0-1.27-.2-2.13-1.27-2.13-.98,0-1.31.76-1.31,2.15v7.18c0,1.15.21,2.18,1.3,2.18s1.28-.84,1.28-2.19v-.79h3.24Z"/>
      <path class="cls-3" d="m513.9,547.58h1.76v-3.97h3.29v3.97h2.08v2.89h-2.08v9.79c0,.78.11,1.41,1.11,1.41.29,0,.72-.03.9-.1v2.48c-.56.27-1.39.33-2.01.33-2.07,0-3.29-.67-3.29-3.54v-10.38h-1.76v-2.89Z"/>
      <path class="cls-3" d="m522.74,547.58h3.3v16.56h-3.3v-16.56Zm.03-5.74h3.3v3.52h-3.3v-3.52Z"/>
      <path class="cls-3" d="m531.09,547.58c.53,3.25,1.47,9.25,1.9,12.9h.03c.3-3.51,1.47-9.48,2-12.9h3.3l-3.56,16.56h-3.72l-3.49-16.56h3.53Z"/>
      <path class="cls-3" d="m542.58,556.74v2.43c0,1.28.3,2.45,1.55,2.45,1.31,0,1.48-1.17,1.48-2.37v-.08h3.21v.08c0,1.74-.37,5.15-4.61,5.15s-4.84-2.61-4.84-5.96v-5.43c0-2.26.71-5.69,4.82-5.69,3.54,0,4.69,2.38,4.69,5.66v3.75h-6.29Zm3.14-2.58v-1.7c0-1.53-.35-2.36-1.54-2.36-1.06,0-1.58.75-1.58,2.36v1.69h3.11Z"/>
    </g>
  </g>
  <path class="cls-6" d="m629.55,483.46c12.78,22.15,20.11,47.99,20.11,75.59,0,29.04-8.12,56.14-22.16,79.03"/>
  <line class="cls-6" x1="663.78" y1="556.9" x2="651.21" y2="556.77"/>
  <g>
    <path d="m698.49,543.57h-7.61v5.42h8.36l-.26,1.74h-10.09v-15.31h9.97v1.74h-7.98v4.67h7.61v1.74Z"/>
    <path d="m701.43,550.72v-16.15h1.93v16.15h-1.93Z"/>
    <path d="m706.65,534.57h1.93v2.41h-1.93v-2.41Zm0,5h1.93v11.16h-1.93v-11.16Z"/>
    <path d="m711.86,542.44c0-.96,0-1.97-.02-2.88h1.86c.03.33.08,1.16.08,1.72.51-1,1.48-1.98,3.25-1.98,1.58,0,2.67.8,3.09,2,.6-1.06,1.65-2,3.56-2s3.52,1.07,3.52,4.09v7.33h-1.89v-7.1c0-1.29-.47-2.66-2.21-2.66s-2.6,1.37-2.6,3.35v6.41h-1.89v-7.04c0-1.43-.41-2.71-2.16-2.71s-2.65,1.45-2.65,3.58v6.18h-1.91v-8.28Z"/>
    <path d="m730.47,534.57h1.93v2.41h-1.93v-2.41Zm0,5h1.93v11.16h-1.93v-11.16Z"/>
    <path d="m735.69,542.38c0-.97,0-1.95-.02-2.81h1.87c.05.33.08,1.5.08,1.83.45-.96,1.36-2.1,3.51-2.1s3.73,1.28,3.73,4.25v7.18h-1.93v-6.93c0-1.69-.66-2.82-2.36-2.82-2.1,0-2.95,1.6-2.95,3.84v5.91h-1.93v-8.35Z"/>
    <path d="m756.32,548.29c0,1.02.09,2.11.15,2.43h-1.84c-.09-.25-.15-.78-.18-1.46-.39.74-1.28,1.72-3.45,1.72-2.63,0-3.75-1.71-3.75-3.41,0-2.49,1.96-3.63,5.27-3.63h1.9v-.95c0-.98-.31-2.18-2.4-2.18-1.86,0-2.18.92-2.38,1.79h-1.86c.15-1.54,1.1-3.31,4.31-3.31,2.73,0,4.24,1.12,4.24,3.66v5.33Zm-1.88-3.01h-1.81c-2.22,0-3.42.62-3.42,2.19,0,1.16.8,2,2.17,2,2.69,0,3.05-1.81,3.05-3.83v-.36Z"/>
    <path d="m758.06,539.57h1.93v-3.29h1.93v3.29h2.46v1.57h-2.46v6.54c0,1.08.26,1.64,1.27,1.64.27,0,.67-.01.97-.09v1.45c-.48.18-1.14.21-1.67.21-1.74,0-2.5-.9-2.5-2.75v-6.99h-1.93v-1.57Z"/>
    <path d="m767.51,545.5c.01,2.27,1.16,3.88,3.05,3.88,1.76,0,2.34-.91,2.69-1.73h1.94c-.44,1.43-1.64,3.34-4.69,3.34-3.51,0-4.94-2.85-4.94-5.72,0-3.32,1.67-5.96,5.06-5.96,3.6,0,4.78,2.89,4.78,5.27,0,.34,0,.62-.03.93h-7.86Zm5.94-1.36c-.02-1.84-.95-3.31-2.85-3.31s-2.83,1.37-3.02,3.31h5.87Z"/>
    <path d="m792.62,534.57v13c0,1.05,0,2.08.02,3.15h-1.85c-.05-.29-.09-1.15-.1-1.58-.55,1.16-1.68,1.85-3.51,1.85-2.87,0-4.63-2.32-4.63-5.73s1.9-5.96,4.99-5.96c1.97,0,2.85.8,3.15,1.42v-6.16h1.93Zm-8.07,10.63c0,2.69,1.28,4.15,3.03,4.15,2.61,0,3.18-1.92,3.18-4.37s-.52-4.05-3.03-4.05c-1.97,0-3.19,1.56-3.19,4.27Z"/>
    <path d="m797.05,545.5c.01,2.27,1.16,3.88,3.05,3.88,1.76,0,2.34-.91,2.69-1.73h1.94c-.44,1.43-1.64,3.34-4.69,3.34-3.51,0-4.94-2.85-4.94-5.72,0-3.32,1.67-5.96,5.06-5.96,3.6,0,4.78,2.89,4.78,5.27,0,.34,0,.62-.03.93h-7.86Zm5.94-1.36c-.02-1.84-.95-3.31-2.85-3.31s-2.83,1.37-3.02,3.31h5.87Z"/>
    <path d="m808.01,550.72v-9.59h-1.8v-1.57h1.8v-1.34c0-2.05.79-3.88,3.25-3.88.41,0,.96.06,1.23.15v1.63c-.27-.07-.68-.1-.98-.1-1.15,0-1.58.69-1.58,2.32v1.21h2.23v1.57h-2.23v9.59h-1.93Z"/>
    <path d="m814.96,545.5c.01,2.27,1.16,3.88,3.05,3.88,1.76,0,2.34-.91,2.69-1.73h1.94c-.44,1.43-1.64,3.34-4.69,3.34-3.51,0-4.94-2.85-4.94-5.72,0-3.32,1.67-5.96,5.06-5.96,3.6,0,4.78,2.89,4.78,5.27,0,.34,0,.62-.03.93h-7.86Zm5.94-1.36c-.02-1.84-.95-3.31-2.85-3.31s-2.83,1.37-3.02,3.31h5.87Z"/>
    <path d="m834.25,547.31c-.47,1.92-1.77,3.68-4.61,3.68-3.07,0-4.97-2.21-4.97-5.78,0-3.15,1.79-5.9,5.11-5.9s4.33,2.29,4.47,3.73h-1.91c-.28-1.14-.99-2.12-2.6-2.12-1.97,0-3.09,1.69-3.09,4.22s1.08,4.25,3.02,4.25c1.4,0,2.21-.74,2.66-2.08h1.92Z"/>
    <path d="m835.36,539.57h1.93v-3.29h1.93v3.29h2.46v1.57h-2.46v6.54c0,1.08.26,1.64,1.27,1.64.27,0,.67-.01.97-.09v1.45c-.48.18-1.14.21-1.67.21-1.74,0-2.5-.9-2.5-2.75v-6.99h-1.93v-1.57Z"/>
    <path d="m844.95,547.53c.32,1.22,1.22,1.94,2.74,1.94,1.64,0,2.28-.71,2.28-1.72s-.51-1.53-2.64-2.04c-3.19-.78-3.85-1.75-3.85-3.26s1.16-3.14,4.03-3.14,4.06,1.67,4.2,3.22h-1.86c-.16-.72-.71-1.72-2.42-1.72-1.56,0-2.03.75-2.03,1.48,0,.83.46,1.25,2.5,1.73,3.38.8,4.06,1.93,4.06,3.59,0,1.96-1.55,3.38-4.33,3.38s-4.31-1.46-4.59-3.46h1.92Z"/>
    <path d="m696.83,572.29c0,1.02.09,2.11.15,2.43h-1.84c-.09-.25-.15-.78-.18-1.46-.39.74-1.28,1.72-3.45,1.72-2.63,0-3.75-1.71-3.75-3.41,0-2.49,1.96-3.63,5.27-3.63h1.9v-.95c0-.98-.31-2.18-2.4-2.18-1.86,0-2.18.92-2.38,1.79h-1.86c.15-1.54,1.1-3.31,4.31-3.31,2.73,0,4.24,1.12,4.24,3.66v5.33Zm-1.88-3.01h-1.81c-2.22,0-3.42.62-3.42,2.19,0,1.16.8,2,2.17,2,2.69,0,3.05-1.81,3.05-3.83v-.36Z"/>
    <path d="m698.57,563.57h1.93v-3.29h1.93v3.29h2.46v1.57h-2.46v6.54c0,1.08.26,1.64,1.27,1.64.27,0,.67-.01.97-.09v1.45c-.48.18-1.14.21-1.67.21-1.74,0-2.5-.9-2.5-2.75v-6.99h-1.93v-1.57Z"/>
    <path d="m720.9,572.29c0,1.02.09,2.11.15,2.43h-1.84c-.09-.25-.15-.78-.18-1.46-.39.74-1.28,1.72-3.45,1.72-2.63,0-3.75-1.71-3.75-3.41,0-2.49,1.96-3.63,5.27-3.63h1.9v-.95c0-.98-.31-2.18-2.4-2.18-1.86,0-2.18.92-2.38,1.79h-1.86c.15-1.54,1.1-3.31,4.31-3.31,2.73,0,4.24,1.12,4.24,3.66v5.33Zm-1.88-3.01h-1.81c-2.22,0-3.42.62-3.42,2.19,0,1.16.8,2,2.17,2,2.69,0,3.05-1.81,3.05-3.83v-.36Z"/>
    <path d="m724.23,566.38c0-.97,0-1.95-.02-2.81h1.87c.05.33.08,1.5.08,1.83.45-.96,1.36-2.1,3.51-2.1s3.73,1.28,3.73,4.25v7.18h-1.93v-6.93c0-1.69-.66-2.82-2.36-2.82-2.1,0-2.95,1.6-2.95,3.84v5.91h-1.93v-8.35Z"/>
    <path d="m743.39,569.5c.01,2.27,1.16,3.88,3.05,3.88,1.76,0,2.34-.91,2.69-1.73h1.94c-.44,1.43-1.64,3.34-4.69,3.34-3.51,0-4.94-2.85-4.94-5.72,0-3.32,1.67-5.96,5.06-5.96,3.6,0,4.78,2.89,4.78,5.27,0,.34,0,.62-.03.93h-7.86Zm5.94-1.36c-.02-1.84-.95-3.31-2.85-3.31s-2.83,1.37-3.02,3.31h5.87Z"/>
    <path d="m762.06,572.29c0,1.02.09,2.11.15,2.43h-1.84c-.09-.25-.15-.78-.18-1.46-.39.74-1.28,1.72-3.45,1.72-2.63,0-3.75-1.71-3.75-3.41,0-2.49,1.96-3.63,5.27-3.63h1.9v-.95c0-.98-.31-2.18-2.4-2.18-1.86,0-2.18.92-2.38,1.79h-1.86c.15-1.54,1.1-3.31,4.31-3.31,2.73,0,4.24,1.12,4.24,3.66v5.33Zm-1.88-3.01h-1.81c-2.22,0-3.42.62-3.42,2.19,0,1.16.8,2,2.17,2,2.69,0,3.05-1.81,3.05-3.83v-.36Z"/>
    <path d="m765.38,566.6c0-1.56-.01-2.44-.02-3.03h1.89c.03.31.06,1.19.06,2.28.58-1.51,1.91-2.48,3.76-2.54v1.92c-2.29.07-3.76,1.26-3.76,4.08v5.42h-1.93v-8.13Z"/>
    <path d="m773.11,574.72v-16.15h1.93v16.15h-1.93Z"/>
    <path d="m779.16,563.57c1.8,5.34,2.79,8.3,3.09,9.44h.02c.36-1.26,1.16-3.82,2.98-9.44h1.95l-4.01,11.67c-1.13,3.26-1.97,4.09-4.26,4.09-.35,0-.77-.02-1.2-.07v-1.68c.28.04.61.06.92.06,1.41,0,1.95-.62,2.61-2.48l-4.18-11.59h2.08Z"/>
    <path d="m795.58,571.53c.32,1.22,1.22,1.94,2.74,1.94,1.64,0,2.28-.71,2.28-1.72s-.51-1.53-2.64-2.04c-3.19-.78-3.85-1.75-3.85-3.26s1.16-3.14,4.03-3.14,4.06,1.67,4.2,3.22h-1.86c-.16-.72-.71-1.72-2.42-1.72-1.56,0-2.03.75-2.03,1.48,0,.83.46,1.25,2.5,1.73,3.38.8,4.06,1.93,4.06,3.59,0,1.96-1.55,3.38-4.33,3.38s-4.31-1.46-4.59-3.46h1.92Z"/>
    <path d="m803.53,563.57h1.93v-3.29h1.93v3.29h2.46v1.57h-2.46v6.54c0,1.08.26,1.64,1.27,1.64.27,0,.67-.01.97-.09v1.45c-.48.18-1.14.21-1.67.21-1.74,0-2.5-.9-2.5-2.75v-6.99h-1.93v-1.57Z"/>
    <path d="m820.25,572.29c0,1.02.09,2.11.15,2.43h-1.84c-.09-.25-.15-.78-.18-1.46-.39.74-1.28,1.72-3.45,1.72-2.63,0-3.75-1.71-3.75-3.41,0-2.49,1.96-3.63,5.27-3.63h1.9v-.95c0-.98-.31-2.18-2.4-2.18-1.86,0-2.18.92-2.38,1.79h-1.86c.15-1.54,1.1-3.31,4.31-3.31,2.73,0,4.24,1.12,4.24,3.66v5.33Zm-1.88-3.01h-1.81c-2.22,0-3.42.62-3.42,2.19,0,1.16.8,2,2.17,2,2.69,0,3.05-1.81,3.05-3.83v-.36Z"/>
    <path d="m832.77,573.72c0,3.57-1.48,5.61-5.12,5.61-3.38,0-4.42-1.89-4.62-3.41h1.96c.33,1.22,1.31,1.87,2.74,1.87,2.53,0,3.16-1.61,3.16-4.17v-.9c-.59,1.25-1.62,1.96-3.49,1.96-2.75,0-4.62-2.24-4.62-5.51,0-3.64,2.12-5.86,4.82-5.86,2.13,0,3.03,1,3.29,1.74.02-.51.07-1.25.09-1.48h1.82c0,.65-.04,2.15-.04,3.22v6.93Zm-7.98-4.64c0,2.35,1.22,3.95,3.05,3.95,2.41,0,3.11-1.62,3.11-4.09s-.66-4-3.04-4c-2.06,0-3.11,1.73-3.11,4.14Z"/>
    <path d="m837.22,569.5c.01,2.27,1.16,3.88,3.05,3.88,1.76,0,2.34-.91,2.69-1.73h1.94c-.44,1.43-1.64,3.34-4.69,3.34-3.51,0-4.94-2.85-4.94-5.72,0-3.32,1.67-5.96,5.06-5.96,3.6,0,4.78,2.89,4.78,5.27,0,.34,0,.62-.03.93h-7.86Zm5.94-1.36c-.02-1.84-.95-3.31-2.85-3.31s-2.83,1.37-3.02,3.31h5.87Z"/>
  </g>
  <g>
    <path class="cls-8" d="m533.56,823.76c-.02.05-.05.1-.08.16h0c.03-.05.05-.1.08-.16Z"/>
    <path class="cls-11" d="m562.9,790.11l-.93,13.65c-.05.72-.21,1.4-.43,2.02-1.14,3.12-4.32,5.41-8.17,5.66l-24.28,1.65c-.15.57-.31,1.13-.49,1.69-.3,1.05-.63,2.09-.99,3.13-.39,1.13-.79,2.25-1.21,3.35-.11.34-.25.67-.39,1.01-.42,1.07-.86,2.1-1.31,3.14-.38.87-.75,1.73-1.19,2.6-.81,1.7-1.67,3.4-2.59,5.07-.3.53-.59,1.05-.88,1.55-1.89,3.24-3.95,6.36-6.2,9.34-.19.25-.38.49-.57.74l3.13,4.79,10.28,15.65c2.59,3.89,2.19,8.79-.9,11.49l-10.32,9c-1.16,1.01-2.59,1.61-4.07,1.8-.52.05-1.01.07-1.53.04-.29-.02-.57-.07-.86-.09-.43-.09-.85-.17-1.3-.32-.4-.11-.79-.26-1.18-.46-.5-.21-1-.5-1.5-.82-.36-.25-.74-.51-1.07-.82l-18.49-16.13c-10.13,5.73-21.43,9.63-33.38,11.2l-4.99,24.06c-.09.51-.24.99-.42,1.47-4.89-.05-9.81-.21-14.77-.55-4.96-.34-9.85-.85-14.71-1.47-.11-.5-.16-.99-.21-1.51l-1.66-24.51c-5.8-1.61-11.35-3.74-16.59-6.35-1.2-.6-2.37-1.2-3.5-1.82-.69-.39-1.36-.78-2.02-1.18-.97-.56-1.94-1.14-2.88-1.72-.88-.58-1.76-1.16-2.62-1.73-1.35-.93-2.64-1.85-3.93-2.83l-20.48,13.46c-3.92,2.58-8.79,2.19-11.52-.9l-9-10.32c-2.7-3.09-2.42-8,.67-11.51l12.32-14.11,3.75-4.32c-5.82-10.13-9.74-21.47-11.36-33.47l-23.8-4.94c-4.6-.95-7.77-4.68-7.49-8.78l.93-13.65c.28-4.1,3.93-7.37,8.62-7.68l24.14-1.63c.66-2.43,1.39-4.8,2.24-7.13,1-2.87,2.17-5.67,3.48-8.38.31-.7.64-1.37.97-2.04.8-1.56,1.65-3.08,2.53-4.61.07-.11.13-.25.2-.36h.03c.17-.3.36-.61.52-.91.29-.5.62-1.02.94-1.52,1.49-2.4,3.12-4.71,4.83-6.99l-13.23-20.12c-2.58-3.92-2.19-8.79.9-11.52l10.32-9c3.12-2.7,8-2.42,11.53.67l18.08,15.78c.27-.15.57-.34.87-.49,7.82-4.36,16.31-7.64,25.26-9.59.38-.09.76-.18,1.14-.24,2.16-.46,4.38-.82,6.62-1.13l4.86-23.43c.95-4.6,4.68-7.77,8.78-7.49l13.65.93c4.1.28,7.36,3.93,7.68,8.62l1.62,23.88c11.82,3.23,22.65,8.72,32.01,15.96l20.09-13.17c3.89-2.59,8.79-2.19,11.49.9l9,10.32c.88,1.01,1.43,2.2,1.69,3.49.51,2.66-.27,5.66-2.37,8.05l-15.85,18.13c.46.84.92,1.7,1.38,2.54.87,1.67,1.7,3.34,2.45,5.04.4.86.77,1.75,1.15,2.61,1.02,2.43,1.91,4.91,2.72,7.45.24.71.45,1.44.66,2.15,1.33,4.56,2.31,9.23,2.9,14l23.72,4.91c4.57.95,7.75,4.68,7.47,8.78Z"/>
    <g>
      <g>
        <path class="cls-4" d="m456.68,706.86l-22.7-1.55c-5.11-.35-8.65-5.83-7.47-11.54l6.77-32.71c.95-4.59,4.67-7.76,8.77-7.48l13.66.93c4.1.28,7.36,3.93,7.67,8.61l2.26,33.33c.39,5.82-3.86,10.77-8.97,10.42Z"/>
        <path class="cls-4" d="m424.33,846.32l22.7,1.55c5.11.35,8.65,5.83,7.47,11.54l-6.77,32.71c-.95,4.59-4.67,7.76-8.77,7.48l-13.66-.93c-4.1-.28-7.36-3.93-7.67-8.61l-2.26-33.33c-.39-5.82,3.86-10.77,8.97-10.42Z"/>
      </g>
      <g>
        <path class="cls-9" d="m452.15,706.55l-13.65-.93c-3.07-.21-5.06-5.58-4.19-11.32l4.97-32.84c.7-4.6,3.03-7.87,5.49-7.7l8.22.56c2.47.17,4.33,3.73,4.39,8.38l.46,33.21c.08,5.8-2.62,10.85-5.7,10.64Z"/>
        <path class="cls-9" d="m428.86,846.63l13.65.93c3.07.21,5.06,5.58,4.19,11.32l-4.97,32.84c-.7,4.6-3.03,7.87-5.49,7.7l-8.22-.56c-2.47-.17-4.33-3.73-4.39-8.38l-.46-33.21c-.08-5.8,2.62-10.85,5.7-10.64Z"/>
      </g>
      <g>
        <path class="cls-9" d="m510.23,792.76l1.55-22.7c.35-5.11,5.83-8.65,11.54-7.47l32.71,6.77c4.59.95,7.76,4.67,7.48,8.77l-.93,13.66c-.28,4.1-3.93,7.36-8.61,7.67l-33.33,2.26c-5.82.39-10.77-3.86-10.42-8.97Z"/>
        <path class="cls-4" d="m554.71,788.81l-33.33,2.26c-5.82.39-10.77-3.86-10.42-8.97l-.73,10.67c-.35,5.11,4.6,9.37,10.42,8.97l33.33-2.26c4.67-.32,8.32-3.57,8.61-7.67l.73-10.67c-.28,4.1-3.93,7.36-8.61,7.67Z"/>
        <path class="cls-9" d="m370.78,760.42l-1.55,22.7c-.35,5.11-5.83,8.65-11.54,7.47l-32.71-6.77c-4.59-.95-7.76-4.67-7.48-8.77l.93-13.66c.28-4.1,3.93-7.36,8.61-7.67l33.33-2.26c5.82-.39,10.77,3.86,10.42,8.97Z"/>
        <path class="cls-4" d="m325.7,773.14l32.71,6.77c5.71,1.18,11.19-2.36,11.54-7.47l-.73,10.67c-.35,5.11-5.83,8.65-11.54,7.47l-32.71-6.77c-4.59-.95-7.76-4.67-7.48-8.77l.73-10.67c-.28,4.1,2.89,7.82,7.48,8.77Z"/>
      </g>
      <g>
        <path class="cls-9" d="m501.24,738.72l-14.95-17.15c-3.37-3.86-2-10.24,2.88-13.44l27.92-18.34c3.91-2.57,8.79-2.18,11.49.91l9,10.32c2.7,3.1,2.42,7.98-.66,11.51l-21.97,25.16c-3.84,4.4-10.35,4.88-13.71,1.02Z"/>
        <path class="cls-4" d="m529.9,704.47l-21.97,25.16c-3.84,4.4-10.35,4.88-13.71,1.02l7.03,8.06c3.37,3.86,9.87,3.37,13.71-1.02l21.97-25.16c3.08-3.53,3.36-8.41.66-11.51l-7.03-8.06c2.7,3.1,2.42,7.98-.66,11.51Z"/>
        <path class="cls-9" d="m379.76,814.46l14.95,17.15c3.37,3.86,2,10.24-2.88,13.44l-27.92,18.34c-3.91,2.57-8.79,2.18-11.49-.91l-9-10.32c-2.7-3.1-2.42-7.98.66-11.51l21.97-25.16c3.84-4.4,10.35-4.88,13.71-1.02Z"/>
        <path class="cls-4" d="m356.88,855.33l27.92-18.34c4.88-3.2,6.24-9.59,2.88-13.44l7.03,8.06c3.37,3.86,2,10.24-2.88,13.44l-27.92,18.34c-3.91,2.57-8.79,2.18-11.49-.91l-7.03-8.06c2.7,3.1,7.58,3.49,11.49.91Z"/>
      </g>
      <g>
        <path class="cls-9" d="m478.37,837.33l17.15-14.95c3.86-3.37,10.24-2,13.44,2.88l18.34,27.92c2.57,3.91,2.18,8.79-.91,11.49l-10.32,9c-3.1,2.7-7.98,2.42-11.51-.66l-25.16-21.97c-4.4-3.84-4.88-10.35-1.02-13.71Z"/>
        <path class="cls-4" d="m512.62,865.99l-25.16-21.97c-4.4-3.84-4.88-10.35-1.02-13.71l-8.06,7.03c-3.86,3.37-3.37,9.87,1.02,13.71l25.16,21.97c3.53,3.08,8.41,3.36,11.51.66l8.06-7.03c-3.1,2.7-7.98,2.42-11.51-.66Z"/>
        <path class="cls-9" d="m402.63,715.85l-17.15,14.95c-3.86,3.37-10.24,2-13.44-2.88l-18.34-27.92c-2.57-3.91-2.18-8.79.91-11.49l10.32-9c3.1-2.7,7.98-2.42,11.51.66l25.16,21.97c4.4,3.84,4.88,10.35,1.02,13.71Z"/>
        <path class="cls-4" d="m361.76,692.97l18.34,27.92c3.2,4.88,9.59,6.24,13.44,2.88l-8.06,7.03c-3.86,3.37-10.24,2-13.44-2.88l-18.34-27.92c-2.57-3.91-2.18-8.79.91-11.49l8.06-7.03c-3.1,2.7-3.49,7.58-.91,11.49Z"/>
      </g>
      <path class="cls-9" d="m446.84,683.95c-51-3.49-95.18,35.03-98.67,86.03-3.49,51,35.03,95.18,86.03,98.67,51,3.49,95.18-35.03,98.67-86.03,3.49-51-35.03-95.18-86.03-98.67Zm-9.98,145.93c-29.59-2.02-51.94-27.66-49.92-57.25,2.02-29.59,27.66-51.94,57.25-49.92s51.94,27.66,49.92,57.25c-2.02,29.59-27.66,51.94-57.25,49.92Z"/>
      <path class="cls-4" d="m446.84,683.95c-51-3.49-95.18,35.03-98.67,86.03-3.49,51,35.03,95.18,86.03,98.67,51,3.49,95.18-35.03,98.67-86.03,3.49-51-35.03-95.18-86.03-98.67Zm-11.47,167.69c-41.61-2.85-73.03-38.88-70.18-80.49,2.85-41.61,38.88-73.03,80.49-70.19,41.61,2.85,73.03,38.88,70.19,80.49-2.85,41.61-38.88,73.03-80.49,70.19Z"/>
    </g>
    <g>
      <circle class="cls-4" cx="440.5" cy="776.59" r="64.13" transform="translate(-452.32 779.46) rotate(-60.62)"/>
      <circle class="cls-1" cx="440.5" cy="776.59" r="51.1" transform="translate(-451.89 804.41) rotate(-62.22)"/>
    </g>
    <g>
      <path class="cls-4" d="m395.81,763.22h4.46c3.18,0,4.8,1.57,4.8,5.12v1.18c0,3.31-1.18,5.5-4.98,5.5h-1.19v8.24h-3.09v-20.04Zm3.09,9.28h.85c1.93,0,2.26-1.12,2.26-3.08v-.99c0-1.46-.26-2.66-1.98-2.66h-1.12v6.72Z"/>
      <path class="cls-4" d="m406.75,773c0-2.58.03-3.68-.03-5.26h2.93c.03.3.09,1.68.09,2.51.62-2.1,1.98-2.74,3.42-2.75v3.81c-1.77,0-3.32.45-3.32,3.63v8.32h-3.09v-10.27Z"/>
      <path class="cls-4" d="m417.38,776.32v2.28c0,1.2.28,2.3,1.45,2.3,1.23,0,1.38-1.1,1.38-2.22v-.07h3.01v.07c0,1.63-.35,4.83-4.32,4.83s-4.53-2.45-4.53-5.59v-5.09c0-2.12.67-5.33,4.52-5.33,3.32,0,4.39,2.24,4.39,5.31v3.52h-5.9Zm2.94-2.42v-1.59c0-1.44-.33-2.21-1.44-2.21-1,0-1.48.71-1.48,2.22v1.59h2.92Z"/>
      <path class="cls-4" d="m434.21,762.35v16.61c0,2.37,0,3.46.03,4.31h-2.95c-.06-.39-.11-1.23-.11-1.48-.48,1-1.22,1.72-2.74,1.72-2.79,0-3.33-2.23-3.33-5.23v-6.08c0-2.7,1.03-4.69,3.56-4.69,1.04,0,2.02.3,2.45,1.09v-6.24h3.09Zm-6.01,10.03v6.14c0,1.43.34,2.21,1.41,2.21,1.26,0,1.51-1.13,1.51-2.9v-4.78c0-1.68-.15-2.78-1.47-2.78-1.07,0-1.44.81-1.44,2.11Z"/>
      <path class="cls-4" d="m436.78,767.73h3.09v15.53h-3.09v-15.53Zm.03-5.39h3.09v3.3h-3.09v-3.3Z"/>
      <path class="cls-4" d="m450.61,778.1v.21c0,2.8-.71,5.19-4.32,5.19s-4.23-2.4-4.23-5.6v-5.33c0-2.53.84-5.08,4.38-5.08,3.8,0,4.18,2.75,4.18,4.67v.58h-3.04v-.65c0-1.19-.19-2-1.19-2-.92,0-1.23.71-1.23,2.02v6.73c0,1.08.2,2.05,1.22,2.05s1.2-.79,1.2-2.05v-.74h3.04Z"/>
      <path class="cls-4" d="m451.74,767.73h1.65v-3.73h3.09v3.73h1.95v2.71h-1.95v9.18c0,.73.1,1.32,1.04,1.32.27,0,.68-.03.84-.09v2.33c-.52.25-1.3.31-1.89.31-1.94,0-3.08-.63-3.08-3.32v-9.73h-1.65v-2.71Z"/>
      <path class="cls-4" d="m460.03,767.73h3.09v15.53h-3.09v-15.53Zm.03-5.39h3.09v3.3h-3.09v-3.3Z"/>
      <path class="cls-4" d="m467.86,767.73c.5,3.05,1.38,8.67,1.78,12.09h.03c.29-3.29,1.38-8.88,1.87-12.09h3.09l-3.33,15.53h-3.49l-3.27-15.53h3.31Z"/>
      <path class="cls-4" d="m478.64,776.32v2.28c0,1.2.28,2.3,1.45,2.3,1.23,0,1.38-1.1,1.38-2.22v-.07h3.01v.07c0,1.63-.35,4.83-4.32,4.83s-4.53-2.45-4.53-5.59v-5.09c0-2.12.67-5.33,4.52-5.33,3.32,0,4.39,2.24,4.39,5.31v3.52h-5.9Zm2.94-2.42v-1.59c0-1.44-.33-2.21-1.44-2.21-1,0-1.48.71-1.48,2.22v1.59h2.92Z"/>
    </g>
  </g>
  <g>
    <path class="cls-6" d="m315.42,698.98c-12.78,22.15-20.11,47.99-20.11,75.59,0,29.04,8.12,56.14,22.16,79.03"/>
    <line class="cls-6" x1="281.19" y1="772.42" x2="293.76" y2="772.29"/>
  </g>
  <g>
    <path d="m108.68,744.4v9.21c0,3.62,1.98,4.6,3.94,4.6,2.29,0,3.91-1.05,3.91-4.6v-9.21h2.04v9.11c0,4.97-2.75,6.39-6,6.39s-5.96-1.54-5.96-6.25v-9.25h2.06Z"/>
    <path d="m122.61,756.52c.32,1.22,1.22,1.94,2.74,1.94,1.64,0,2.28-.71,2.28-1.72s-.51-1.53-2.64-2.04c-3.19-.78-3.85-1.75-3.85-3.26s1.16-3.14,4.03-3.14,4.06,1.67,4.2,3.22h-1.86c-.16-.72-.71-1.72-2.42-1.72-1.56,0-2.03.75-2.03,1.48,0,.83.46,1.25,2.5,1.73,3.38.8,4.06,1.93,4.06,3.59,0,1.96-1.55,3.38-4.33,3.38s-4.31-1.46-4.59-3.46h1.92Z"/>
    <path d="m133.26,754.48c.01,2.27,1.16,3.88,3.05,3.88,1.76,0,2.34-.91,2.69-1.73h1.94c-.44,1.43-1.64,3.34-4.69,3.34-3.51,0-4.94-2.85-4.94-5.72,0-3.32,1.67-5.96,5.06-5.96,3.6,0,4.78,2.89,4.78,5.27,0,.34,0,.62-.03.93h-7.86Zm5.94-1.36c-.02-1.84-.95-3.31-2.85-3.31s-2.83,1.37-3.02,3.31h5.87Z"/>
    <path d="m157.4,757.28c0,1.02.09,2.11.15,2.43h-1.84c-.09-.25-.15-.78-.18-1.46-.39.74-1.28,1.72-3.45,1.72-2.63,0-3.75-1.71-3.75-3.41,0-2.49,1.96-3.63,5.27-3.63h1.9v-.95c0-.98-.31-2.18-2.4-2.18-1.86,0-2.18.92-2.38,1.79h-1.86c.15-1.54,1.1-3.31,4.31-3.31,2.73,0,4.24,1.12,4.24,3.66v5.33Zm-1.88-3.01h-1.81c-2.22,0-3.42.62-3.42,2.19,0,1.16.8,2,2.17,2,2.69,0,3.05-1.81,3.05-3.83v-.36Z"/>
    <path d="m160.74,751.37c0-.97,0-1.95-.02-2.81h1.87c.05.33.08,1.5.08,1.83.45-.96,1.36-2.1,3.51-2.1s3.73,1.28,3.73,4.25v7.18h-1.93v-6.93c0-1.69-.66-2.82-2.36-2.82-2.1,0-2.95,1.6-2.95,3.84v5.91h-1.93v-8.35Z"/>
    <path d="m181.36,757.28c0,1.02.09,2.11.15,2.43h-1.84c-.09-.25-.15-.78-.18-1.46-.39.74-1.28,1.72-3.45,1.72-2.63,0-3.75-1.71-3.75-3.41,0-2.49,1.96-3.63,5.27-3.63h1.9v-.95c0-.98-.31-2.18-2.4-2.18-1.86,0-2.18.92-2.38,1.79h-1.86c.15-1.54,1.1-3.31,4.31-3.31,2.73,0,4.24,1.12,4.24,3.66v5.33Zm-1.88-3.01h-1.81c-2.22,0-3.42.62-3.42,2.19,0,1.16.8,2,2.17,2,2.69,0,3.05-1.81,3.05-3.83v-.36Z"/>
    <path d="m184.69,759.71v-16.15h1.93v16.15h-1.93Z"/>
    <path d="m190.74,748.56c1.8,5.34,2.79,8.3,3.09,9.44h.02c.36-1.26,1.16-3.82,2.98-9.44h1.95l-4.01,11.67c-1.13,3.26-1.97,4.09-4.26,4.09-.35,0-.77-.02-1.2-.07v-1.68c.28.04.61.06.92.06,1.41,0,1.95-.62,2.61-2.48l-4.18-11.59h2.08Z"/>
    <path d="m199.91,748.56h1.93v-3.29h1.93v3.29h2.46v1.57h-2.46v6.54c0,1.08.26,1.64,1.27,1.64.27,0,.67-.01.97-.09v1.45c-.48.18-1.14.21-1.67.21-1.74,0-2.5-.9-2.5-2.75v-6.99h-1.93v-1.57Z"/>
    <path d="m208.27,743.56h1.93v2.41h-1.93v-2.41Zm0,5h1.93v11.16h-1.93v-11.16Z"/>
    <path d="m222.29,756.3c-.47,1.92-1.77,3.68-4.61,3.68-3.07,0-4.97-2.21-4.97-5.78,0-3.15,1.79-5.9,5.11-5.9s4.33,2.29,4.47,3.73h-1.91c-.28-1.14-.99-2.12-2.6-2.12-1.97,0-3.09,1.69-3.09,4.22s1.08,4.25,3.02,4.25c1.4,0,2.21-.74,2.66-2.08h1.92Z"/>
    <path d="m225.75,756.52c.32,1.22,1.22,1.94,2.74,1.94,1.64,0,2.28-.71,2.28-1.72s-.51-1.53-2.64-2.04c-3.19-.78-3.85-1.75-3.85-3.26s1.16-3.14,4.03-3.14,4.06,1.67,4.2,3.22h-1.86c-.16-.72-.71-1.72-2.42-1.72-1.56,0-2.03.75-2.03,1.48,0,.83.46,1.25,2.5,1.73,3.38.8,4.06,1.93,4.06,3.59,0,1.96-1.55,3.38-4.33,3.38s-4.31-1.46-4.59-3.46h1.92Z"/>
    <path d="m239.35,748.56h1.93v-3.29h1.93v3.29h2.46v1.57h-2.46v6.54c0,1.08.26,1.64,1.27,1.64.27,0,.67-.01.97-.09v1.45c-.48.18-1.14.21-1.67.21-1.74,0-2.5-.9-2.5-2.75v-6.99h-1.93v-1.57Z"/>
    <path d="m257.24,754.11c0,3.21-1.84,5.86-5.25,5.86-3.2,0-5.13-2.47-5.13-5.83s1.89-5.86,5.26-5.86c3.1,0,5.13,2.32,5.13,5.82Zm-8.4.02c0,2.45,1.22,4.23,3.23,4.23s3.19-1.69,3.19-4.22-1.14-4.24-3.23-4.24-3.18,1.68-3.18,4.23Z"/>
    <path d="m105.47,782.33v5.76h-1.92v-12.82c0-.91,0-1.85-.02-2.72h1.87c.04.37.07,1.05.07,1.75.6-1.12,1.74-2.02,3.65-2.02,2.58,0,4.46,2.16,4.46,5.56,0,3.98-2.15,6.13-4.85,6.13-1.8,0-2.75-.76-3.25-1.64Zm6.12-4.41c0-2.37-1.08-3.98-2.98-3.98-2.31,0-3.22,1.46-3.22,4.17s.75,4.24,3.08,4.24c2.04,0,3.13-1.68,3.13-4.43Z"/>
    <path d="m116.09,775.59c0-1.56-.01-2.44-.02-3.03h1.89c.03.31.06,1.19.06,2.28.58-1.51,1.91-2.48,3.76-2.54v1.92c-2.29.07-3.76,1.26-3.76,4.08v5.42h-1.93v-8.13Z"/>
    <path d="m124.81,778.48c.01,2.27,1.16,3.88,3.05,3.88,1.76,0,2.34-.91,2.69-1.73h1.94c-.44,1.43-1.64,3.34-4.69,3.34-3.51,0-4.94-2.85-4.94-5.72,0-3.32,1.67-5.96,5.06-5.96,3.6,0,4.78,2.89,4.78,5.27,0,.34,0,.62-.03.93h-7.86Zm5.94-1.36c-.02-1.84-.95-3.31-2.85-3.31s-2.83,1.37-3.02,3.31h5.87Z"/>
    <path d="m144.57,767.56v13c0,1.05,0,2.08.02,3.15h-1.85c-.05-.29-.09-1.15-.1-1.58-.55,1.16-1.68,1.85-3.51,1.85-2.87,0-4.63-2.32-4.63-5.73s1.9-5.96,4.99-5.96c1.97,0,2.85.8,3.15,1.42v-6.16h1.93Zm-8.07,10.63c0,2.69,1.28,4.15,3.03,4.15,2.61,0,3.18-1.92,3.18-4.37s-.52-4.05-3.03-4.05c-1.97,0-3.19,1.56-3.19,4.27Z"/>
    <path d="m147.86,767.56h1.93v2.41h-1.93v-2.41Zm0,5h1.93v11.16h-1.93v-11.16Z"/>
    <path d="m161.88,780.3c-.47,1.92-1.77,3.68-4.61,3.68-3.07,0-4.97-2.21-4.97-5.78,0-3.15,1.79-5.9,5.11-5.9s4.33,2.29,4.47,3.73h-1.91c-.28-1.14-.99-2.12-2.6-2.12-1.97,0-3.09,1.69-3.09,4.22s1.08,4.25,3.02,4.25c1.4,0,2.21-.74,2.66-2.08h1.92Z"/>
    <path d="m162.99,772.56h1.93v-3.29h1.93v3.29h2.46v1.57h-2.46v6.54c0,1.08.26,1.64,1.27,1.64.27,0,.67-.01.97-.09v1.45c-.48.18-1.14.21-1.67.21-1.74,0-2.5-.9-2.5-2.75v-6.99h-1.93v-1.57Z"/>
    <path d="m177,775.43c0-.96,0-1.97-.02-2.88h1.86c.03.33.08,1.16.08,1.72.51-1,1.48-1.98,3.25-1.98,1.58,0,2.67.8,3.09,2,.6-1.06,1.65-2,3.55-2s3.52,1.07,3.52,4.09v7.33h-1.89v-7.1c0-1.29-.47-2.66-2.21-2.66s-2.6,1.37-2.6,3.35v6.41h-1.89v-7.04c0-1.43-.41-2.71-2.16-2.71s-2.65,1.45-2.65,3.58v6.18h-1.91v-8.28Z"/>
    <path d="m203.8,781.28c0,1.02.09,2.11.15,2.43h-1.84c-.09-.25-.15-.78-.18-1.46-.39.74-1.28,1.72-3.45,1.72-2.63,0-3.75-1.71-3.75-3.41,0-2.49,1.96-3.63,5.27-3.63h1.9v-.95c0-.98-.31-2.18-2.4-2.18-1.86,0-2.18.92-2.38,1.79h-1.86c.15-1.54,1.1-3.31,4.31-3.31,2.73,0,4.24,1.12,4.24,3.66v5.33Zm-1.88-3.01h-1.81c-2.22,0-3.42.62-3.42,2.19,0,1.16.8,2,2.17,2,2.69,0,3.05-1.81,3.05-3.83v-.36Z"/>
    <path d="m215.91,780.3c-.47,1.92-1.77,3.68-4.61,3.68-3.07,0-4.97-2.21-4.97-5.78,0-3.15,1.79-5.9,5.11-5.9s4.33,2.29,4.47,3.73h-1.91c-.28-1.14-.99-2.12-2.6-2.12-1.97,0-3.09,1.69-3.09,4.22s1.08,4.25,3.02,4.25c1.4,0,2.21-.74,2.66-2.08h1.92Z"/>
    <path d="m220.14,767.56v6.64c.57-.98,1.59-1.91,3.48-1.91,1.79,0,3.76.98,3.76,4.3v7.12h-1.92v-6.8c0-1.9-.8-2.95-2.43-2.95-2.01,0-2.9,1.33-2.9,3.65v6.1h-1.93v-16.15h1.93Z"/>
    <path d="m230.66,767.56h1.93v2.41h-1.93v-2.41Zm0,5h1.93v11.16h-1.93v-11.16Z"/>
    <path d="m235.88,775.37c0-.97,0-1.95-.02-2.81h1.87c.05.33.08,1.5.08,1.83.45-.96,1.36-2.1,3.51-2.1s3.73,1.28,3.73,4.25v7.18h-1.93v-6.93c0-1.69-.66-2.82-2.36-2.82-2.1,0-2.95,1.6-2.95,3.84v5.91h-1.93v-8.35Z"/>
    <path d="m249.48,778.48c.01,2.27,1.16,3.88,3.05,3.88,1.76,0,2.34-.91,2.69-1.73h1.94c-.44,1.43-1.64,3.34-4.69,3.34-3.51,0-4.94-2.85-4.94-5.72,0-3.32,1.67-5.96,5.06-5.96,3.6,0,4.78,2.89,4.78,5.27,0,.34,0,.62-.03.93h-7.86Zm5.94-1.36c-.02-1.84-.95-3.31-2.85-3.31s-2.83,1.37-3.02,3.31h5.87Z"/>
    <path d="m190.06,807.71v-9.59h-1.8v-1.57h1.8v-1.34c0-2.05.79-3.88,3.25-3.88.41,0,.96.06,1.23.15v1.63c-.27-.07-.68-.1-.98-.1-1.15,0-1.58.69-1.58,2.32v1.21h2.23v1.57h-2.23v9.59h-1.93Z"/>
    <path d="m204.08,805.28c0,1.02.09,2.11.15,2.43h-1.84c-.09-.25-.15-.78-.18-1.46-.39.74-1.28,1.72-3.45,1.72-2.63,0-3.75-1.71-3.75-3.41,0-2.49,1.96-3.63,5.27-3.63h1.9v-.95c0-.98-.31-2.18-2.4-2.18-1.86,0-2.18.92-2.38,1.79h-1.86c.15-1.54,1.1-3.31,4.31-3.31,2.73,0,4.24,1.12,4.24,3.66v5.33Zm-1.88-3.01h-1.81c-2.22,0-3.42.62-3.42,2.19,0,1.16.8,2,2.17,2,2.69,0,3.05-1.81,3.05-3.83v-.36Z"/>
    <path d="m207.41,791.56h1.93v2.41h-1.93v-2.41Zm0,5h1.93v11.16h-1.93v-11.16Z"/>
    <path d="m212.62,807.71v-16.15h1.93v16.15h-1.93Z"/>
    <path d="m226.79,804.46c0,1.09.01,2.59.02,3.25h-1.87c-.04-.29-.07-.97-.07-1.67-.55,1.24-1.62,1.94-3.38,1.94-1.88,0-3.69-.94-3.69-4.08v-7.34h1.91v6.93c0,1.47.46,2.82,2.31,2.82,2.05,0,2.84-1.14,2.84-3.92v-5.82h1.93v7.91Z"/>
    <path d="m230.09,799.59c0-1.56-.01-2.44-.02-3.03h1.89c.03.31.06,1.19.06,2.28.58-1.51,1.91-2.48,3.76-2.54v1.92c-2.29.07-3.76,1.26-3.76,4.08v5.42h-1.93v-8.13Z"/>
    <path d="m238.81,802.48c.01,2.27,1.16,3.88,3.05,3.88,1.76,0,2.34-.91,2.69-1.73h1.94c-.44,1.43-1.64,3.34-4.69,3.34-3.51,0-4.94-2.85-4.94-5.72,0-3.32,1.67-5.96,5.06-5.96,3.6,0,4.78,2.89,4.78,5.27,0,.34,0,.62-.03.93h-7.86Zm5.94-1.36c-.02-1.84-.95-3.31-2.85-3.31s-2.83,1.37-3.02,3.31h5.87Z"/>
    <path d="m250.28,804.52c.32,1.22,1.22,1.94,2.74,1.94,1.64,0,2.28-.71,2.28-1.72s-.51-1.53-2.64-2.04c-3.19-.78-3.85-1.75-3.85-3.26s1.16-3.14,4.03-3.14,4.06,1.67,4.2,3.22h-1.86c-.16-.72-.71-1.72-2.42-1.72-1.56,0-2.03.75-2.03,1.48,0,.83.46,1.25,2.5,1.73,3.38.8,4.06,1.93,4.06,3.59,0,1.96-1.55,3.38-4.33,3.38s-4.31-1.46-4.59-3.46h1.92Z"/>
  </g>
</svg>