<?xml version="1.0" encoding="UTF-8"?>
<svg id="Layer_1" data-name="Layer 1" xmlns="http://www.w3.org/2000/svg" viewBox="0 0 988.78 878.22">
  <defs>
    <style>
      .cls-1 {
        fill: #fff;
      }

      .cls-2 {
        fill: #55e0e0;
      }

      .cls-3 {
        stroke: #fff;
      }

      .cls-3, .cls-4 {
        fill: none;
        stroke-miterlimit: 10;
      }

      .cls-5 {
        fill: #9a5ae5;
      }

      .cls-4 {
        stroke: #6d11a3;
        stroke-width: 12px;
      }
    </style>
  </defs>
  <line class="cls-4" x1="225.8" y1="680.31" x2="491.7" y2="449.39"/>
  <line class="cls-4" x1="754.47" y1="680.31" x2="488.57" y2="449.39"/>
  <line class="cls-4" x1="494.21" y1="447.2" x2="757.6" y2="208.43"/>
  <line class="cls-4" x1="488.57" y1="449.39" x2="200.86" y2="208.43"/>
  <line class="cls-4" x1="488.57" y1="449.39" x2="492.51" y2="130.56"/>
  <line class="cls-4" x1="486.45" y1="781.71" x2="490.54" y2="450.61"/>
  <line class="cls-4" x1="135.59" y1="449.39" x2="490.54" y2="450.61"/>
  <line class="cls-4" x1="502.82" y1="450.65" x2="857.78" y2="451.87"/>
  <circle class="cls-2" cx="491.7" cy="449.39" r="188.61"/>
  <circle class="cls-5" cx="491.7" cy="126.07" r="90.21"/>
  <circle class="cls-5" cx="486.58" cy="770.98" r="90.21"/>
  <circle class="cls-5" cx="847.81" cy="449.39" r="90.21"/>
  <circle class="cls-5" cx="135.59" cy="449.39" r="90.21"/>
  <circle class="cls-5" cx="200.86" cy="208.43" r="90.21"/>
  <circle class="cls-5" cx="225.8" cy="680.31" r="90.21"/>
  <circle class="cls-5" cx="757.6" cy="208.43" r="90.21"/>
  <circle class="cls-5" cx="757.6" cy="672.42" r="90.21"/>
  <g>
    <path class="cls-1" d="m602.4,505.65c-10.26.03-19.03,7.38-20.84,17.48h-24.87c-8.96-.01-16.21-7.27-16.22-16.23v-26.21h40.87c23.34,0,42.27-18.92,42.27-42.26,0-23.34-18.92-42.27-42.26-42.27-1.19,0-2.37.05-3.55.15.11-1.34.17-2.67.17-3.97.04-27.27-22.04-49.42-49.31-49.46-13.16-.02-25.78,5.21-35.06,14.53-7.2-21.47-30.43-33.04-51.9-25.84-16.72,5.61-27.99,21.28-27.97,38.92,0,.81,0,1.65.08,2.48-19.38-1.2-36.06,13.54-37.26,32.92-1.2,19.38,13.54,36.06,32.92,37.26.73.05,1.47.07,2.2.07h4.72c-.17,1.25-.27,2.51-.3,3.78.02,18.59,15.08,33.66,33.68,33.68h9.89v26.22c0,8.96-7.27,16.22-16.22,16.23h-24.87c-2.07-11.53-13.09-19.2-24.62-17.13-11.53,2.07-19.2,13.09-17.13,24.62,2.07,11.53,13.09,19.2,24.62,17.13,8.73-1.57,15.57-8.4,17.13-17.13h24.87c13.09-.01,23.7-10.63,23.71-23.72v-73.03c.08-2.07-1.54-3.81-3.61-3.88-2.07-.08-3.81,1.54-3.88,3.61,0,.09,0,.19,0,.28v39.34h-9.89c-14.45,0-26.18-11.71-26.18-26.17,0-12.55,8.9-23.33,21.22-25.7,2.03-.38,3.37-2.33,2.99-4.36-.08-.41-.22-.8-.42-1.15-5.82-10.43-2.08-23.6,8.35-29.41,8.07-4.5,18.1-3.38,24.98,2.79,1.54,1.39,3.91,1.27,5.29-.27.51-.56.84-1.27.94-2.02,2.95-22.98,23.97-39.22,46.96-36.27,22.98,2.95,39.22,23.97,36.27,46.96-.11.83-.24,1.65-.39,2.47-.23,1.23.17,2.49,1.07,3.36.89.89,2.17,1.26,3.39.98,18.79-3.96,37.24,8.07,41.19,26.86,3.96,18.79-8.07,37.24-26.86,41.19-2.36.5-4.77.75-7.19.75h-40.87v-39.34c.08-2.07-1.54-3.81-3.61-3.88-2.07-.08-3.81,1.54-3.88,3.61,0,.09,0,.19,0,.28v73.03c.01,13.08,10.6,23.69,23.68,23.72h24.87c2.08,11.52,13.1,19.17,24.62,17.09,11.52-2.08,19.17-13.1,17.09-24.62-1.82-10.1-10.62-17.44-20.89-17.43h.01Zm-204.67,34.95c-7.58,0-13.73-6.15-13.73-13.73s6.15-13.73,13.73-13.73,13.73,6.14,13.73,13.72c0,7.58-6.15,13.73-13.73,13.73Zm82.91-160.66c-13.92-8.01-31.71-3.21-39.71,10.71-4.29,7.47-5.06,16.45-2.09,24.54-9.67,3.34-17.3,10.9-20.74,20.54h-6.42c-15.28,0-27.67-12.39-27.67-27.67s12.39-27.67,27.67-27.67c1.9,0,3.8.21,5.66.61,1.22.25,2.49-.12,3.39-.98.9-.87,1.31-2.13,1.08-3.37-.39-2.04-.59-4.1-.6-6.18-.03-18.51,14.95-33.54,33.46-33.56,16.23-.03,30.14,11.58,33.03,27.55-3.24,4.71-5.63,9.95-7.07,15.49Zm121.76,160.66c-7.58,0-13.73-6.15-13.73-13.73s6.15-13.73,13.73-13.73,13.73,6.14,13.73,13.72c0,7.58-6.15,13.73-13.73,13.73Z"/>
    <path class="cls-1" d="m503.81,530.99v-97.13c0-2.07-1.68-3.74-3.74-3.74s-3.74,1.68-3.74,3.74v97.13c-11.53,2.07-19.21,13.09-17.14,24.62,2.07,11.53,13.09,19.21,24.62,17.14,11.53-2.07,19.21-13.09,17.14-24.62-1.57-8.74-8.4-15.57-17.14-17.14Zm-3.74,34.56c-7.58,0-13.72-6.15-13.72-13.73,0-7.58,6.15-13.72,13.73-13.72,7.58,0,13.72,6.15,13.72,13.73h0c-.01,7.58-6.16,13.71-13.73,13.72Z"/>
  </g>
  <g>
    <circle class="cls-1" cx="756.96" cy="238.68" r="1.49"/>
    <path class="cls-1" d="m798.5,160.05h-83.09c-4.1,0-7.41,3.32-7.42,7.42v71.22c0,4.1,3.32,7.41,7.42,7.42h22.26v8.9h-10.39c-.82,0-1.49.66-1.49,1.49s.66,1.49,1.49,1.49h59.35c.82,0,1.49-.66,1.49-1.49s-.66-1.49-1.49-1.49h-10.39v-8.9h22.26c4.1,0,7.42-3.32,7.42-7.42v-71.22c0-4.1-3.32-7.42-7.42-7.42Zm-87.54,7.42c0-2.46,1.99-4.45,4.45-4.46h83.09c2.46,0,4.45,2,4.45,4.46v63.8h-9.89v-30.08c0-.82-.66-1.49-1.49-1.49s-1.49.66-1.49,1.49v30.08h-10.88v-37.99c0-.82-.66-1.49-1.49-1.49s-1.49.66-1.49,1.49v37.99h-10.88v-29.09c.03-.82-.61-1.51-1.43-1.54-.82-.03-1.51.61-1.54,1.43,0,.04,0,.07,0,.11v29.09h-10.88v-20.18c-.03-.82-.72-1.46-1.54-1.43-.78.03-1.4.65-1.43,1.43v20.18h-10.88v-24.14c-.03-.82-.72-1.46-1.54-1.43-.78.03-1.4.65-1.43,1.43v24.14h-10.88v-16.23c-.03-.82-.72-1.46-1.54-1.43-.78.03-1.4.65-1.43,1.43v16.23h-9.89v-63.8h0Zm62.32,87.54h-32.64v-8.9h32.64v8.9Zm29.68-16.32c0,2.46-2,4.45-4.45,4.45h-83.09c-2.46,0-4.45-1.99-4.45-4.45v-4.45h91.99v4.45h0Z"/>
    <path class="cls-1" d="m736.59,193.83c-.38-.11-.8-.06-1.14.14l-13.85,7.9c-.71.4-.96,1.31-.56,2.02.26.46.76.75,1.29.75.26,0,.51-.07.73-.2l13.31-7.6,13.25,3.81c.41.12.86.05,1.21-.19l26.93-17.32,13.07,7.47c.71.41,1.62.16,2.02-.55s.16-1.62-.55-2.02h0l-13.84-7.91c-.48-.28-1.07-.26-1.54.04l-27.13,17.45-13.2-3.77Z"/>
    <path class="cls-1" d="m737.73,184.95h12.3c.82,0,1.49-.66,1.49-1.49s-.66-1.49-1.49-1.49h-12.3c-.82,0-1.49.66-1.49,1.49s.66,1.49,1.49,1.49Z"/>
    <path class="cls-1" d="m722.33,184.95h7.49c.82,0,1.49-.66,1.49-1.49s-.66-1.49-1.49-1.49h-7.49c-.82,0-1.49.66-1.49,1.49s.66,1.49,1.49,1.49Z"/>
    <path class="cls-1" d="m748.28,175.06h15.6c.82,0,1.49-.66,1.49-1.48s-.66-1.49-1.48-1.49h-15.6c-.82,0-1.48.67-1.48,1.49,0,.82.66,1.48,1.48,1.48Z"/>
    <path class="cls-1" d="m722.33,175.06h18.03c.82,0,1.48-.67,1.48-1.49,0-.82-.66-1.48-1.48-1.48h-18.03c-.82,0-1.48.67-1.48,1.49,0,.82.66,1.48,1.48,1.48Z"/>
  </g>
  <g>
    <path class="cls-1" d="m894.96,402.23h-34.29c-.79,0-1.43.64-1.43,1.43,0,.38.15.74.42,1.01l9.79,9.8c-2.26,4.89-16.22,30.81-66.51,52.66-.72.31-1.06,1.15-.74,1.88.23.52.74.86,1.31.86.07,0,.13,0,.2-.02,57-8.12,76.71-33.27,81.07-40.06l9.18,9.18c.56.56,1.46.55,2.02,0,.27-.27.42-.63.42-1.01v-34.29c0-.79-.63-1.43-1.42-1.44,0,0,0,0,0,0Zm-1.43,32.28l-8.04-8.04c-.33-.32-.78-.46-1.23-.39-.45.07-.84.35-1.05.76-.15.29-14.78,27.7-69.34,38.41,48.3-23.58,58.2-49.45,58.62-50.61.19-.52.06-1.11-.33-1.5l-8.04-8.04h29.42v29.41Z"/>
    <path class="cls-1" d="m894.96,493.69h-90.02v-13.81c0-.79-.64-1.43-1.43-1.43-.79,0-1.43.64-1.43,1.43,0,0,0,0,0,0v15.24c0,.79.64,1.43,1.43,1.43h91.46c.79,0,1.43-.64,1.43-1.43,0-.79-.64-1.43-1.43-1.43,0,0,0,0,0,0Z"/>
    <path class="cls-1" d="m820.18,487.5v-10.38c.03-.79-.59-1.45-1.38-1.48-.79-.03-1.45.59-1.48,1.38,0,.04,0,.07,0,.11v10.38c.03.79.69,1.41,1.48,1.38.75-.03,1.35-.63,1.38-1.38Z"/>
    <path class="cls-1" d="m835.43,487.5v-14.5c0-.79-.64-1.43-1.43-1.43s-1.43.64-1.43,1.43v14.5c0,.79.64,1.43,1.43,1.43s1.43-.64,1.43-1.43h0Z"/>
    <path class="cls-1" d="m850.67,487.5v-20.4c0-.79-.64-1.43-1.43-1.43-.79,0-1.43.64-1.43,1.43v20.4c0,.79.64,1.43,1.43,1.43.79,0,1.43-.64,1.43-1.43Z"/>
    <path class="cls-1" d="m865.91,487.5v-28.88c-.03-.79-.69-1.41-1.48-1.38-.75.03-1.35.63-1.38,1.38v28.88c.03.79.69,1.41,1.48,1.38.75-.03,1.35-.63,1.38-1.38Z"/>
    <path class="cls-1" d="m881.15,487.5v-39.36c-.03-.79-.69-1.41-1.48-1.38-.75.03-1.35.63-1.38,1.38v39.36c.03.79.69,1.41,1.48,1.38.75-.03,1.35-.63,1.38-1.38Z"/>
    <path class="cls-1" d="m894.96,446.71c-.79,0-1.43.64-1.43,1.43h0v39.36c.04.79.71,1.39,1.5,1.35.73-.04,1.32-.62,1.35-1.35v-39.36c0-.79-.64-1.43-1.43-1.43h0Z"/>
    <path class="cls-1" d="m803.51,458.44c.79,0,1.43-.64,1.43-1.43h0v-11.9h6.19c.79,0,1.43-.64,1.43-1.43,0-.79-.64-1.43-1.43-1.43h-6.19v-10.48h6.19c.79,0,1.43-.64,1.43-1.43s-.64-1.43-1.43-1.43h-6.19v-10.48h6.19c.79,0,1.43-.64,1.43-1.43,0-.79-.64-1.43-1.43-1.43h-6.19v-10.48h6.19c.79,0,1.43-.64,1.43-1.43,0-.79-.64-1.43-1.43-1.43,0,0,0,0,0,0h-7.62c-.79,0-1.43.64-1.43,1.43,0,0,0,0,0,0v53.34c0,.79.64,1.44,1.43,1.44,0,0,0,0,0,0Z"/>
  </g>
  <g>
    <path class="cls-1" d="m807.27,650.71c-7.72-17.29-24.07-29.16-42.9-31.15-.88-.09-1.67.56-1.76,1.44,0,.05,0,.11,0,.16v48.03c0,.57.31,1.11.8,1.39l41.59,24.02c.24.14.52.22.8.22.17,0,.34-.03.5-.08.43-.14.79-.47.97-.88,6.12-13.74,6.12-29.43,0-43.16h0Zm-2.23,40.2l-39.23-22.64v-45.29c27.23,3.84,46.2,29.03,42.35,56.27-.56,4-1.62,7.92-3.13,11.67h0Z"/>
    <path class="cls-1" d="m801.25,701.1l-46.15-26.64v-53.29c0-.89-.71-1.61-1.6-1.62-.06,0-.11,0-.17,0-29.12,3.05-50.25,29.12-47.21,58.24.57,5.46,1.99,10.8,4.2,15.83.02.08.05.17.09.25,1.51,3.38,3.36,6.58,5.54,9.57.04.06.1.12.15.18,8.84,12.05,22.36,19.82,37.23,21.39,3.67.39,7.37.39,11.04,0,14.95-1.57,28.53-9.42,37.37-21.58.27-.37.37-.83.27-1.28-.09-.45-.37-.83-.77-1.06Zm-37.21,20.73c-17.69,1.85-35.03-5.88-45.48-20.27-.05-.06-.09-.12-.15-.17-1.94-2.69-3.6-5.56-4.97-8.58-.02-.08-.05-.16-.09-.24-11.19-25.14.13-54.58,25.26-65.77,4.22-1.88,8.69-3.16,13.26-3.81v52.41c0,.57.31,1.11.8,1.39l45.37,26.19c-8.32,10.64-20.6,17.44-34.03,18.85Z"/>
    <path class="cls-1" d="m750.2,693.22c0,.89.72,1.6,1.61,1.61h15.8c.89,0,1.61-.72,1.61-1.61s-.72-1.61-1.61-1.61h-15.8c-.89,0-1.61.72-1.61,1.61h0Z"/>
    <path class="cls-1" d="m733.86,694.82h9.37c.89,0,1.61-.72,1.61-1.61s-.72-1.61-1.61-1.61h-9.37c-.89,0-1.61.72-1.61,1.61s.72,1.61,1.61,1.61Z"/>
    <path class="cls-1" d="m767.6,702.32h-33.73c-.89,0-1.61.72-1.61,1.6,0,.89.72,1.61,1.6,1.61h33.74c.89,0,1.61-.72,1.61-1.6,0-.89-.72-1.61-1.6-1.61h0Z"/>
    <path class="cls-1" d="m767.6,713.03h-14.45c-.89,0-1.61.72-1.61,1.6,0,.89.72,1.61,1.6,1.61h14.46c.89,0,1.61-.72,1.61-1.6,0-.89-.72-1.61-1.6-1.61h0Z"/>
    <path class="cls-1" d="m794.46,644.76h-5.08c-.89,0-1.61.72-1.61,1.61s.72,1.61,1.61,1.61h5.08c.89,0,1.61-.72,1.61-1.61s-.72-1.61-1.61-1.61h0Z"/>
    <path class="cls-1" d="m773.58,647.97h7.23c.89,0,1.61-.72,1.61-1.61s-.72-1.61-1.61-1.61h-7.23c-.89,0-1.61.72-1.61,1.61s.72,1.61,1.61,1.61Z"/>
    <path class="cls-1" d="m794.46,655.47h-20.88c-.89,0-1.61.72-1.61,1.61s.72,1.61,1.61,1.61h20.88c.89,0,1.61-.72,1.61-1.61s-.72-1.61-1.61-1.61Z"/>
    <path class="cls-1" d="m794.46,666.18h-5.89c-.89,0-1.61.72-1.61,1.61,0,.89.72,1.61,1.61,1.61h5.89c.89,0,1.61-.72,1.61-1.61,0-.89-.72-1.61-1.61-1.61h0Z"/>
  </g>
  <g>
    <path class="cls-1" d="m536.83,803.19l-13.99-14.01c-.65-.61-1.67-.61-2.32,0l-1.16,1.16-7.45-7.45c12.87-20.12,7-46.86-13.12-59.73-6.97-4.46-15.06-6.82-23.33-6.82h0c-23.89,0-43.25,19.35-43.26,43.24,0,23.89,19.35,43.25,43.24,43.26,8.25,0,16.34-2.36,23.29-6.8l7.45,7.45-1.16,1.16c-.64.64-.64,1.68,0,2.32l14.01,14.01c4.92,4.92,12.89,4.92,17.8,0,4.92-4.92,4.92-12.89,0-17.8h0Zm-89.65-15.3c-15.62-15.61-15.63-40.92-.02-56.54,7.5-7.51,17.68-11.72,28.29-11.72h0c22.08,0,39.98,17.9,39.97,39.98,0,22.08-17.9,39.98-39.98,39.97-10.6,0-20.76-4.21-28.26-11.7Zm54.27,6.25c1.62-1.2,3.15-2.51,4.59-3.93,1.41-1.44,2.73-2.97,3.93-4.59l7.05,7.05-8.52,8.51-7.05-7.04Zm8.22,10.53l10.83-10.83,1.16-1.16,10.76,10.76-13.16,13.16-10.76-10.76,1.17-1.17Zm24.82,14.01c-3.53,3.55-9.25,3.64-12.9.21l13.12-13.12c3.43,3.65,3.33,9.37-.23,12.9h0Z"/>
    <path class="cls-1" d="m502.8,757.98c-.91,0-1.64.74-1.64,1.64,0,14.2-11.51,25.71-25.71,25.71-14.2,0-25.71-11.51-25.71-25.71,0-14.2,11.51-25.71,25.71-25.71,5.32,0,10.51,1.65,14.85,4.72.74.52,1.76.35,2.29-.39s.35-1.76-.39-2.29c-13.07-9.25-31.17-6.16-40.42,6.92-9.25,13.07-6.16,31.17,6.92,40.42,13.07,9.25,31.17,6.16,40.42-6.92,3.47-4.9,5.33-10.75,5.33-16.75,0-.9-.72-1.64-1.63-1.65,0,0,0,0,0,0Z"/>
    <path class="cls-1" d="m462,748.88c-.64-.64-1.68-.64-2.32,0-.31.31-.48.72-.48,1.16v13.64c0,.44.17.85.48,1.16l14.18,14.18c.64.64,1.68.64,2.32,0l27.63-27.63c.31-.31.48-.72.48-1.16v-13.64c0-.91-.73-1.64-1.64-1.64-.44,0-.86.17-1.17.48l-26.47,26.47-13.02-13.02Zm39.02-8.33v9l-25.99,25.99-12.55-12.54v-9l11.39,11.38c.64.64,1.68.64,2.32,0l24.83-24.83Z"/>
  </g>
  <g>
    <rect class="cls-1" x="177.23" y="660.22" width="3.58" height="58.37"/>
    <rect class="cls-1" x="208.17" y="660.22" width="3.58" height="24.3"/>
    <path class="cls-1" d="m212.64,663.13h-36.29v-12.71h36.29v12.71Zm-32.71-3.58h29.14v-5.56h-29.14v5.56Z"/>
    <g>
      <g>
        <rect class="cls-1" x="184.07" y="667.27" width="4.15" height="3.58"/>
        <rect class="cls-1" x="192.35" y="667.27" width="4.15" height="3.58"/>
        <rect class="cls-1" x="200.64" y="667.27" width="4.15" height="3.58"/>
      </g>
      <g>
        <rect class="cls-1" x="184.07" y="675.11" width="4.15" height="3.58"/>
        <rect class="cls-1" x="192.35" y="675.11" width="4.15" height="3.58"/>
        <rect class="cls-1" x="200.64" y="675.11" width="4.15" height="3.58"/>
      </g>
      <rect class="cls-1" x="184.07" y="682.95" width="4.15" height="3.58"/>
      <rect class="cls-1" x="184.07" y="690.79" width="4.15" height="3.58"/>
      <rect class="cls-1" x="184.07" y="698.63" width="4.15" height="3.58"/>
      <rect class="cls-1" x="184.07" y="706.47" width="4.15" height="3.58"/>
    </g>
    <rect class="cls-1" x="242.19" y="660.22" width="3.58" height="23.93"/>
    <rect class="cls-1" x="273.13" y="660.22" width="3.58" height="58.37"/>
    <path class="cls-1" d="m277.59,663.13h-36.29v-12.71h36.29s0,12.71,0,12.71Zm-32.71-3.58h29.14v-5.56h-29.14v5.56Z"/>
    <g>
      <g>
        <rect class="cls-1" x="249.02" y="667.27" width="4.15" height="3.58"/>
        <rect class="cls-1" x="257.31" y="667.27" width="4.15" height="3.58"/>
        <rect class="cls-1" x="265.59" y="667.27" width="4.15" height="3.58"/>
      </g>
      <g>
        <rect class="cls-1" x="249.02" y="675.11" width="4.15" height="3.58"/>
        <rect class="cls-1" x="257.31" y="675.11" width="4.15" height="3.58"/>
        <rect class="cls-1" x="265.59" y="675.11" width="4.15" height="3.58"/>
      </g>
      <rect class="cls-1" x="265.59" y="682.95" width="4.15" height="3.58"/>
      <rect class="cls-1" x="265.59" y="690.79" width="4.15" height="3.58"/>
      <rect class="cls-1" x="265.59" y="698.63" width="4.15" height="3.58"/>
      <rect class="cls-1" x="265.59" y="706.47" width="4.15" height="3.58"/>
    </g>
    <rect class="cls-1" x="168.9" y="716.8" width="113.78" height="3.58"/>
    <path class="cls-1" d="m260.6,720.37h-69.46v-37.55h69.46v37.55Zm-65.89-3.58h62.31v-30.39h-62.31s0,30.39,0,30.39Z"/>
    <polygon class="cls-1" points="252.02 718.48 248.44 718.48 248.44 703.94 205.54 703.94 205.54 718.48 201.97 718.48 201.97 700.36 252.02 700.36 252.02 718.48"/>
    <rect class="cls-1" x="201.01" y="725.37" width="52.19" height="3.58"/>
    <rect class="cls-1" x="191.68" y="733.96" width="70.85" height="3.58"/>
    <rect class="cls-1" x="225.31" y="701.3" width="3.58" height="16.8"/>
    <rect class="cls-1" x="192.95" y="691.04" width="65.84" height="3.58"/>
    <g>
      <path class="cls-1" d="m259.37,644.61c-.3-.47-.62-.93-.94-1.39l2.92-2.06c.35.5.7,1.01,1.03,1.53l-3.01,1.93Z"/>
      <path class="cls-1" d="m195.87,641.48l-2.8-2.22c.74-.94,1.54-1.85,2.36-2.73l2.61,2.45c-.75.8-1.48,1.64-2.16,2.5Zm60.58-.84c-.71-.84-1.45-1.66-2.22-2.44l2.54-2.52c.84.85,1.66,1.74,2.43,2.66l-2.74,2.3Zm-56.06-3.97l-2.39-2.66c.89-.8,1.82-1.57,2.78-2.29l2.16,2.85c-.87.66-1.73,1.37-2.55,2.1Zm51.41-.71c-.84-.71-1.71-1.4-2.6-2.03l2.08-2.91c.97.69,1.93,1.44,2.84,2.22l-2.32,2.72Zm-46.15-3.27l-1.91-3.02c1.01-.64,2.06-1.25,3.12-1.8l1.65,3.17c-.97.5-1.93,1.06-2.86,1.65Zm40.78-.57c-.94-.56-1.92-1.09-2.9-1.57l1.56-3.22c1.08.52,2.14,1.1,3.17,1.71l-1.83,3.07Zm-34.93-2.48l-1.38-3.3c1.11-.46,2.24-.88,3.38-1.24l1.09,3.41c-1.04.33-2.09.72-3.1,1.14Zm29-.4c-1.02-.39-2.07-.75-3.13-1.05l.99-3.44c1.15.33,2.3.72,3.42,1.15l-1.28,3.34Zm-22.72-1.61l-.79-3.49c1.17-.27,2.36-.48,3.55-.65l.5,3.54c-1.09.15-2.18.35-3.25.6Zm16.39-.22c-1.07-.21-2.17-.38-3.26-.51l.4-3.55c1.19.13,2.39.32,3.56.55l-.7,3.51Zm-9.86-.69l-.2-3.57c.8-.04,1.63-.05,2.42-.07.39,0,.79,0,1.18.02l-.1,3.57c-.37,0-.71,0-1.12-.02-.73,0-1.47.02-2.19.06Z"/>
      <path class="cls-1" d="m193.63,644.61l-3-1.94c.33-.51.67-1.02,1.02-1.52l2.92,2.06c-.32.46-.64.93-.95,1.4Z"/>
    </g>
  </g>
  <g>
    <rect class="cls-1" x="105.89" y="488.54" width="59.4" height="3.76"/>
    <rect class="cls-1" x="105.89" y="406.77" width="59.4" height="3.76"/>
    <rect class="cls-1" x="125.51" y="398.1" width="20.16" height="3.76"/>
    <rect class="cls-1" x="132.94" y="496.75" width="5.29" height="3.76"/>
    <rect class="cls-1" x="133.01" y="463.06" width="5.14" height="3.76"/>
    <g>
      <path class="cls-1" d="m107.9,442.07l-2.63-2.68c16.72-16.41,43.92-16.41,60.65,0l-2.63,2.68c-15.27-14.98-40.11-14.98-55.38,0Z"/>
      <path class="cls-1" d="m116.41,450.43l-2.63-2.68c12.02-11.8,31.58-11.8,43.61,0l-2.63,2.68c-10.57-10.37-27.76-10.37-38.34,0Z"/>
      <path class="cls-1" d="m125.39,459.24l-2.63-2.68c7.07-6.94,18.59-6.95,25.66,0l-2.63,2.68c-5.62-5.52-14.77-5.51-20.39,0Z"/>
    </g>
    <g>
      <path class="cls-1" d="m161.98,510.16h-52.8c-3.12,0-5.65-2.5-5.65-5.58v-58.71h3.76v58.71c0,1,.85,1.82,1.89,1.82h52.8c1.04,0,1.89-.82,1.89-1.82v-58.71h3.76v58.71c0,3.08-2.54,5.58-5.65,5.58Z"/>
      <path class="cls-1" d="m167.63,430.77h-3.76v-35.36c0-1-.85-1.82-1.89-1.82h-52.8c-1.04,0-1.89.82-1.89,1.82v35.36h-3.76v-35.36c0-3.08,2.53-5.58,5.65-5.58h52.8c3.11,0,5.65,2.5,5.65,5.58v35.36Z"/>
    </g>
  </g>
  <g>
    <g>
      <path class="cls-1" d="m491.7,165.29c-22.38,0-40.59-18.37-40.59-40.96s18.21-40.95,40.59-40.95,40.6,18.37,40.6,40.95-18.21,40.96-40.6,40.96Zm0-78.13c-20.3,0-36.82,16.68-36.82,37.18s16.52,37.18,36.82,37.18,36.82-16.68,36.82-37.18-16.52-37.18-36.82-37.18Z"/>
      <path class="cls-1" d="m491.7,165.29c-13.62,0-24.28-17.99-24.28-40.96s10.66-40.95,24.28-40.95,24.27,17.99,24.27,40.95-10.66,40.96-24.27,40.96Zm0-78.13c-11.31,0-20.5,16.68-20.5,37.18s9.2,37.18,20.5,37.18,20.49-16.68,20.49-37.18-9.19-37.18-20.49-37.18Z"/>
      <path class="cls-1" d="m491.7,165.29h-1.89v-81.91h1.89c22.38,0,40.6,18.37,40.6,40.95s-18.21,40.96-40.6,40.96Zm1.89-78.08v74.26c19.43-1,34.93-17.27,34.93-37.13s-15.5-36.13-34.93-37.13Z"/>
      <path class="cls-1" d="m529.19,140h-75l-.46-1.23c-1.75-4.69-2.63-9.54-2.63-14.43s.89-9.74,2.64-14.43l.46-1.23h74.99l.46,1.23c1.75,4.69,2.64,9.54,2.64,14.43s-.89,9.75-2.64,14.43l-.46,1.23Zm-72.35-3.78h69.71c1.31-3.88,1.97-7.87,1.97-11.88s-.66-8-1.97-11.88h-69.71c-1.3,3.88-1.96,7.87-1.96,11.88s.66,8,1.96,11.88Z"/>
    </g>
    <path class="cls-1" d="m491.73,184.76c-1.3,0-2.61-.04-3.89-.13l.25-3.77c2.39.16,4.87.16,7.28,0l.24,3.77c-1.28.08-2.58.12-3.87.12Zm7.75-.5l-.49-3.75c1.21-.16,2.42-.36,3.6-.59l.73,3.7c-1.26.25-2.56.46-3.85.63Zm-15.52,0c-1.28-.17-2.57-.38-3.85-.63l.73-3.7c1.2.24,2.41.44,3.6.59l-.49,3.75Zm23.16-1.51l-.97-3.65c1.16-.31,2.34-.67,3.49-1.06l1.21,3.58c-1.23.42-2.49.8-3.73,1.13Zm-30.81,0c-1.24-.33-2.5-.71-3.73-1.13l1.21-3.58c1.15.39,2.33.75,3.49,1.06l-.98,3.65Zm38.18-2.5l-1.45-3.49c1.12-.46,2.23-.97,3.32-1.51l1.67,3.39c-1.16.57-2.35,1.12-3.55,1.61Zm-45.57,0c-1.19-.49-2.38-1.04-3.55-1.61l1.67-3.39c1.09.54,2.21,1.05,3.33,1.51l-1.45,3.49Zm52.55-3.44l-1.89-3.27c1.05-.61,2.09-1.25,3.1-1.93l2.1,3.14c-1.08.72-2.19,1.41-3.31,2.06Zm-59.54-.01c-1.12-.65-2.23-1.34-3.31-2.06l2.1-3.14c1.01.68,2.05,1.33,3.1,1.93l-1.89,3.27Zm66.01-4.32l-2.3-2.99c.96-.74,1.91-1.52,2.82-2.32l2.49,2.84c-.97.85-1.99,1.68-3.01,2.47Zm-72.49-.02c-1.02-.78-2.03-1.61-3.01-2.47l2.49-2.84c.92.81,1.87,1.59,2.82,2.32l-2.3,2.99Zm78.34-5.12l-2.67-2.67c.86-.86,1.7-1.75,2.5-2.66l2.83,2.5c-.86.97-1.75,1.93-2.67,2.84Zm-84.2-.02c-.91-.91-1.81-1.87-2.67-2.84l2.83-2.5c.8.91,1.64,1.81,2.5,2.66l-2.67,2.67Zm89.35-5.83l-2.99-2.31c.74-.96,1.46-1.96,2.14-2.96l3.13,2.11c-.73,1.08-1.49,2.14-2.28,3.16Zm-94.5-.01c-.79-1.02-1.56-2.08-2.28-3.16l3.13-2.11c.68,1,1.4,2,2.14,2.96l-2.99,2.31Zm-4.35-6.45c-.65-1.11-1.28-2.26-1.86-3.42l3.37-1.69c.55,1.09,1.13,2.17,1.74,3.21l-3.26,1.91Zm103.21,0l-3.26-1.9c.62-1.05,1.2-2.14,1.74-3.22l3.38,1.69c-.58,1.15-1.2,2.3-1.86,3.43Zm-106.7-6.95c-.5-1.19-.98-2.41-1.4-3.63l3.56-1.25c.4,1.15.84,2.29,1.32,3.41l-3.48,1.47Zm110.2-.02l-3.48-1.47c.47-1.12.92-2.27,1.32-3.41l3.57,1.24c-.42,1.22-.89,2.44-1.4,3.64Zm-112.77-7.33c-.35-1.24-.66-2.52-.92-3.78l3.7-.78c.25,1.19.54,2.38.87,3.55l-3.64,1.01Zm115.33-.03l-3.64-1.01c.32-1.17.61-2.36.86-3.55l3.7.77c-.27,1.27-.57,2.54-.92,3.79Zm-116.93-7.59c-.18-1.28-.33-2.58-.43-3.87l3.76-.3c.1,1.21.23,2.43.41,3.63l-3.74.54Zm118.53-.03l-3.74-.54c.17-1.2.31-2.42.4-3.63l3.76.3c-.1,1.29-.25,2.6-.43,3.87Zm-119.15-7.73c0-.34,0-.67,0-1.01,0-.96.02-1.93.07-2.88l3.77.18c-.04.89-.06,1.8-.06,2.71,0,.32,0,.63,0,.95l-3.78.06Zm119.76-.03l-3.78-.06c0-.31,0-.61,0-.92,0-.91-.02-1.83-.06-2.73l3.77-.18c.05.96.07,1.94.07,2.91,0,.33,0,.65,0,.98Zm-115.64-7.33l-3.75-.42c.14-1.29.33-2.59.55-3.85l3.72.65c-.21,1.19-.38,2.41-.52,3.62Zm111.52-.03c-.13-1.21-.31-2.43-.52-3.62l3.72-.65c.22,1.27.41,2.57.55,3.85l-3.75.42Zm-110.26-7.16l-3.67-.89c.3-1.26.66-2.52,1.04-3.75l3.6,1.13c-.36,1.16-.69,2.34-.98,3.52Zm108.99-.03c-.29-1.18-.61-2.36-.98-3.52l3.6-1.13c.39,1.24.74,2.5,1.04,3.75l-3.67.89Zm-106.81-6.94l-3.52-1.36c.47-1.21.98-2.42,1.52-3.59l3.43,1.58c-.51,1.1-.99,2.24-1.43,3.37Zm104.63-.03c-.44-1.13-.91-2.26-1.42-3.36l3.43-1.58c.54,1.17,1.05,2.38,1.51,3.58l-3.52,1.36Zm-101.57-6.61l-3.32-1.8c.62-1.14,1.28-2.27,1.97-3.36l3.2,2.01c-.65,1.03-1.27,2.09-1.85,3.16Zm98.51-.01c-.58-1.07-1.2-2.13-1.84-3.15l3.2-2.01c.69,1.09,1.35,2.22,1.96,3.36l-3.32,1.8Zm-94.62-6.18l-3.06-2.21c.76-1.05,1.56-2.08,2.38-3.08l2.91,2.41c-.77.94-1.53,1.91-2.24,2.89Zm90.74,0c-.71-.98-1.46-1.96-2.23-2.89l2.91-2.4c.82,1,1.62,2.04,2.38,3.08l-3.06,2.21Zm-86.09-5.63l-2.75-2.59c.89-.94,1.82-1.87,2.76-2.75l2.58,2.76c-.88.83-1.75,1.7-2.59,2.58Zm81.44,0c-.83-.89-1.7-1.75-2.59-2.58l2.58-2.76c.94.88,1.87,1.81,2.76,2.75l-2.75,2.59Zm-76.11-4.98l-2.4-2.92c1-.82,2.04-1.62,3.09-2.37l2.2,3.07c-.98.71-1.96,1.45-2.9,2.22Zm70.78,0c-.94-.77-1.92-1.52-2.9-2.23l2.2-3.07c1.05.75,2.09,1.55,3.09,2.38l-2.4,2.92Zm-64.85-4.25l-2-3.21c1.09-.68,2.23-1.34,3.37-1.95l1.79,3.33c-1.07.57-2.13,1.19-3.16,1.83Zm58.91,0c-1.04-.64-2.1-1.26-3.16-1.83l1.79-3.33c1.13.61,2.27,1.27,3.37,1.95l-2,3.2Zm-52.49-3.43l-1.56-3.44c1.18-.54,2.39-1.04,3.6-1.49l1.33,3.53c-1.13.43-2.26.9-3.37,1.4Zm46.05-.02c-1.1-.5-2.23-.97-3.37-1.4l1.33-3.53c1.22.46,2.43.96,3.61,1.5l-1.56,3.44Zm-39.23-2.56l-1.1-3.61c1.24-.38,2.51-.72,3.76-1.01l.86,3.68c-1.18.27-2.36.59-3.52.94Zm32.39-.02c-1.16-.35-2.35-.67-3.53-.94l.85-3.68c1.26.29,2.53.63,3.77,1.01l-1.1,3.61Zm-25.28-1.64l-.61-3.73c1.28-.21,2.58-.38,3.86-.51l.37,3.76c-1.21.12-2.43.28-3.62.48Zm18.18-.01c-1.2-.2-2.41-.35-3.62-.47l.37-3.76c1.29.12,2.59.29,3.86.5l-.61,3.73Zm-10.92-.7l-.12-3.77c1.29-.04,2.6-.04,3.9,0l-.12,3.77c-1.21-.04-2.44-.04-3.65,0Z"/>
  </g>
  <g>
    <g>
      <path class="cls-1" d="m248.84,215.33c-1.27,0-2.3-1.03-2.3-2.3,0-4.23-3.44-7.66-7.66-7.66-1.27,0-2.3-1.03-2.3-2.3s1.03-2.3,2.3-2.3c6.76,0,12.26,5.5,12.26,12.26,0,1.27-1.03,2.3-2.3,2.3Z"/>
      <path class="cls-1" d="m268.76,215.33c-1.27,0-2.3-1.03-2.3-2.3,0-15.21-12.38-27.59-27.59-27.59-1.27,0-2.3-1.03-2.3-2.3s1.03-2.3,2.3-2.3c17.75,0,32.18,14.44,32.18,32.18,0,1.27-1.03,2.3-2.3,2.3Z"/>
      <path class="cls-1" d="m258.8,215.33c-1.27,0-2.3-1.03-2.3-2.3,0-9.72-7.91-17.62-17.62-17.62-1.27,0-2.3-1.03-2.3-2.3s1.03-2.3,2.3-2.3c12.25,0,22.22,9.97,22.22,22.22,0,1.27-1.03,2.3-2.3,2.3Z"/>
    </g>
    <path class="cls-1" d="m266.62,235.56h-11.02l-7.08-13.48c-.4-.76-1.18-1.23-2.04-1.23h-4.39v-6.28c0-1.27-1.03-2.3-2.3-2.3h-81.53c-1.27,0-2.3,1.03-2.3,2.3v6.28h-4.39c-.85,0-1.64.47-2.04,1.23l-7.08,13.48h-11.02c-1.27,0-2.3,1.03-2.3,2.3s1.03,2.3,2.3,2.3h135.18c1.27,0,2.3-1.03,2.3-2.3,0-1.27-1.03-2.3-2.3-2.3Zm-106.06-18.7h76.94v3.98h-76.94v-3.98Zm-12.9,18.7l5.31-10.12h92.12l5.31,10.12h-102.74Z"/>
  </g>
  <path class="cls-3" d="m213.19,200.91l-4.74,4.74c2.3-2.3,2.3-6.01,0-8.29l-8.65-8.65c-2.3-2.3-2.3-6.01,0-8.29l4.74-4.74c-2.3,2.3-2.3,6.01,0,8.29l8.65,8.65c2.3,2.27,2.3,5.99,0,8.29Zm-4.74,4.74h0Zm-12.28-14.94c-1.83-1.83-1.83-4.82,0-6.65l-3.8,3.8c-1.83,1.83-1.83,4.82,0,6.65l6.93,6.93c1.83,1.83,1.83,4.82,0,6.65h0l3.8-3.8h0c1.83-1.83,1.83-4.82,0-6.65l-6.93-6.93Zm-7.07,5.49c-1.41-1.41-1.41-3.69,0-5.1l-2.91,2.91c-1.41,1.41-1.41,3.69,0,5.1l5.29,5.29c1.41,1.41,1.41,3.69,0,5.1l2.91-2.91h0c1.41-1.41,1.41-3.69,0-5.1l-5.29-5.29Z"/>
</svg>