<?xml version="1.0" encoding="UTF-8"?>
<svg id="Layer_1" data-name="Layer 1" xmlns="http://www.w3.org/2000/svg" viewBox="0 0 867.75 434.67">
  <defs>
    <style>
      .cls-1 {
        fill: #175ed9;
      }
      
      .cls-2 {
        fill: #55e0e0;
      }

      .cls-3 {
        fill: none;
        stroke: #000;
        stroke-miterlimit: 10;
        stroke-width: 8px;
      }

      .cls-4 {
        fill: #9a5ae5;
      }
      
    </style>
  </defs>
  <g>
    <g>
      <path class="theme" d="m182.16,150.15c-2.35,8.9-9.42,17.18-25.33,17.18-18.12,0-26.86-12.54-26.86-26.39s9.63-26.49,27.52-26.49c15.53,0,23.28,8.64,24.76,17.12h-12.46c-1.04-2.9-3.78-7.57-12.44-7.57-9.48,0-14.41,7.22-14.41,16.48s4.5,17.37,14.49,17.37c7.21,0,10.38-2.8,12.36-7.7h12.38Z"/>
      <path class="theme" d="m230.77,147.62c0,11.45-7.92,19.64-21.73,19.64s-20.94-9.32-20.94-19.63,7.34-19.59,21.42-19.59,21.25,10.35,21.25,19.58Zm-30.7,0c0,5.79,3.21,10.76,9.37,10.76s9.23-4.89,9.23-10.57-2.79-10.9-9.32-10.9-9.28,4.97-9.28,10.71Z"/>
      <path class="theme" d="m238.54,138.44c0-3.15,0-6.72-.07-9.39h11.5c.14,1.05.28,3.3.34,4.81,1.7-2.57,5.1-5.81,12.35-5.81,9.16,0,14.59,5.67,14.59,15.27v22.95h-11.89v-21.07c0-4.26-1.65-8-6.94-8s-8.04,3.81-8.04,10.51v18.56h-11.83v-27.82Z"/>
      <path class="theme" d="m282.77,129.05h6.67v-10.96h11.83v10.96h8.61v8.54h-8.61v15.67c0,3.17.66,4.62,4.27,4.62,1.02,0,2.17,0,3.18-.23v8.07c-2.01.58-4.72.83-7.46.83-9.16,0-11.82-3.98-11.82-11.23v-17.73h-6.67v-8.54Z"/>
      <path class="theme" d="m353.34,155.83c0,4.84.22,9.63.3,10.43h-11.11c-.29-.89-.37-3.16-.43-4.2-2,3.22-6.28,5.21-13.28,5.21-10.18,0-14.29-6.2-14.29-12.15,0-9.77,8.55-12.48,19.52-12.48h7.79v-1.17c0-3.02-1.31-5.45-6.77-5.45-5.08,0-6.21,1.91-6.69,4.04h-11.77c.31-4.59,3.55-12.01,18.27-12.01,16.16,0,18.46,7.61,18.46,13.83v13.96Zm-11.5-5.75c-.85-.06-3.42-.06-7.59-.06-5.98,0-8.33,1.57-8.33,4.51,0,2.42,1.96,4.38,6.22,4.38,6.45,0,9.7-2.95,9.7-8.25v-.58Z"/>
      <path class="theme" d="m401.43,153.69c-1.5,7.03-7.55,13.58-19.76,13.58-14.33,0-20.64-9.01-20.64-19.68,0-10.07,7.17-19.54,20.66-19.54,14.74,0,19.05,9.62,19.49,13.74h-11.77c-.7-2.02-2.5-4.93-7.62-4.93-6.1,0-8.79,4.51-8.79,10.66s2.54,10.89,8.73,10.89c4.24,0,6.42-1.55,7.93-4.71h11.77Z"/>
      <path class="theme" d="m405.53,129.05h6.67v-10.96h11.83v10.96h8.61v8.54h-8.61v15.67c0,3.17.66,4.62,4.27,4.62,1.02,0,2.17,0,3.18-.23v8.07c-2.01.58-4.72.83-7.46.83-9.16,0-11.82-3.98-11.82-11.23v-17.73h-6.67v-8.54Z"/>
      <path class="theme" d="m473.08,115.54v28.67c0,10.79,5.66,13.51,11.89,13.51,6.63,0,11.07-2.86,11.07-13.51v-28.67h12.31v29.07c0,15.39-8.65,22.72-23.72,22.72s-23.86-6.71-23.86-22.45v-29.35h12.31Z"/>
      <path class="theme" d="m527.05,154.82c.94,2.66,3.43,4.41,8.45,4.41s6.42-1.56,6.42-3.32c0-2.08-1.63-3.1-9.07-4.12-14.18-2-16.15-7.24-16.15-11.77,0-5.63,4.28-11.97,17.19-11.97s17.74,6.19,18.28,11.53h-11.59c-.51-1.75-1.84-3.74-7.11-3.74-4.45,0-5.24,1.7-5.24,3.01,0,1.55,1.19,2.48,8.12,3.51,15.11,2.28,17.1,7.36,17.1,12.52,0,6.79-5.15,12.39-18.73,12.39-10.18,0-18.15-4.29-19.32-12.44h11.66Z"/>
    </g>
    <rect class="cls-3" x="88.24" y="83.98" width="505.78" height="119.11" rx="12" ry="12"/>
  </g>
  <g>
    <g>
      <path class="cls-2" d="m605.09,305.44c-2.27,2.27-5.94,2.27-8.21,0,0,0,0,0,0,0l-16.44-16.44c-2.27-2.27-2.27-5.94,0-8.21,0,0,0,0,0,0l8.22-8.22-16.44-16.41-12.43,12.31c-3.4,3.05-3.68,8.29-.62,11.69.2.22.41.43.62.62l22.59,22.59,22.59,22.59c2.02,2.45,5.33,3.39,8.33,2.38,1.48-.52,2.84-1.33,4.01-2.38l12.31-12.31-16.44-16.44-8.1,8.22Z"/>
      <path class="cls-2" d="m639.98,233.84h-91.93c-6.6,0-12,5.4-12,12v91.93c0,6.6,5.4,12,12,12h91.93c6.6,0,12-5.4,12-12v-91.93c0-6.6-5.4-12-12-12Zm-4.11,81.9l-14.52,14.37c-1.79,1.69-3.93,2.98-6.27,3.78-1.32.43-2.7.66-4.09.67-3.8-.09-7.4-1.71-9.99-4.5l-45.18-45.16c-3.99-3.57-5.48-9.17-3.8-14.26.79-2.34,2.08-4.48,3.78-6.27l14.37-14.52c1.16-1.11,3-1.06,4.11.09.02.02.03.03.05.05l20.53,20.53c1.13,1.13,1.13,2.96,0,4.09l-10.28,10.28,16.41,16.49,10.28-10.28c1.13-1.13,2.96-1.13,4.09,0l20.53,20.53c1.13,1.13,1.13,2.96,0,4.09Z"/>
    </g>
    <g>
      <polygon class="cls-4" points="431.03 270.51 431.03 314.48 456.66 288.82 431.03 270.51"/>
      <polygon class="cls-4" points="497.59 267.39 435.39 267.39 466.49 289.61 497.59 267.39"/>
      <path class="cls-4" d="m467.93,294.77c-.88.63-2.06.63-2.94,0l-4.15-2.96-26.24,26.24h63.77l-26.29-26.24-4.15,2.96Z"/>
      <polygon class="cls-4" points="501.94 314.48 501.94 270.51 476.31 288.82 501.94 314.48"/>
      <path class="cls-4" d="m512.45,234.76h-91.93c-6.6,0-12,5.4-12,12v91.93c0,6.6,5.4,12,12,12h91.93c6.6,0,12-5.4,12-12v-91.93c0-6.6-5.4-12-12-12Zm-5.44,80.76c0,4.2-3.4,7.6-7.6,7.6h-65.85c-4.2,0-7.6-3.4-7.6-7.6v-45.59c0-4.2,3.4-7.6,7.6-7.6h65.85c4.2,0,7.6,3.4,7.6,7.6v45.59Z"/>
    </g>
    <g>
      <path class="cls-1" d="m749.56,261.25h-56.02c-4.22,0-7.64,3.42-7.64,7.64v40.74c0,4.22,3.42,7.64,7.64,7.64h50.93c.68,0,1.33.28,1.81.76l10.92,10.92v-60.07c0-4.22-3.42-7.64-7.64-7.64Zm-15.28,45.84h-5.09v-10.19h-15.28v10.19h-5.09v-22.92c0-7.03,5.7-12.73,12.73-12.73s12.73,5.7,12.73,12.73v22.92Z"/>
      <path class="cls-1" d="m721.55,276.53c-4.22,0-7.64,3.42-7.64,7.64v7.64h15.28v-7.64c0-4.22-3.42-7.64-7.64-7.64Z"/>
      <path class="cls-1" d="m767.51,234.76h-91.93c-6.6,0-12,5.4-12,12v91.93c0,6.6,5.4,12,12,12h91.93c6.6,0,12-5.4,12-12v-91.93c0-6.6-5.4-12-12-12Zm-5.22,100.34c0,.66-.26,1.3-.73,1.77-.98,1-2.6,1.02-3.6.04l-14.54-14.54h-49.89c-7.03,0-12.73-5.7-12.73-12.73v-40.74c0-7.03,5.7-12.73,12.73-12.73h56.02c7.03,0,12.73,5.7,12.73,12.73v66.21Z"/>
    </g>
  </g>
</svg>