<?xml version="1.0" encoding="UTF-8" standalone="no"?>
<!DOCTYPE svg PUBLIC "-//W3C//DTD SVG 1.1//EN" "http://www.w3.org/Graphics/SVG/1.1/DTD/svg11.dtd">
<svg xmlns:xl="http://www.w3.org/1999/xlink" xmlns="http://www.w3.org/2000/svg" xmlns:dc="http://purl.org/dc/elements/1.1/" version="1.1" viewBox="432 220 100 100" width="100" height="100">
  <defs/>
  <g id="Canvas_1" fill="none" stroke="none" stroke-opacity="1" stroke-dasharray="none" fill-opacity="1">
    <title>Canvas 1</title>
    <g id="Canvas_1_Layer_1">
      <title>Layer 1</title>
      <g id="Group_2">
        <g id="Graphic_6">
          <circle cx="472.82546" cy="279.47454" r="15.4021501981269" fill="#1982fc"/>
        </g>
        <g id="Graphic_5">
          <path d="M 531.3 221 L 531.3 304.202 C 531.3 305.08104 531.22356 305.94096 531.0898 306.80088 C 530.57385 309.8775 529.15976 312.85854 526.8475 315.2281 C 520.92364 321.32397 511.29253 321.32397 505.34953 315.2281 C 503.0373 312.83943 501.6232 309.8775 501.10726 306.80088 C 500.9735 305.94096 500.89706 305.06193 500.89706 304.202 L 500.89706 269.767 C 500.89706 260.05947 492.6227 251.40294 483.1636 251.40294 L 447.0852 251.40294 C 443.1869 251.40294 439.9192 250.6768 436.95725 247.6384 C 431.01425 241.54253 431.01425 231.663 436.95725 225.58624 C 439.9192 222.54786 443.8175 221.0191 447.6967 221.0191 L 531.3 221.0191 Z" fill="#6d11a3"/>
        </g>
        <g id="Group_3">
          <g id="Graphic_4">
            <circle cx="447.9069" cy="304.3931" r="15.4021501981269" fill="#43cc47"/>
          </g>
        </g>
      </g>
    </g>
  </g>
</svg>
