<?xml version="1.0" encoding="UTF-8" standalone="no"?>
<!DOCTYPE svg PUBLIC "-//W3C//DTD SVG 1.1//EN" "http://www.w3.org/Graphics/SVG/1.1/DTD/svg11.dtd">
<svg xmlns:dc="http://purl.org/dc/elements/1.1/" xmlns:xl="http://www.w3.org/1999/xlink" xmlns="http://www.w3.org/2000/svg" version="1.1" viewBox="140 10 900 160.44">
  <defs/>
  <g id="Canvas_1" stroke-dasharray="none" stroke-opacity="1" fill-opacity="1" stroke="none" fill="none">
    <title>Canvas 1</title>
    <g id="Canvas_1_Layer_1">
      <title>Layer 1</title>
      <g id="Group_2">
        <g id="Group_7">
          <g id="Graphic_20">
            <path d="M 513.97 92.93 C 512.42 92.84 510.99 92.36 509.8 91.53 C 508.6 90.7 507.63 89.52 507.01 88.11 C 505.75 85.26 506.18 82.12 508.15 79.7 L 512.32 74.62 L 512.59 74.07 C 516.05 67.36 515.77 59.51 511.84 53.06 C 507.91 46.6 501.05 42.75 493.49 42.75 L 455.54 42.75 L 455.54 140.17 L 510.23 140.17 C 522.49 140.17 532.48 130.18 532.48 117.92 L 532.48 112.5 C 532.48 102.11 524.35 93.51 513.97 92.92 Z M 520.98 117.92 C 520.98 123.84 516.15 128.67 510.23 128.67 L 467.03 128.67 L 467.03 54.24 L 493.49 54.24 C 497.06 54.24 500.16 55.98 502.02 59.03 C 503.73 61.84 503.97 65.15 502.69 68.14 L 502.49 68.46 L 499.25 72.43 C 494.56 78.17 493.5 85.95 496.48 92.73 C 499.47 99.51 505.92 103.99 513.31 104.4 C 517.6 104.64 520.97 108.2 520.97 112.5 L 520.97 117.92 Z" fill="#0e3496"/>
          </g>
          <g id="Graphic_19">
            <path d="M 594.43 116.59 C 594.43 123.34 588.93 128.84 582.18 128.84 L 569.42 128.84 C 562.65 128.84 557.16 123.34 557.16 116.59 L 557.16 72.01 L 546 72.01 L 546 116.59 C 546 129.51 556.51 140.02 569.43 140.02 L 582.19 140.02 C 585.77 140.02 589.25 139.19 592.51 137.59 L 594.44 136.64 L 594.44 150.56 C 594.44 155.83 590.98 159.65 586.19 159.65 L 567.59 159.65 L 567.59 170.81 L 586.19 170.81 C 597.09 170.81 605.62 161.92 605.62 150.55 L 605.62 72.01 L 594.44 72.01 L 594.44 116.59 Z" fill="#0e3496"/>
          </g>
          <g id="Graphic_18">
            <path d="M 636.37 40.85 L 625.19 40.85 L 625.19 120.78 C 625.19 131.5 633.91 140.22 644.63 140.22 L 655.98 140.22 L 655.98 129.04 L 644.63 129.04 C 640.07 129.04 636.37 125.34 636.37 120.78 L 636.37 82.98 L 655.99 82.98 L 655.99 71.8 L 636.37 71.8 L 636.37 40.85 Z" fill="#0e3496"/>
          </g>
          <g id="Graphic_17">
            <path d="M 713.44 71.05 C 709.5 70.23 705.51 69.83 701.53 69.83 C 697.81 69.83 694.08 70.18 690.39 70.89 L 688.87 71.18 C 678.39 73.19 670.77 82.4 670.77 93.08 L 670.77 120.92 C 670.77 131.5 679.38 140.11 689.96 140.11 L 721.74 140.11 L 721.74 128.95 L 689.96 128.95 C 685.55 128.95 681.94 125.35 681.94 120.93 L 681.94 115.19 L 708.98 115.19 C 721.28 115.19 731.28 105.19 731.28 92.89 C 731.28 82.35 723.78 73.17 713.46 71.06 Z M 708.96 104.01 L 681.92 104.01 L 681.92 93.09 C 681.92 87.75 685.73 83.16 690.96 82.17 L 692.48 81.88 C 698.7 80.69 705 80.73 711.2 82.01 C 716.35 83.07 720.08 87.64 720.08 92.89 C 720.08 99.03 715.09 104.01 708.95 104.01 Z" fill="#0e3496"/>
          </g>
          <g id="Group_8">
            <g id="Graphic_16">
              <path d="M 57.74 58.25 L 57.74 80.85 L 90.4 80.85 L 90.4 100.36 L 57.74 100.36 L 57.74 122.95 L 112.42 122.95 L 112.42 142.46 L 38.23 142.46 L 38.23 38.74 L 112.42 38.74 L 112.42 58.25 Z" fill="#0e3496"/>
            </g>
            <g id="Graphic_15">
              <path d="M 186.11 89.42 L 186.11 142.46 L 166.92 142.46 L 166.92 89.42 C 166.92 87.43 165.29 85.8 163.3 85.8 L 142.05 85.8 C 140.04 85.8 138.43 87.43 138.43 89.42 L 138.43 142.46 L 119.23 142.46 L 119.23 89.42 C 119.23 76.84 129.47 66.61 142.05 66.61 L 163.3 66.61 C 175.88 66.61 186.11 76.84 186.11 89.42 Z" fill="#0e3496"/>
            </g>
            <g id="Graphic_14">
              <path d="M 273.36 65.79 L 250.66 129.69 C 247.95 137.32 240.69 142.46 232.58 142.46 C 224.47 142.46 217.2 137.33 214.5 129.69 L 191.81 65.83 L 212.17 65.83 L 232.57 123.27 L 252.96 65.84 L 273.35 65.79 Z" fill="#0e3496"/>
            </g>
            <g id="Group_11">
              <g id="Graphic_13">
                <rect x="280.45" y="66.96" width="19.19" height="75.51" fill="#0e3496"/>
              </g>
              <g id="Graphic_12">
                <path d="M 301.02 50.68 C 301.02 56.74 296.09 61.66 290.04 61.66 C 283.99 61.66 279.05 56.74 279.05 50.68 C 279.05 44.62 283.98 39.7 290.04 39.7 C 296.1 39.7 301.02 44.62 301.02 50.68 Z" fill="#0e3496"/>
              </g>
            </g>
            <g id="Graphic_10">
              <path d="M 360.69 66.92 L 360.69 86.12 L 338.52 86.12 C 335.54 86.12 333.12 88.54 333.12 91.52 L 333.12 142.46 L 313.92 142.46 L 313.92 91.52 C 313.92 77.95 324.96 66.92 338.52 66.92 L 360.69 66.92 Z" fill="#0e3496"/>
            </g>
            <g id="Graphic_9">
              <path d="M 405.47 61.86 L 401.23 61.86 C 381.47 61.86 365.38 77.93 365.38 97.69 L 365.38 106.62 C 365.38 126.38 381.47 142.45 401.23 142.45 L 405.47 142.45 C 425.25 142.45 441.32 126.38 441.32 106.62 L 441.32 97.69 C 441.32 77.93 425.25 61.86 405.47 61.86 Z M 405.47 123.27 L 401.23 123.27 C 392.04 123.27 384.58 115.8 384.58 106.62 L 384.58 97.7 C 384.58 88.51 392.04 81.04 401.23 81.04 L 405.47 81.04 C 414.66 81.04 422.13 88.51 422.13 97.7 L 422.13 106.62 C 422.13 115.79 414.66 123.27 405.47 123.27 Z" fill="#0e3496"/>
            </g>
          </g>
        </g>
        <g id="Group_3">
          <g id="Graphic_6">
            <circle cx="787.09" cy="100.25" r="15.7600330629465" fill="#0e3496"/>
          </g>
          <g id="Graphic_5">
            <path d="M 846.88 40.46 L 846.88 125.53 C 846.88 126.42 846.81 127.31 846.66 128.19 C 846.14 131.34 844.69 134.38 842.32 136.81 C 836.25 143.04 826.41 143.04 820.34 136.81 C 817.97 134.38 816.52 131.35 816 128.19 C 815.86 127.31 815.78 126.42 815.78 125.53 L 815.78 90.32 C 815.78 80.4 807.31 71.54 797.65 71.54 L 760.75 71.54 C 756.77 71.54 753.43 70.8 750.4 67.69 C 744.33 61.46 744.33 51.36 750.4 45.13 C 753.43 42.02 757.41 40.46 761.39 40.46 L 846.87 40.46 Z" fill="#6d11a3"/>
          </g>
          <g id="Graphic_4">
            <circle cx="761.62" cy="125.72" r="15.7600330629464" fill="#55e0e0"/>
          </g>
        </g>
      </g>
      <g id="Graphic_21">
        <path d="M 594.48 116.77 C 594.48 123.52 588.98 129.02 582.23 129.02 L 569.47 129.02 C 562.7 129.02 557.21 123.52 557.21 116.77 L 557.21 72.19 L 546.05 72.19 L 546.05 116.77 C 546.05 129.69 556.56 140.2 569.48 140.2 L 582.24 140.2 C 585.82 140.2 589.3 139.37 592.56 137.77 L 594.49 136.82 L 594.49 150.74 C 594.49 156.01 591.03 159.83 586.24 159.83 L 567.64 159.83 L 567.64 170.99 L 586.24 170.99 C 597.14 170.99 605.67 162.1 605.67 150.73 L 605.67 72.19 L 594.49 72.19 L 594.49 116.77 Z" fill="#0e3496"/>
      </g>
    </g>
  </g>
</svg>
