<?xml version="1.0" encoding="UTF-8" standalone="no"?>
<!DOCTYPE svg PUBLIC "-//W3C//DTD SVG 1.1//EN" "http://www.w3.org/Graphics/SVG/1.1/DTD/svg11.dtd">
<svg version="1.1" xmlns="http://www.w3.org/2000/svg" xmlns:xl="http://www.w3.org/1999/xlink" xmlns:dc="http://purl.org/dc/elements/1.1/" viewBox="0 0 809 133">
  <defs/>
  <g id="Canvas_1" fill="none" stroke-dasharray="none" stroke="none" stroke-opacity="1" fill-opacity="1">
    <title>Canvas 1</title>
    <g id="Canvas_1_Layer_1">
      <title>Layer 1</title>
      <g id="Group_3">
        <g id="Graphic_6">
          <circle cx="748.09" cy="61.25" r="15.7600330629465" fill="white"/>
        </g>
        <g id="Graphic_5">
          <path d="M 807.88 1.46 L 807.88 86.53 C 807.88 87.42 807.81 88.31 807.66 89.19 C 807.14 92.34 805.69 95.38 803.32 97.81 C 797.25 104.04 787.41 104.04 781.34 97.81 C 778.97 95.38 777.52 92.35 777 89.19 C 776.86 88.31 776.78 87.42 776.78 86.53 L 776.78 51.32 C 776.78 41.4 768.31 32.54 758.65 32.54 L 721.75 32.54 C 717.77 32.54 714.43 31.8 711.4 28.69 C 705.33 22.46 705.33 12.36 711.4 6.13 C 714.43 3.02 718.41 1.46 722.39 1.46 L 807.87 1.46 Z" fill="white"/>
        </g>
        <g id="Graphic_4">
          <circle cx="722.62" cy="86.72" r="15.7600330629465" fill="white"/>
        </g>
      </g>
      <g id="Group_23">
        <g id="Group_7">
          <g id="Graphic_20">
            <path d="M 474.97 53.93 C 473.42 53.84 471.99 53.36 470.8 52.53 C 469.6 51.7 468.63 50.52 468.01 49.11 C 466.75 46.26 467.18 43.12 469.15 40.7 L 473.32 35.62 L 473.59 35.07 C 477.05 28.36 476.77 20.51 472.84 14.06 C 468.91 7.6 462.05 3.75 454.49 3.75 L 416.54 3.75 L 416.54 101.17 L 471.23 101.17 C 483.49 101.17 493.48 91.18 493.48 78.92 L 493.48 73.5 C 493.48 63.11 485.35 54.51 474.97 53.92 Z M 481.98 78.92 C 481.98 84.84 477.15 89.67 471.23 89.67 L 428.03 89.67 L 428.03 15.24 L 454.49 15.24 C 458.06 15.24 461.16 16.98 463.02 20.03 C 464.73 22.84 464.97 26.15 463.69 29.14 L 463.49 29.46 L 460.25 33.43 C 455.56 39.17 454.5 46.95 457.48 53.73 C 460.47 60.51 466.92 64.99 474.31 65.4 C 478.6 65.64 481.97 69.2 481.97 73.5 L 481.97 78.92 Z" fill="white"/>
          </g>
          <g id="Graphic_19">
            <path d="M 555.43 77.59 C 555.43 84.34 549.93 89.84 543.18 89.84 L 530.42 89.84 C 523.65 89.84 518.16 84.34 518.16 77.59 L 518.16 33.01 L 507 33.01 L 507 77.59 C 507 90.51 517.51 101.02 530.43 101.02 L 543.19 101.02 C 546.77 101.02 550.25 100.19 553.51 98.59 L 555.44 97.64 L 555.44 111.56 C 555.44 116.83 551.98 120.65 547.19 120.65 L 528.59 120.65 L 528.59 131.81 L 547.19 131.81 C 558.09 131.81 566.62 122.92 566.62 111.55 L 566.62 33.01 L 555.44 33.01 L 555.44 77.59 Z" fill="white"/>
          </g>
          <g id="Graphic_18">
            <path d="M 597.37 1.85 L 586.19 1.85 L 586.19 81.78 C 586.19 92.5 594.91 101.22 605.63 101.22 L 616.98 101.22 L 616.98 90.04 L 605.63 90.04 C 601.07 90.04 597.37 86.34 597.37 81.78 L 597.37 43.98 L 616.99 43.98 L 616.99 32.8 L 597.37 32.8 L 597.37 1.85 Z" fill="white"/>
          </g>
          <g id="Graphic_17">
            <path d="M 674.44 32.05 C 670.5 31.23 666.51 30.83 662.53 30.83 C 658.81 30.83 655.08 31.18 651.39 31.89 L 649.87 32.18 C 639.39 34.19 631.77 43.4 631.77 54.08 L 631.77 81.92 C 631.77 92.5 640.38 101.11 650.96 101.11 L 682.74 101.11 L 682.74 89.95 L 650.96 89.95 C 646.55 89.95 642.94 86.35 642.94 81.93 L 642.94 76.19 L 669.98 76.19 C 682.28 76.19 692.28 66.19 692.28 53.89 C 692.28 43.35 684.78 34.17 674.46 32.06 Z M 669.96 65.01 L 642.92 65.01 L 642.92 54.09 C 642.92 48.75 646.73 44.16 651.96 43.17 L 653.48 42.88 C 659.7 41.69 666 41.73 672.2 43.01 C 677.35 44.07 681.08 48.64 681.08 53.89 C 681.08 60.03 676.09 65.01 669.95 65.01 Z" fill="white"/>
          </g>
          <g id="Group_8">
            <g id="Graphic_16">
              <path d="M 18.74 19.25 L 18.74 41.85 L 51.4 41.85 L 51.4 61.36 L 18.74 61.36 L 18.74 83.95 L 73.42 83.95 L 73.42 103.46 L -.77 103.46 L -.77 -.26 L 73.42 -.26 L 73.42 19.25 Z" fill="white"/>
            </g>
            <g id="Graphic_15">
              <path d="M 147.11 50.42 L 147.11 103.46 L 127.92 103.46 L 127.92 50.42 C 127.92 48.43 126.29 46.8 124.3 46.8 L 103.05 46.8 C 101.04 46.8 99.43 48.43 99.43 50.42 L 99.43 103.46 L 80.23 103.46 L 80.23 50.42 C 80.23 37.84 90.47 27.61 103.05 27.61 L 124.3 27.61 C 136.88 27.61 147.11 37.84 147.11 50.42 Z" fill="white"/>
            </g>
            <g id="Graphic_14">
              <path d="M 234.36 26.79 L 211.66 90.69 C 208.95 98.32 201.69 103.46 193.58 103.46 C 185.47 103.46 178.2 98.33 175.5 90.69 L 152.81 26.83 L 173.17 26.83 L 193.57 84.27 L 213.96 26.84 L 234.35 26.79 Z" fill="white"/>
            </g>
            <g id="Group_11">
              <g id="Graphic_13">
                <rect x="241.45" y="27.96" width="19.19" height="75.51" fill="white"/>
              </g>
              <g id="Graphic_12">
                <path d="M 262.02 11.68 C 262.02 17.74 257.09 22.66 251.04 22.66 C 244.99 22.66 240.05 17.74 240.05 11.68 C 240.05 5.62 244.98 .7 251.04 .7 C 257.1 .7 262.02 5.62 262.02 11.68 Z" fill="white"/>
              </g>
            </g>
            <g id="Graphic_10">
              <path d="M 321.69 27.92 L 321.69 47.12 L 299.52 47.12 C 296.54 47.12 294.12 49.54 294.12 52.52 L 294.12 103.46 L 274.92 103.46 L 274.92 52.52 C 274.92 38.95 285.96 27.92 299.52 27.92 L 321.69 27.92 Z" fill="white"/>
            </g>
            <g id="Graphic_9">
              <path d="M 366.47 22.86 L 362.23 22.86 C 342.47 22.86 326.38 38.93 326.38 58.69 L 326.38 67.62 C 326.38 87.38 342.47 103.45 362.23 103.45 L 366.47 103.45 C 386.25 103.45 402.32 87.38 402.32 67.62 L 402.32 58.69 C 402.32 38.93 386.25 22.86 366.47 22.86 Z M 366.47 84.27 L 362.23 84.27 C 353.04 84.27 345.58 76.8 345.58 67.62 L 345.58 58.7 C 345.58 49.51 353.04 42.04 362.23 42.04 L 366.47 42.04 C 375.66 42.04 383.13 49.51 383.13 58.7 L 383.13 67.62 C 383.13 76.79 375.66 84.27 366.47 84.27 Z" fill="white"/>
            </g>
          </g>
        </g>
        <g id="Graphic_21">
          <path d="M 555.48 77.77 C 555.48 84.52 549.98 90.02 543.23 90.02 L 530.47 90.02 C 523.7 90.02 518.21 84.52 518.21 77.77 L 518.21 33.19 L 507.05 33.19 L 507.05 77.77 C 507.05 90.69 517.56 101.2 530.48 101.2 L 543.24 101.2 C 546.82 101.2 550.3 100.37 553.56 98.77 L 555.49 97.82 L 555.49 111.74 C 555.49 117.01 552.03 120.83 547.24 120.83 L 528.64 120.83 L 528.64 131.99 L 547.24 131.99 C 558.14 131.99 566.67 123.1 566.67 111.73 L 566.67 33.19 L 555.49 33.19 L 555.49 77.77 Z" fill="white"/>
        </g>
      </g>
    </g>
  </g>
</svg>
