<?xml version="1.0" encoding="UTF-8" standalone="no"?>
<!DOCTYPE svg PUBLIC "-//W3C//DTD SVG 1.1//EN" "http://www.w3.org/Graphics/SVG/1.1/DTD/svg11.dtd">
<svg xmlns="http://www.w3.org/2000/svg" xmlns:dc="http://purl.org/dc/elements/1.1/" version="1.1" xmlns:xl="http://www.w3.org/1999/xlink" viewBox="-30 -70 498.5 700" >
  <defs/>
  <g id="Canvas_1" stroke-opacity="1" fill="none" stroke="none" stroke-dasharray="none" fill-opacity="1">
    <title>Canvas 1</title>
    <g id="Canvas_1_Layer_1">
      <title>Layer 1</title>
      <g id="Graphic_2">
        <path d="M 171.3 148.9 C 161.3 130.5 146.6 123.8 126.4 127.1 C 122.3 118.2 116.7 111.7 110.3 107.3 L 110.2 107.2 C 84.1 89.5 45.7 107.7 48.9 148.7 C -7 161.9 5.2 237 54.9 237 L 110.2 237 L 165.4 237 C 189.1 237 208.4 217.1 208.4 192.7 C 208.3 169.9 192.6 153 171.3 148.9 Z" fill="#d9cfff"/>
      </g>
      <g id="Group_3">
        <g id="Graphic_11">
          <path d="M 374.5 256.3 L 352.8 231.5 C 348.8 226.9 349.3 220 353.8 216 C 358.4 212 365.3 212.5 369.3 217 L 391 241.8 C 395 246.4 394.5 253.3 390 257.3 C 385.5 261.3 378.5 260.8 374.5 256.3 Z" fill="#55e0e0"/>
        </g>
        <g id="Graphic_10">
          <path d="M 223.9 167.9 L 191 165.7 C 185 165.3 180.4 160.1 180.8 154 C 181.2 148 186.4 143.4 192.5 143.8 L 225.4 146 C 231.4 146.4 236 151.6 235.6 157.7 C 235.2 163.8 229.9 168.3 223.9 167.9 Z" fill="#55e0e0"/>
        </g>
        <g id="Graphic_9">
          <path d="M 421.1 180.9 L 388.2 178.7 C 382.2 178.3 377.6 173.1 378 167 C 378.4 161 383.6 156.4 389.7 156.8 L 422.6 159 C 428.6 159.4 433.2 164.6 432.8 170.7 C 432.4 176.7 427.1 181.3 421.1 180.9 Z" fill="#55e0e0"/>
        </g>
        <g id="Graphic_8">
          <path d="M 252.1 224.9 L 227.3 246.6 C 222.7 250.6 215.8 250.1 211.8 245.6 C 207.8 241 208.3 234.1 212.8 230.1 L 237.6 208.4 C 242.2 204.4 249.1 204.9 253.1 209.4 C 257.1 214 256.7 220.9 252.1 224.9 Z" fill="#55e0e0"/>
        </g>
        <g id="Graphic_7">
          <path d="M 400.7 94.6 L 375.9 116.3 C 371.3 120.3 364.4 119.8 360.4 115.3 C 356.4 110.7 356.9 103.8 361.4 99.8 L 386.2 78.1 C 390.8 74.1 397.7 74.6 401.7 79.1 C 405.7 83.7 405.2 90.6 400.7 94.6 Z" fill="#55e0e0"/>
        </g>
        <g id="Graphic_6">
          <path d="M 312.3 245.2 L 310.1 278.1 C 309.7 284.1 304.5 288.7 298.4 288.3 C 292.4 287.9 287.8 282.7 288.2 276.6 L 290.4 243.7 C 290.8 237.7 296 233.1 302.1 233.5 C 308.2 233.9 312.7 239.2 312.3 245.2 Z" fill="#55e0e0"/>
        </g>
        <g id="Graphic_5">
          <path d="M 325.3 48.1 L 323.1 81 C 322.7 87 317.5 91.6 311.4 91.2 C 305.4 90.8 300.8 85.6 301.2 79.5 L 303.4 46.6 C 303.8 40.6 309 36 315.1 36.4 C 321.1 36.8 325.7 42 325.3 48.1 Z" fill="#55e0e0"/>
        </g>
        <g id="Graphic_4">
          <path d="M 244.2 107.7 L 222.5 82.9 C 218.5 78.3 219 71.4 223.5 67.4 C 228.1 63.4 235 63.9 239 68.4 L 260.7 93.2 C 264.7 97.8 264.2 104.7 259.7 108.7 C 255.2 112.7 248.2 112.3 244.2 107.7 Z" fill="#55e0e0"/>
        </g>
      </g>
      <g id="Group_12">
        <g id="Group_13">
          <g id="Group_23">
            <g id="Group_24">
              <g id="Graphic_25">
                <path d="M 206.4 241.3 L 96.2 283.6 C 72.8 222.8 103.2 154.5 164.1 131.1 C 178.1 125.7 191.4 123.3 206.4 123.3 L 206.4 241.3 Z" fill="#4262d3"/>
              </g>
            </g>
          </g>
          <g id="Group_20">
            <g id="Group_21">
              <g id="Graphic_22">
                <path d="M 206.4 241.3 L 234.9 355.8 C 176.5 370.4 117.7 339.7 96.2 283.6 Z" fill="#55e0e0"/>
              </g>
            </g>
          </g>
          <g id="Group_17">
            <g id="Group_18">
              <g id="Graphic_19">
                <path d="M 206.4 241.3 L 260 136.2 C 318.1 165.8 341.2 236.9 311.6 294.9 C 295.7 326.1 269 347.3 235 355.8 Z" fill="#d9cfff"/>
              </g>
            </g>
          </g>
          <g id="Group_14">
            <g id="Group_15">
              <g id="Graphic_16">
                <path d="M 206.4 241.3 L 206.4 123.3 C 226.4 123.3 242.1 127.1 260 136.2 Z" fill="#6d11a3"/>
              </g>
            </g>
          </g>
        </g>
      </g>
      <g id="Graphic_26">
        <circle cx="205.6" cy="241.4" r="90.1001439709609" fill="white"/>
      </g>
      <g id="Graphic_27">
        <path d="M 290.67835 341.6348 L 307.96575 322.2154 L 366.89616 374.676 L 349.60876 394.0954 Z" fill="#6d11a3"/>
      </g>
      <g id="Graphic_28">
        <path d="M 448.1 458.3 L 442 465.1 C 435 473 423 473.7 415.1 466.7 L 340.4 400.2 L 371.8 364.9 L 446.5 431.4 C 454.4 438.4 455.1 450.4 448.1 458.3 Z" fill="#6d11a3"/>
      </g>
      <g id="Group_29">
        <g id="Graphic_31">
          <path d="M 274 250.5 L 274 232.2 C 274 229.7 272 227.6 269.4 227.6 L 265.2 227.6 C 261.4 227.6 258.1 225.3 256.7 221.8 C 256.3 220.8 255.9 219.9 255.5 218.9 C 254 215.5 254.7 211.4 257.4 208.7 L 260.3 205.7 C 262.1 203.9 262.1 201 260.3 199.3 L 247.5 186.5 C 245.7 184.7 242.8 184.7 241.1 186.5 L 238.1 189.4 C 235.4 192.1 231.4 192.8 227.9 191.3 C 227 190.9 226 190.5 225 190.1 C 221.5 188.7 219.2 185.4 219.2 181.6 L 219.2 178 C 219.5 175.4 217.6 173.1 215 172.8 C 214.9 172.8 214.8 172.8 214.7 172.8 L 196.4 172.8 C 193.9 172.8 191.8 174.8 191.8 177.4 L 191.8 181.6 C 191.8 185.4 189.5 188.7 186 190.1 C 185 190.5 184.1 190.9 183.1 191.3 C 179.7 192.8 175.6 192.1 172.9 189.4 L 169.9 186.5 C 168.1 184.7 165.2 184.7 163.5 186.5 L 150.7 199.3 C 148.9 201.1 148.9 204 150.7 205.7 L 153.7 208.7 C 156.4 211.4 157.1 215.4 155.6 218.9 C 155.2 219.8 154.8 220.8 154.4 221.8 C 153 225.3 149.6 227.6 145.8 227.6 L 142.2 227.6 C 139.6 227.3 137.3 229.2 137 231.8 C 137 231.9 137 232 137 232.1 L 137 250.4 C 137 252.9 139 255 141.6 255 L 145.8 255 C 149.6 255 152.9 257.3 154.3 260.8 C 154.7 261.8 155.1 262.7 155.5 263.7 C 157 267.1 156.3 271.2 153.6 273.9 L 150.7 276.9 C 148.9 278.7 148.9 281.6 150.7 283.3 L 163.5 296.1 C 165.3 297.9 168.2 297.9 169.9 296.1 L 172.9 293.1 C 175.6 290.4 179.6 289.7 183.1 291.2 C 184 291.6 185 292 186 292.4 C 189.5 293.8 191.8 297.2 191.8 301 L 191.8 304.6 C 191.5 307.2 193.4 309.5 196 309.8 C 196.1 309.8 196.2 309.8 196.3 309.8 L 214.6 309.8 C 217.1 309.8 219.2 307.8 219.2 305.2 L 219.2 301 C 219.2 297.2 221.5 293.9 225 292.5 C 226.9 291.8 228.7 291 230.5 290.1 C 232.3 289.2 234.4 289.6 235.8 290.9 L 241.1 296.1 C 242.9 297.9 245.8 297.9 247.5 296.1 L 260.3 283.3 C 262.1 281.5 262.1 278.6 260.3 276.9 L 257.3 273.9 C 254.6 271.2 253.9 267.2 255.4 263.7 C 255.8 262.8 256.2 261.8 256.6 260.8 C 258 257.3 261.4 255 265.2 255 L 268.8 255 C 271.4 255.3 273.7 253.4 274 250.8 C 274 250.7 274 250.6 274 250.5 Z" fill="#4262d3"/>
        </g>
        <g id="Graphic_30">
          <circle cx="205.6" cy="241.4" r="34.2000717482722" fill="white"/>
        </g>
      </g>
      <g id="Graphic_32">
        <rect x="16.1" y="322.2" width="26.1" height="153.5" fill="#4262d3"/>
      </g>
      <g id="Graphic_33">
        <rect x="54.2" y="366.7" width="26.1" height="109" fill="#55e0e0"/>
      </g>
      <g id="Graphic_34">
        <rect x="92.7" y="422.1" width="26.1" height="53.6" fill="#4262d3"/>
      </g>
      <g id="Graphic_35">
        <rect x="130.1" y="398.1" width="26.1" height="77.6" fill="#55e0e0"/>
      </g>
      <g id="Graphic_36">
        <rect x="167.5" y="436" width="26.1" height="39.7" fill="#4262d3"/>
      </g>
      <g id="Graphic_37">
        <title>XMLID_00000083062527914733271830000005090916594487642523_</title>
        <path d="M 293.9 422.1 C 293.9 440.4 279.4 454.9 261.1 454.9 L 261.1 422.1 Z" fill="#55e0e0"/>
      </g>
      <g id="Graphic_38">
        <title>XMLID_00000166650816872615807910000016697150343446919095_</title>
        <path d="M 302 422.1 C 302 399.5 283.7 381.3 261.2 381.3 C 238.6 381.3 220.4 399.6 220.4 422.1 C 220.4 444.7 238.7 462.9 261.2 462.9 L 261.2 422.1 Z" fill="#6d11a3"/>
      </g>
      <g id="Graphic_39">
        <title>XMLID_00000034786286816147834210000018436441468822564509_</title>
        <path d="M 283.2 422.1 C 283.2 409.7 273 400.1 261.2 400.1 C 248.8 400.1 239.2 410.3 239.2 422.1 C 239.2 434.5 249.4 444.1 261.2 444.1 L 261.2 422.1 Z" fill="#d9cfff"/>
      </g>
      <g id="Graphic_40">
        <path d="M 151.6 27.8 C 157.5 27.8 157.5 18.6 151.6 18.6 C 135 18.5 58.1 18.5 41.5 18.4 C 35.6 18.4 35.6 27.6 41.5 27.6 C 58.1 27.7 135.1 27.8 151.6 27.8 Z" fill="#4262d3"/>
      </g>
      <g id="Graphic_41">
        <path d="M 31.4 25.8 C 33 24.1 33 21.3 31.3 19.7 C 29.6 18.1 26.8 18.1 25.2 19.8 C 23.6 21.5 23.6 24.3 25.3 25.9 C 27 27.5 29.8 27.6 31.4 25.8 Z" fill="#4262d3"/>
      </g>
      <g id="Graphic_42">
        <path d="M 41.5 52.7 C 67.1 52.8 153.1 52.8 178.8 52.9 C 184.7 52.9 184.7 43.7 178.8 43.7 C 153.2 43.6 67.2 43.6 41.5 43.5 C 35.6 43.5 35.6 52.7 41.5 52.7 Z" fill="#4262d3"/>
      </g>
      <g id="Graphic_43">
        <path d="M 25.3 51.1 C 27 52.7 29.8 52.7 31.4 51 C 33 49.3 33 46.5 31.3 44.9 C 29.6 43.3 26.8 43.3 25.2 45 C 23.5 46.7 23.6 49.4 25.3 51.1 Z" fill="#4262d3"/>
      </g>
      <g id="Graphic_44">
        <path d="M 41.5 77.7 C 67.1 77.8 153.1 77.8 178.8 77.9 C 184.7 77.9 184.7 68.7 178.8 68.7 C 153.2 68.6 67.2 68.6 41.5 68.5 C 35.6 68.5 35.6 77.7 41.5 77.7 Z" fill="#4262d3"/>
      </g>
      <g id="Graphic_45">
        <path d="M 25.3 76.1 C 27 77.7 29.8 77.7 31.4 76 C 33 74.3 33 71.5 31.3 69.9 C 29.6 68.3 26.8 68.3 25.2 70 C 23.5 71.7 23.6 74.4 25.3 76.1 Z" fill="#4262d3"/>
      </g>
      <g id="Graphic_46">
        <path d="M 389.3 291.5 C 383.4 291.5 383.4 282.3 389.3 282.3 C 405.9 282.2 448.4 282.2 464.9 282.1 C 470.8 282.1 470.8 291.3 464.9 291.3 C 448.4 291.4 405.9 291.4 389.3 291.5 Z" fill="#4262d3"/>
      </g>
      <g id="Graphic_47">
        <path d="M 475.1 289.5 C 473.5 287.8 473.5 285 475.2 283.4 C 476.9 281.8 479.7 281.8 481.3 283.5 C 482.9 285.2 482.9 288 481.2 289.6 C 479.4 291.3 476.7 291.2 475.1 289.5 Z" fill="#4262d3"/>
      </g>
      <g id="Graphic_48">
        <path d="M 465 316.4 C 439.4 316.5 387.8 316.5 362.2 316.6 C 356.3 316.6 356.3 307.4 362.2 307.4 C 387.8 307.3 439.4 307.3 465 307.2 C 470.9 307.2 470.9 316.4 465 316.4 Z" fill="#4262d3"/>
      </g>
      <g id="Graphic_49">
        <path d="M 481.2 314.7 C 479.5 316.3 476.7 316.3 475.1 314.6 C 473.5 312.9 473.5 310.1 475.2 308.5 C 476.9 306.9 479.7 306.9 481.3 308.6 C 482.9 310.4 482.9 313.1 481.2 314.7 Z" fill="#4262d3"/>
      </g>
      <g id="Graphic_50">
        <path d="M 465 341.4 C 439.4 341.5 387.8 341.5 362.2 341.6 C 356.3 341.6 356.3 332.4 362.2 332.4 C 387.8 332.3 439.4 332.3 465 332.2 C 470.9 332.2 470.9 341.4 465 341.4 Z" fill="#4262d3"/>
      </g>
      <g id="Graphic_51">
        <path d="M 481.2 339.7 C 479.5 341.3 476.7 341.3 475.1 339.6 C 473.5 337.9 473.5 335.1 475.2 333.5 C 476.9 331.9 479.7 331.9 481.3 333.6 C 482.9 335.4 482.9 338.1 481.2 339.7 Z" fill="#4262d3"/>
      </g>
    </g>
  </g>
</svg>
