<?xml version="1.0" encoding="UTF-8"?>
<svg id="Layer_1" data-name="Layer 1" xmlns="http://www.w3.org/2000/svg" viewBox="-30 0 547.56 546.81">
  <defs>
    <style>
      .cls-1 {
        fill: #175ed9;
      }

      .cls-22 {
        fill: #fff;
      }

      .cls-3 {
        fill: #55e0e0;
      }

      .cls-4 {
        stroke: #4262d3;
        stroke-width: 0px;
      }

      .cls-4, .cls-5, .cls-6, .cls-7 {
        fill: none;
        stroke-miterlimit: 10;
      }

      .cls-8 {
        fill: #6d11a3;
      }

      .cls-9 {
        fill: #9a5ae5;
      }

      .cls-5 {
        stroke: #9a5ae5;
      }

      .cls-5, .cls-6, .cls-7 {
        stroke-width: 4px;
      }

      .cls-6 {
        stroke: #6d11a3;
      }

      .cls-7 {
        stroke: #55e0e0;
      }
    </style>
  </defs>
  <g>
    <g>
      <path class="cls-7" d="m24.68,238.72c-18.67,88.29,26.6,192,99.26,240.73l131.31-198.05"/>
      <polygon class="cls-3" points="12.17 239.23 29.12 221.78 35.76 245.19 12.17 239.23"/>
    </g>
    <path class="cls-3" d="m136.59,248.14c-15.24,53.87,5.93,109.64,49.24,138.99l69.41-105.72-118.66-33.26Z"/>
  </g>
  <g>
    <g>
      <path class="cls-5" d="m158.92,503.37c77.93,45.49,190.62,35.13,259.74-18.51l-146.7-186.93"/>
      <polygon class="cls-9" points="155.48 515.41 144.24 493.83 168.55 494.89 155.48 515.41"/>
    </g>
    <path class="cls-9" d="m203.06,400.1c46.35,31.41,105.94,28.86,147.42-3.03l-78.53-99.14-68.89,102.17Z"/>
  </g>
  <g>
    <g>
      <path class="cls-6" d="m456.82,458.18c67.11-60.33,91.64-170.8,61.65-252.99l-222.79,82.64"/>
      <polygon class="cls-8" points="467.23 465.13 443.25 469.25 451.68 446.42 467.23 465.13"/>
    </g>
    <path class="cls-8" d="m371.95,384.62c44.05-34.55,59.82-92.08,42.11-141.31l-118.38,44.52,76.27,96.79Z"/>
  </g>
  <g>
    <g>
      <path class="cls-5" d="m503.13,167.27C468.68,83.87,372.75,23.85,285.26,24.67l3.49,237.59"/>
      <polygon class="cls-9" points="513.17 159.78 509.03 183.76 490.33 168.19 513.17 159.78"/>
    </g>
    <path class="cls-9" d="m405.46,222.7c-17.85-53.06-66.81-87.13-119.13-86.89l2.42,126.45,116.71-39.56Z"/>
  </g>
  <g>
    <polyline class="cls-4" points="274.68 277.48 275.38 277.23 275.4 277.2 275.38 277.23"/>
    <g>
      <path class="cls-6" d="m230.07,25.52C140.26,34.25,54.95,108.6,30.31,192.55l228.36,65.7"/>
      <polygon class="cls-8" points="225.81 13.74 247.56 24.66 227.23 38.03 225.81 13.74"/>
    </g>
    <polygon points="274.96 277.84 275.38 277.23 274.68 277.48 274.96 277.84"/>
  </g>
  <g>
    <path class="cls-8" d="m254.72,135.08c-55.96,1.66-102.79,38.61-117.76,88.75l121.7,34.42-3.94-123.17Z"/>
    <polygon points="274.44 278.19 274.68 277.85 274.29 277.99 274.44 278.19"/>
  </g>
  <circle class="cls-1" cx="274.44" cy="278.19" r="104.89"/>
  <g>
    <path class="cls-22" d="m223.54,245.36h4.15c4.43,0,5.28,2.48,5.28,6.09v8.04c0,3.17-.52,6.58-5.35,6.58h-4.08v-20.71Zm2.78,18.33h1.12c2.27,0,2.71-1.38,2.71-3.76v-8.73c0-2.11-.38-3.43-2.71-3.43h-1.12v15.93Z"/>
    <path class="cls-22" d="m243.42,263.02c0,1.04,0,2.5.06,3.05h-2.55c-.07-.33-.17-.98-.19-1.22-.53,1.06-1.44,1.47-2.62,1.47-2.36,0-3.3-2.15-3.3-4.57v-.28c0-3.79,2.48-4.93,5.33-4.93h.5v-2.24c0-1.33-.19-2.12-1.27-2.12s-1.33.82-1.33,1.92v.33h-2.73v-.28c0-2.27.88-4.25,4.16-4.25,2.95,0,3.94,1.71,3.94,4.2v8.94Zm-2.71-4.34h-.63c-1.6,0-2.6.64-2.6,2.75v.26c0,1.25.42,2.19,1.52,2.19,1.23,0,1.71-.92,1.71-3.16v-2.04Z"/>
    <path class="cls-22" d="m244.76,250.13h1.75v-3.86h2.77v3.86h2.1v2.45h-2.1v9.96c0,.78.12,1.46,1.1,1.46.29,0,.73-.03.92-.09v2.11c-.51.23-1.27.29-1.85.29-1.81,0-2.94-.64-2.94-3.27v-10.46h-1.75v-2.45Z"/>
    <path class="cls-22" d="m261.12,263.02c0,1.04,0,2.5.06,3.05h-2.55c-.07-.33-.17-.98-.19-1.22-.53,1.06-1.44,1.47-2.62,1.47-2.36,0-3.3-2.15-3.3-4.57v-.28c0-3.79,2.48-4.93,5.33-4.93h.5v-2.24c0-1.33-.19-2.12-1.27-2.12s-1.33.82-1.33,1.92v.33h-2.73v-.28c0-2.27.88-4.25,4.16-4.25,2.95,0,3.94,1.71,3.94,4.2v8.94Zm-2.71-4.34h-.63c-1.6,0-2.6.64-2.6,2.75v.26c0,1.25.42,2.19,1.52,2.19,1.23,0,1.71-.92,1.71-3.16v-2.04Z"/>
    <path class="cls-22" d="m268.6,256.63v2.55h-5.44v-2.55h5.44Z"/>
    <path class="cls-22" d="m270.66,245.36h4.15c4.43,0,5.28,2.48,5.28,6.09v8.04c0,3.17-.52,6.58-5.35,6.58h-4.08v-20.71Zm2.78,18.33h1.12c2.27,0,2.71-1.38,2.71-3.76v-8.73c0-2.11-.38-3.43-2.71-3.43h-1.12v15.93Z"/>
    <path class="cls-22" d="m282.52,255.54c0-2.61.02-3.87-.03-5.41h2.64c.03.35.08,1.6.08,2.54.61-2.08,2-2.75,3.45-2.77v3.43c-1.88,0-3.36.75-3.36,3.86v8.88h-2.78v-10.53Z"/>
    <path class="cls-22" d="m290.21,250.13h2.78v15.94h-2.78v-15.94Zm.02-5.68h2.78v3.32h-2.78v-3.32Z"/>
    <path class="cls-22" d="m297.58,250.13c.5,2.94,1.62,9.52,2,12.83h.03c.27-3.12,1.6-9.7,2.1-12.83h2.79l-3.41,15.94h-3.15l-3.34-15.94h2.97Z"/>
    <path class="cls-22" d="m308.32,258.78v2.45c0,1.38.3,2.72,1.66,2.72s1.57-1.17,1.57-2.48v-.1h2.71v.09c0,1.75-.39,4.84-4.24,4.84s-4.41-2.38-4.41-5.6v-5.52c0-2.28.75-5.31,4.42-5.31,3.27,0,4.29,2.29,4.29,5.3v3.6h-5.99Zm3.33-2.21v-1.78c0-1.48-.3-2.55-1.63-2.55-1.22,0-1.68.94-1.68,2.56v1.77h3.3Z"/>
    <path class="cls-22" d="m316.53,255.02c0-3.22,0-4.14-.03-4.89h2.65c.05.36.11.96.11,1.51.46-1.03,1.36-1.76,2.93-1.76,1.86,0,3.22,1.1,3.22,4.08v12.11h-2.78v-11.58c0-1.48-.51-2.1-1.5-2.1-1.21,0-1.82.63-1.82,3.15v10.53h-2.78v-11.05Z"/>
    <path class="cls-22" d="m202.99,282.56h4.15c4.43,0,5.28,2.48,5.28,6.09v8.04c0,3.17-.52,6.58-5.35,6.58h-4.08v-20.71Zm2.78,18.33h1.12c2.27,0,2.71-1.38,2.71-3.76v-8.73c0-2.11-.38-3.43-2.71-3.43h-1.12v15.93Z"/>
    <path class="cls-22" d="m217.22,295.98v2.45c0,1.38.3,2.72,1.66,2.72s1.57-1.17,1.57-2.48v-.1h2.71v.09c0,1.75-.39,4.84-4.24,4.84s-4.41-2.38-4.41-5.6v-5.52c0-2.28.75-5.31,4.42-5.31,3.27,0,4.29,2.29,4.29,5.3v3.6h-5.99Zm3.33-2.21v-1.78c0-1.48-.3-2.55-1.63-2.55-1.22,0-1.68.94-1.68,2.56v1.77h3.3Z"/>
    <path class="cls-22" d="m233.52,298.08v.22c0,2.83-.72,5.22-4.24,5.22s-4.15-2.33-4.15-5.6v-5.77c0-2.64.91-5.07,4.29-5.07,3.63,0,4.09,2.64,4.09,4.68v.62h-2.74v-.62c0-1.32-.21-2.32-1.4-2.32-1.06,0-1.45.81-1.45,2.38v6.88c0,1.25.23,2.46,1.43,2.46,1.12,0,1.42-.82,1.42-2.42v-.65h2.74Z"/>
    <path class="cls-22" d="m235.62,287.33h2.78v15.94h-2.78v-15.94Zm.02-5.68h2.78v3.32h-2.78v-3.32Z"/>
    <path class="cls-22" d="m243.22,298.39v.72c0,1.22.42,2.06,1.48,2.06,1.01,0,1.42-.62,1.42-1.85s-.36-1.96-2.24-3.19c-2.17-1.41-3.2-2.55-3.2-4.8,0-2.55,1.32-4.23,4.02-4.23,2.93,0,4,1.72,4,4.42v.68h-2.69v-.94c0-1.21-.38-1.8-1.3-1.8s-1.26.64-1.26,1.64.33,1.5,1.84,2.49c2.6,1.67,3.64,2.79,3.64,5.41,0,2.98-1.44,4.54-4.32,4.54-3.39,0-4.2-2.18-4.2-4.42v-.71h2.81Z"/>
    <path class="cls-22" d="m251,287.33h2.78v15.94h-2.78v-15.94Zm.02-5.68h2.78v3.32h-2.78v-3.32Z"/>
    <path class="cls-22" d="m265.05,292.07v6.35c0,3.43-1.67,5.09-4.49,5.09s-4.42-1.68-4.42-5.05v-6.5c0-3.29,1.82-4.89,4.51-4.89s4.4,1.76,4.4,4.99Zm-6.12-.13v6.63c0,1.47.47,2.49,1.69,2.49,1.13,0,1.65-.81,1.65-2.53v-6.61c0-1.37-.41-2.36-1.66-2.36-1.17,0-1.67.84-1.67,2.39Z"/>
    <path class="cls-22" d="m267.37,292.22c0-3.22,0-4.14-.03-4.89h2.65c.05.36.11.96.11,1.51.46-1.03,1.36-1.76,2.93-1.76,1.86,0,3.22,1.1,3.22,4.08v12.11h-2.78v-11.58c0-1.48-.51-2.1-1.5-2.1-1.21,0-1.82.63-1.82,3.15v10.53h-2.78v-11.05Z"/>
    <path class="cls-22" d="m293.61,295.17c0-3.64.05-7.9.11-10.2h-.03c-.49,3.54-1.82,12.24-2.81,18.3h-2.65c-.74-5.36-2.1-14.58-2.58-18.33h-.06c.06,2.41.16,7.1.16,10.66v7.67h-2.54v-20.71h4.13c.94,5.62,2,12.24,2.28,15.03h.03c.33-2.79,1.65-9.73,2.61-15.03h4.01v20.71h-2.66v-8.1Z"/>
    <path class="cls-22" d="m306.97,300.22c0,1.04,0,2.5.06,3.05h-2.55c-.07-.33-.17-.98-.19-1.22-.53,1.06-1.44,1.47-2.62,1.47-2.36,0-3.3-2.15-3.3-4.57v-.28c0-3.79,2.48-4.93,5.33-4.93h.5v-2.24c0-1.33-.19-2.12-1.27-2.12s-1.33.82-1.33,1.92v.33h-2.73v-.28c0-2.27.88-4.25,4.16-4.25,2.95,0,3.94,1.71,3.94,4.2v8.94Zm-2.71-4.34h-.63c-1.6,0-2.6.64-2.6,2.75v.26c0,1.25.42,2.19,1.52,2.19,1.23,0,1.71-.92,1.71-3.16v-2.04Z"/>
    <path class="cls-22" d="m312.53,294.45h.05c.73-1.77,2.27-5.14,3.11-7.11h2.93l-2.96,5.87,3.29,10.06h-3.03l-2.17-7.36-1.21,2.35v5.01h-2.76v-21.62h2.76v12.8Z"/>
    <path class="cls-22" d="m320.28,287.33h2.78v15.94h-2.78v-15.94Zm.02-5.68h2.78v3.32h-2.78v-3.32Z"/>
    <path class="cls-22" d="m325.86,292.22c0-3.22,0-4.14-.03-4.89h2.65c.05.36.11.96.11,1.51.46-1.03,1.36-1.76,2.93-1.76,1.86,0,3.22,1.1,3.22,4.08v12.11h-2.78v-11.58c0-1.48-.51-2.1-1.5-2.1-1.21,0-1.82.63-1.82,3.15v10.53h-2.78v-11.05Z"/>
    <path class="cls-22" d="m345.98,302.61c0,3.41-.35,6.26-4.66,6.26-3.6,0-4.23-2.32-4.23-4.07v-.07h2.79v.08c0,.58.22,1.75,1.59,1.75,1.45,0,1.73-1.1,1.73-3.23v-1.87c-.41.97-1.28,1.55-2.65,1.55-2.71,0-3.47-2.06-3.47-4.95v-6.18c0-2.43.98-4.8,3.8-4.8,1.66,0,2.37.8,2.62,1.65,0-.47.08-1.1.14-1.4h2.41c-.03.94-.06,2.31-.06,4.07v11.21Zm-6.11-10.57v5.81c0,1.8.44,2.69,1.55,2.69,1.55,0,1.8-1.38,1.8-3.41v-4.68c0-1.56-.16-2.86-1.62-2.86-1.16,0-1.73.8-1.73,2.46Z"/>
  </g>
  <g>
    <path class="cls-2" d="m129.74,130.48l.69.84c.95,1.15,1.85,1.47,2.73.74s.56-1.75-.4-2.92c-1.29-1.55-2.07-1.8-4.51-1.74-2.47.06-3.85-.02-5.56-2.07-1.5-1.8-2.43-4.03-.05-5.99,2.36-1.95,4.18-.69,5.52.92l.58.7-1.85,1.53-.54-.65c-.87-1.05-1.6-1.54-2.41-.87s-.43,1.55.39,2.54c.92,1.11,1.54,1.42,3.55,1.31,3.27-.17,4.6.17,6.53,2.49,1.63,1.96,2.51,4.32.03,6.39-2.43,2.02-4.36.97-5.88-.86l-.68-.81,1.86-1.55Z"/>
    <path class="cls-2" d="m129.12,119.72l1.17-.97-2.15-2.59,1.86-1.54,2.15,2.59,1.41-1.17,1.36,1.64-1.41,1.17,5.54,6.68c.44.52.89.91,1.55.37.19-.16.47-.43.57-.58l1.18,1.42c-.21.44-.7.9-1.08,1.22-1.21,1.01-2.33,1.21-3.79-.55l-5.82-7.02-1.17.97-1.36-1.64Z"/>
    <path class="cls-2" d="m140.96,119.7l1.37,1.65c.77.93,1.72,1.66,2.63.91s.4-1.66-.32-2.54l-.06-.07,1.82-1.51.05.06c.97,1.17,2.44,3.47-.15,5.61-2.52,2.09-4.28.86-6.08-1.3l-3.07-3.7c-1.27-1.53-2.45-3.98,0-6.02,2.19-1.82,4.15-.85,5.83,1.17.5.61,1.5,1.81,2.01,2.42l-4.02,3.34Zm1-3.33l-.99-1.2c-.82-.99-1.62-1.55-2.51-.81-.82.68-.6,1.57.3,2.65l.99,1.19,2.22-1.84Z"/>
    <path class="cls-2" d="m151.72,117.66l3.65,4.4-1.86,1.55-9.31-11.22c-1.2-1.45-2.01-2.42-2.57-3.06l1.78-1.48c.21.18.62.6.98,1.03-.28-.94-.16-1.99.91-2.88,1.48-1.23,3.05-.8,4.79,1.3l3.69,4.45c2.01,2.42,2.02,4.17.47,5.45-.98.81-1.87.73-2.52.46Zm.2-4.33l-3.6-4.34c-.92-1.11-1.68-1.26-2.33-.73-.87.72-.7,1.66.38,2.96l3,3.62c.96,1.15,1.93,1.95,2.88,1.16.84-.7.57-1.58-.34-2.67Z"/>
    <path class="cls-2" d="m161.46,110.94l-9.43-11.37c-.29.41-.95,1.13-1.28,1.41l-1.19-1.43c.74-.8,1.1-1.89,1.11-2.63l1.36-1.13,11.28,13.6-1.86,1.55Z"/>
    <path class="cls-2" d="m117.26,162.15l2.28-1.89c1.79-1.49,4.02-1.27,5.59.63s1.52,4.23-.33,5.77l-2.25,1.87-5.29-6.37Zm5.54,4.95l1.34-1.11c1.5-1.24,1.32-2.91.13-4.35-1.04-1.26-2.66-1.88-4.22-.59l-1.34,1.11,4.1,4.94Z"/>
    <path class="cls-2" d="m127.66,160.61c.79.94,1.82,1.22,2.61.56.73-.61.66-1.18.53-1.65l.81-.67c.31.75.47,1.95-.8,3.01-1.46,1.21-3.04.52-4.03-.68-1.15-1.38-1.36-3.06.05-4.23,1.5-1.24,2.99-.45,3.81.54.12.14.22.26.31.4l-3.27,2.72Zm2-2.62c-.64-.76-1.54-1.05-2.33-.39s-.7,1.54-.11,2.42l2.44-2.03Z"/>
    <path class="cls-2" d="m134.02,159.01l-3.31-3.99-.75.62-.54-.65.75-.62-.46-.56c-.71-.85-1.01-1.89.01-2.74.17-.14.42-.31.56-.37l.56.68c-.13.07-.32.19-.44.3-.48.4-.42.83.15,1.51l.42.5.93-.77.54.65-.93.77,3.31,3.99-.8.67Z"/>
    <path class="cls-2" d="m130.96,150.2l.8-.67.83,1-.8.67-.83-1Zm1.73,2.08l.8-.67,3.85,4.64-.8.67-3.85-4.64Z"/>
    <path class="cls-2" d="m135.83,151.64c-.33-.4-.67-.81-.98-1.16l.78-.65c.14.12.55.6.66.74-.15-.55-.16-1.34.74-2.09s1.99-.76,3.02.48l2.48,2.99-.8.67-2.39-2.88c-.58-.7-1.25-.95-1.96-.36-.88.73-.68,1.69.1,2.62l2.04,2.46-.8.67-2.88-3.47Z"/>
    <path class="cls-2" d="m142.57,148.24c.79.94,1.82,1.22,2.61.56.73-.61.66-1.18.53-1.65l.81-.67c.31.75.47,1.95-.8,3.01-1.46,1.21-3.04.52-4.03-.68-1.15-1.38-1.36-3.06.05-4.23,1.5-1.24,2.99-.45,3.81.54.12.14.22.26.31.4l-3.27,2.72Zm2-2.62c-.64-.76-1.54-1.05-2.33-.39s-.7,1.54-.11,2.42l2.44-2.03Z"/>
    <path class="cls-2" d="m146.51,140.8l.8-.67-1.14-1.37.8-.67,1.14,1.37,1.03-.85.54.65-1.03.85,2.26,2.72c.37.45.68.59,1.1.24.11-.09.27-.24.37-.37l.5.6c-.14.24-.4.48-.62.66-.72.6-1.35.49-1.99-.28l-2.41-2.91-.8.67-.54-.65Z"/>
    <path class="cls-2" d="m149.07,135.17l2.29,2.77c-.1-.61,0-1.34.79-2,.74-.62,1.9-.89,3.05.49l2.46,2.96-.8.66-2.35-2.83c-.66-.79-1.35-.95-2.03-.39-.83.69-.75,1.55.06,2.52l2.11,2.54-.8.67-5.58-6.72.8-.67Z"/>
    <path class="cls-2" d="m157.7,135.68c.79.94,1.82,1.22,2.61.56.73-.61.66-1.18.53-1.65l.81-.67c.31.75.47,1.95-.8,3.01-1.46,1.21-3.04.52-4.03-.68-1.15-1.38-1.36-3.06.05-4.23,1.5-1.24,2.99-.45,3.81.54.12.14.22.26.31.4l-3.27,2.72Zm2-2.62c-.64-.76-1.54-1.05-2.33-.39s-.7,1.54-.11,2.42l2.44-2.03Z"/>
    <path class="cls-2" d="m166.42,131.16l1.99,2.4-.8.66-4.43-5.34c-.31-.38-.64-.77-.95-1.13l.78-.65c.15.14.39.41.63.71-.14-.68.03-1.44.82-2.1,1.07-.89,2.6-.64,3.77.77,1.38,1.66,1.22,3.29.1,4.23-.75.62-1.4.63-1.92.44Zm1.02-3.95c-.82-.98-1.82-1.29-2.62-.63-.96.8-.84,1.72.1,2.85.91,1.1,1.78,1.51,2.75.7.85-.7.72-1.78-.23-2.92Z"/>
    <path class="cls-2" d="m168.51,124.68c-.54-.65-.85-1.01-1.06-1.25l.79-.65c.12.12.44.47.81.93-.28-.83-.06-1.7.69-2.36l.66.8c-.93.82-1.13,1.82-.15,3l1.87,2.25-.8.67-2.81-3.38Z"/>
    <path class="cls-2" d="m176.53,119.8c1.11,1.34,1.26,3.08-.16,4.26-1.33,1.1-2.99.74-4.15-.65-1.14-1.37-1.24-3.09.16-4.25,1.29-1.07,2.94-.81,4.15.65Zm-3.49,2.91c.85,1.02,1.97,1.34,2.8.65s.74-1.81-.13-2.86-1.94-1.37-2.81-.65-.74,1.8.14,2.86Z"/>
    <path class="cls-2" d="m173.93,114.54l.8-.67,2.28,2.74c-.12-.57,0-1.3.84-2,1.17-.97,2.7-.62,3.84.76s1.39,3.11.07,4.2c-.74.62-1.36.67-1.97.41.2.24.39.5.48.64l-.77.64c-.42-.53-.85-1.05-1.28-1.57l-4.29-5.17Zm6.95,1.54c-.83-1-1.85-1.29-2.65-.63-.99.82-.79,1.77.13,2.87.8.97,1.75,1.48,2.74.67.82-.68.72-1.78-.22-2.91Z"/>
    <path class="cls-2" d="m184.73,116.93l-5.58-6.72.8-.67,5.58,6.72-.8.67Z"/>
    <path class="cls-2" d="m185.58,112.55c.79.94,1.82,1.22,2.61.56.73-.61.66-1.18.53-1.65l.81-.67c.31.75.47,1.95-.8,3.01-1.46,1.21-3.04.52-4.03-.68-1.15-1.38-1.36-3.06.05-4.23,1.5-1.24,2.99-.45,3.81.54.12.14.22.26.31.4l-3.27,2.72Zm2-2.62c-.64-.76-1.54-1.05-2.33-.39s-.7,1.54-.11,2.42l2.44-2.03Z"/>
    <path class="cls-2" d="m188.84,107.7c-.33-.4-.68-.82-1-1.19l.77-.64c.13.13.43.45.62.69-.13-.59-.07-1.34.67-1.95.66-.55,1.39-.59,1.98-.23-.12-.65,0-1.4.79-2.06s1.83-.77,2.88.49l2.53,3.05-.79.65-2.45-2.96c-.45-.54-1.11-.95-1.84-.34s-.61,1.47.07,2.3l2.21,2.67-.79.65-2.43-2.93c-.5-.6-1.11-.99-1.84-.38s-.6,1.52.13,2.41l2.13,2.57-.8.66-2.86-3.45Z"/>
  </g>
  <g>
    <path class="cls-2" d="m382.36,103.33l-.72.81c-.99,1.12-1.18,2.05-.32,2.81s1.82.29,2.82-.84c1.34-1.5,1.47-2.31,1.04-4.72-.43-2.43-.56-3.81,1.22-5.81,1.56-1.75,3.62-3.01,5.92-.95,2.28,2.04,1.31,4.03-.08,5.6l-.61.68-1.79-1.6.56-.63c.9-1.01,1.28-1.81.5-2.52-.78-.7-1.59-.19-2.45.77-.96,1.08-1.17,1.74-.76,3.71.66,3.2.52,4.58-1.48,6.83-1.7,1.91-3.9,3.14-6.31.98-2.36-2.1-1.62-4.17-.04-5.95l.7-.79,1.81,1.61Z"/>
    <path class="cls-2" d="m392.9,101.09l1.14,1.01,2.24-2.52,1.8,1.61-2.24,2.52,1.37,1.22-1.42,1.59-1.37-1.22-5.77,6.48c-.45.51-.77,1.02-.13,1.59.19.17.49.4.65.47l-1.23,1.38c-.47-.14-1-.55-1.37-.89-1.18-1.05-1.54-2.12-.02-3.83l6.06-6.81-1.14-1.01,1.42-1.59Z"/>
    <path class="cls-2" d="m394.7,112.8l-1.42,1.6c-.8.9-1.39,1.95-.5,2.73s1.7.15,2.46-.7l.06-.06,1.77,1.57-.05.06c-1.01,1.14-3.06,2.93-5.57.7-2.44-2.18-1.5-4.11.38-6.21l3.2-3.6c1.32-1.48,3.57-3.02,5.96-.9,2.13,1.89,1.47,3.98-.28,5.94l-2.09,2.35-3.9-3.48Zm3.45.49l1.03-1.16c.86-.96,1.29-1.84.42-2.61-.8-.71-1.64-.36-2.58.7l-1.03,1.15,2.15,1.92Z"/>
    <path class="cls-2" d="m398.33,123.14l-3.8,4.27-1.81-1.61,9.69-10.89c1.25-1.41,2.09-2.35,2.64-3l1.73,1.54c-.14.23-.5.7-.87,1.12.89-.42,1.94-.46,2.98.47,1.44,1.28,1.25,2.89-.56,4.93l-3.84,4.32c-2.09,2.35-3.82,2.62-5.32,1.29-.95-.85-1-1.74-.83-2.43Zm4.31-.45l3.75-4.21c.96-1.07,1-1.85.37-2.41-.84-.75-1.75-.44-2.87.82l-3.13,3.51c-1,1.12-1.63,2.2-.71,3.02.81.72,1.65.32,2.59-.74Z"/>
    <path class="cls-2" d="m405.27,130.72l.2-.23c2.08-2.3,4.47-3.05,7.73-3.83,2.45-.58,3.27-.81,4.57-2.27s1.62-2.19.78-2.94c-.76-.68-1.57-.36-2.54.73l-.58.65-1.68-1.49.63-.71c1.32-1.48,3.26-2.72,5.6-.63,2.18,1.94,1.48,3.89-.31,5.9s-3.23,2.37-5.62,2.89c-2.35.53-4.32,1.16-5.38,2.15l3.9,3.47-1.64,1.34-5.67-5.05Z"/>
    <path class="cls-2" d="m352.34,106.34l-2.32,1.26-.82-.73,7.71-4.22,1.01.9-3.21,8.23-.87-.78.97-2.47-2.47-2.2Zm2.88,1.31c.86-2.15,1.3-3.3,1.59-3.89h0c-.62.38-1.91,1.11-3.62,2.07l2.04,1.82Z"/>
    <path class="cls-2" d="m358.57,109.17c.35-.39.7-.79,1-1.14l.76.67c-.1.15-.51.64-.63.77.52-.23,1.3-.36,2.17.42s1.05,1.86-.02,3.06l-2.58,2.9-.78-.69,2.49-2.8c.61-.68.75-1.38.06-1.99-.85-.76-1.77-.41-2.58.49l-2.12,2.39-.78-.69,3-3.37Z"/>
    <path class="cls-2" d="m364.78,118.97c-.37.41-.72.89-.81,1.04l-.74-.66c.05-.13.22-.37.45-.66-.43.16-1.14.24-2.01-.54-1.06-.95-.9-2.04-.29-2.73.9-1.01,2.1-.76,3.43.43l.77.68.34-.38c.35-.4.66-1-.19-1.75-.75-.67-1.21-.41-1.61-.13l-.75-.67c.61-.57,1.64-.94,2.93.21,1.1.98,1.31,1.98.4,3l-1.92,2.15Zm.32-1.89l-.73-.65c-.9-.8-1.6-.98-2.17-.34-.42.47-.4,1.1.16,1.59,1.09.97,1.88.37,2.61-.45l.13-.14Z"/>
    <path class="cls-2" d="m365.25,121.15l5.81-6.53.78.69-5.81,6.53-.78-.69Z"/>
    <path class="cls-2" d="m371.71,118.82c-1.19,2.81-1.86,4.36-2.15,4.92h0c.6-.37,1.84-1.12,4.6-2.73l.79.7-5.82,3.27c-1.63.91-2.27.94-3.19.12-.14-.13-.3-.29-.46-.46l.6-.68c.1.12.23.24.35.35.57.51,1.01.45,1.95-.06l2.48-6.18.84.75Z"/>
    <path class="cls-2" d="m371.94,125.98l5.47-.92-2.47-2.19.58-.65,3.35,2.98-.58.65-5.41.92,2.68,2.38-.71.54-3.48-3.1.56-.63Z"/>
    <path class="cls-2" d="m378.13,128.83c-.81.92-.93,1.98-.16,2.66.71.64,1.27.47,1.71.27l.78.7c-.69.42-1.86.76-3.1-.34-1.42-1.26-.97-2.93.06-4.09,1.19-1.34,2.82-1.81,4.19-.59,1.45,1.29.89,2.89.04,3.85-.12.14-.22.25-.34.36l-3.18-2.83Zm2.89,1.59c.65-.75.81-1.68.04-2.36s-1.63-.46-2.41.25l2.37,2.11Z"/>
    <path class="cls-2" d="m386.08,131.62l.78.69,1.18-1.33.78.69-1.18,1.33.99.89-.57.64-.99-.89-2.35,2.64c-.39.44-.48.76-.08,1.12.11.1.27.23.43.31l-.52.59c-.26-.1-.53-.33-.75-.52-.7-.62-.69-1.26-.02-2.01l2.51-2.82-.78-.69.57-.64Z"/>
    <path class="cls-2" d="m392.03,133.3l-2.39,2.68c.58-.19,1.33-.2,2.09.48.72.64,1.17,1.75-.03,3.09l-2.56,2.88-.77-.69,2.45-2.75c.68-.77.74-1.48.08-2.07-.81-.72-1.65-.5-2.48.43l-2.19,2.46-.78-.69,5.81-6.53.78.69Z"/>
    <path class="cls-2" d="m392.82,141.91c-.81.92-.93,1.98-.16,2.66.71.64,1.27.47,1.71.27l.78.7c-.69.42-1.86.76-3.1-.34-1.42-1.26-.97-2.93.06-4.09,1.19-1.34,2.82-1.81,4.19-.59,1.45,1.29.89,2.89.04,3.85-.12.14-.22.25-.34.36l-3.18-2.83Zm2.89,1.59c.65-.75.81-1.68.04-2.36s-1.63-.46-2.41.25l2.37,2.11Z"/>
    <path class="cls-2" d="m406.89,146.53l-4.68,5.25c-.38.42-.75.84-1.12,1.28l-.75-.67c.09-.14.38-.5.53-.68-.64.27-1.34.14-2.08-.52-1.16-1.03-1.03-2.6.19-3.98,1.24-1.39,2.91-1.72,4.16-.61.8.71.87,1.35.76,1.71l2.21-2.49.78.69Zm-7.08,1.39c-.97,1.09-.98,2.14-.27,2.77,1.05.94,1.98.37,2.86-.62s1.24-1.82.23-2.72c-.8-.71-1.85-.52-2.82.58Z"/>
    <path class="cls-2" d="m406.59,156.2c-.37.41-.72.89-.81,1.04l-.74-.66c.05-.13.22-.37.45-.66-.43.16-1.14.24-2.01-.54-1.06-.95-.9-2.04-.29-2.73.9-1.01,2.1-.76,3.43.43l.77.68.34-.38c.35-.4.66-1-.19-1.75-.75-.67-1.21-.41-1.61-.13l-.75-.67c.61-.57,1.64-.94,2.93.21,1.1.98,1.31,1.98.4,3l-1.92,2.15Zm.32-1.89l-.73-.65c-.9-.8-1.6-.98-2.17-.34-.42.47-.4,1.1.16,1.59,1.09.97,1.88.37,2.61-.45l.13-.14Z"/>
    <path class="cls-2" d="m410.43,153.3l.78.69,1.18-1.33.78.69-1.18,1.33.99.89-.57.64-.99-.89-2.35,2.64c-.39.44-.48.76-.08,1.12.11.1.27.23.43.31l-.52.59c-.26-.1-.53-.33-.75-.52-.7-.62-.69-1.26-.02-2.01l2.51-2.82-.78-.69.57-.64Z"/>
    <path class="cls-2" d="m414.05,162.84c-.37.41-.72.89-.81,1.04l-.74-.66c.05-.13.22-.37.45-.66-.43.16-1.14.24-2.01-.54-1.06-.95-.9-2.04-.29-2.73.9-1.01,2.1-.76,3.43.43l.77.68.34-.38c.35-.4.66-1-.19-1.75-.75-.67-1.21-.41-1.61-.13l-.75-.67c.61-.57,1.64-.94,2.93.21,1.1.98,1.31,1.98.4,3l-1.92,2.15Zm.32-1.89l-.73-.65c-.9-.8-1.6-.98-2.17-.34-.42.47-.4,1.1.16,1.59,1.09.97,1.88.37,2.61-.45l.13-.14Z"/>
  </g>
  <g>
    <path class="cls-2" d="m447.07,323.82v1.09c0,1.49.48,2.31,1.63,2.31s1.55-.99,1.55-2.5c0-2.01-.44-2.71-2.36-4.22-1.94-1.53-2.95-2.48-2.95-5.15,0-2.34.71-4.66,3.79-4.65,3.06,0,3.66,2.14,3.66,4.24v.91h-2.4v-.85c0-1.36-.25-2.21-1.3-2.21s-1.32.91-1.32,2.2c0,1.45.28,2.08,1.9,3.28,2.62,1.96,3.43,3.07,3.43,6.08,0,2.55-.83,4.93-4.06,4.93s-3.98-2.04-3.98-4.42v-1.06h2.42Z"/>
    <path class="cls-2" d="m453.46,315.14h1.52v-3.37h2.41v3.37h1.83v2.13h-1.83v8.68c0,.68.11,1.27.96,1.27.25,0,.64-.03.8-.08v1.84c-.45.2-1.11.25-1.61.25-1.57,0-2.56-.56-2.56-2.85v-9.12h-1.52v-2.13Z"/>
    <path class="cls-2" d="m462.58,322.69v2.14c0,1.2.26,2.37,1.44,2.37s1.37-1.02,1.37-2.16v-.09h2.37v.08c0,1.52-.34,4.22-3.7,4.22s-3.85-2.07-3.85-4.89v-4.81c0-1.99.66-4.63,3.85-4.63,2.85,0,3.74,1.99,3.74,4.62v3.14h-5.23Zm2.9-1.92v-1.55c0-1.29-.26-2.23-1.42-2.23-1.07,0-1.46.82-1.46,2.24v1.55h2.88Z"/>
    <path class="cls-2" d="m472.17,328v5.72h-2.42v-14.57c0-1.88,0-3.14-.03-4h2.31c.05.27.09.86.09,1.42.38-.91,1.14-1.63,2.54-1.63,1.93,0,2.86,1.33,2.86,4.06v5.78c0,3.15-1.11,4.5-3.12,4.5-1.28,0-1.9-.63-2.23-1.26Zm2.92-3.2v-5.64c0-1.44-.49-2.05-1.33-2.05-1.13,0-1.6.83-1.6,2.52v4.71c0,1.5.25,2.73,1.48,2.73,1.09,0,1.45-.85,1.45-2.28Z"/>
    <path class="cls-2" d="m482.75,315.87v-.51c0-1.84.57-4.11,3.68-4.11,2.68,0,3.58,1.69,3.58,4.1v.68c0,2.02-.65,2.96-1.68,3.38v.03c1.28.44,2.09,1.4,2.09,3.57v1.45c0,2.81-.87,4.82-4.02,4.82-2.85,0-3.89-1.6-3.89-4.07v-.55h2.25v.53c0,1.09.36,2.09,1.62,2.09s1.62-.93,1.62-2.5v-1.73c0-1.83-.63-2.48-2.15-2.48h-.75v-2.09h.73c1.31,0,1.82-.53,1.82-2.2v-.95c0-1.15-.22-2.06-1.34-2.06s-1.39.91-1.39,1.95v.65h-2.19Z"/>
    <path class="cls-2" d="m425.53,340.23h2.96c2.33,0,3.9,1.59,3.9,4.06s-1.54,4.22-3.94,4.22h-2.92v-8.28Zm1.1,7.35h1.74c1.95,0,2.88-1.4,2.88-3.27,0-1.63-.85-3.15-2.87-3.15h-1.74v6.42Z"/>
    <path class="cls-2" d="m434.51,345.69c0,1.23.63,2.1,1.65,2.1.96,0,1.26-.49,1.46-.93h1.05c-.24.77-.89,1.8-2.54,1.8-1.9,0-2.67-1.54-2.67-3.1,0-1.79.9-3.23,2.74-3.23,1.95,0,2.58,1.56,2.58,2.85,0,.18,0,.34-.02.5h-4.25Zm3.21-.73c-.01-.99-.51-1.79-1.54-1.79s-1.53.74-1.63,1.79h3.18Z"/>
    <path class="cls-2" d="m440.61,342.48c.81,2.47,1.41,4.31,1.59,5.07h.01c.15-.67.79-2.48,1.69-5.07h1.06l-2.22,6.04h-1.15l-2.11-6.04h1.12Z"/>
    <path class="cls-2" d="m446.57,345.69c0,1.23.63,2.1,1.65,2.1.96,0,1.26-.49,1.46-.93h1.05c-.24.77-.89,1.8-2.54,1.8-1.9,0-2.67-1.54-2.67-3.1,0-1.79.9-3.23,2.74-3.23,1.95,0,2.58,1.56,2.58,2.85,0,.18,0,.34-.02.5h-4.25Zm3.21-.73c-.01-.99-.51-1.79-1.54-1.79s-1.53.74-1.63,1.79h3.18Z"/>
    <path class="cls-2" d="m452.21,348.51v-8.74h1.04v8.74h-1.04Z"/>
    <path class="cls-2" d="m460.22,345.48c0,1.74-1,3.17-2.84,3.17-1.73,0-2.78-1.34-2.78-3.15s1.02-3.17,2.84-3.17c1.68,0,2.77,1.26,2.77,3.15Zm-4.54.01c0,1.32.66,2.29,1.75,2.29s1.73-.92,1.73-2.28-.62-2.29-1.75-2.29-1.72.91-1.72,2.29Z"/>
    <path class="cls-2" d="m462.61,347.77v3.12h-1.04v-6.93c0-.49,0-1-.01-1.47h1.01c.02.2.04.57.04.95.33-.61.94-1.09,1.97-1.09,1.4,0,2.41,1.17,2.41,3.01,0,2.16-1.16,3.32-2.62,3.32-.98,0-1.49-.41-1.76-.89Zm3.31-2.39c0-1.28-.58-2.16-1.61-2.16-1.25,0-1.75.79-1.75,2.26s.41,2.29,1.67,2.29c1.1,0,1.69-.91,1.69-2.39Z"/>
    <path class="cls-2" d="m471.37,339.78h1.04v1.3h-1.04v-1.3Zm0,2.7h1.04v6.04h-1.04v-6.04Z"/>
    <path class="cls-2" d="m474.19,344c0-.52,0-1.05-.01-1.52h1.01c.03.18.04.81.04.99.24-.52.73-1.13,1.9-1.13s2.02.69,2.02,2.3v3.88h-1.04v-3.75c0-.91-.36-1.53-1.28-1.53-1.14,0-1.6.87-1.6,2.08v3.19h-1.04v-4.51Z"/>
    <path class="cls-2" d="m481.37,346.79c.17.66.66,1.05,1.48,1.05.89,0,1.23-.38,1.23-.93s-.28-.83-1.43-1.11c-1.73-.42-2.08-.95-2.08-1.77s.63-1.7,2.18-1.7,2.19.9,2.27,1.74h-1.01c-.09-.39-.38-.93-1.31-.93-.85,0-1.1.41-1.1.8,0,.45.25.67,1.35.94,1.83.43,2.2,1.04,2.2,1.94,0,1.06-.84,1.83-2.34,1.83s-2.33-.79-2.48-1.87h1.04Z"/>
    <path class="cls-2" d="m486.49,339.78h1.04v1.3h-1.04v-1.3Zm0,2.7h1.04v6.04h-1.04v-6.04Z"/>
    <path class="cls-2" d="m494.29,347.97c0,1.93-.8,3.04-2.77,3.04-1.83,0-2.39-1.02-2.5-1.85h1.06c.18.66.71,1.01,1.48,1.01,1.37,0,1.71-.87,1.71-2.26v-.49c-.32.68-.88,1.06-1.89,1.06-1.49,0-2.5-1.21-2.5-2.98,0-1.97,1.15-3.17,2.61-3.17,1.15,0,1.64.54,1.78.94.01-.27.04-.67.05-.8h.98c0,.35-.02,1.16-.02,1.74v3.75Zm-4.32-2.51c0,1.27.66,2.14,1.65,2.14,1.3,0,1.68-.87,1.68-2.21s-.36-2.16-1.65-2.16c-1.12,0-1.68.93-1.68,2.24Z"/>
    <path class="cls-2" d="m497.1,339.78v3.59c.31-.53.86-1.03,1.88-1.03.97,0,2.03.53,2.03,2.33v3.85h-1.04v-3.68c0-1.03-.43-1.6-1.31-1.6-1.08,0-1.57.72-1.57,1.98v3.3h-1.04v-8.74h1.04Z"/>
    <path class="cls-2" d="m501.95,342.48h1.04v-1.78h1.04v1.78h1.33v.85h-1.33v3.53c0,.59.14.89.69.89.14,0,.36,0,.53-.05v.78c-.26.1-.61.11-.9.11-.94,0-1.35-.49-1.35-1.49v-3.78h-1.04v-.85Z"/>
    <path class="cls-2" d="m507.13,346.79c.17.66.66,1.05,1.48,1.05.89,0,1.23-.38,1.23-.93s-.28-.83-1.43-1.11c-1.73-.42-2.08-.95-2.08-1.77s.63-1.7,2.18-1.7,2.19.9,2.27,1.74h-1.01c-.09-.39-.38-.93-1.31-.93-.85,0-1.1.41-1.1.8,0,.45.25.67,1.35.94,1.83.43,2.2,1.04,2.2,1.94,0,1.06-.84,1.83-2.34,1.83s-2.33-.79-2.48-1.87h1.04Z"/>
  </g>
  <g>
    <path class="cls-2" d="m66.88,335.53v1.09c0,1.49.48,2.31,1.63,2.31s1.55-.99,1.55-2.5c0-2.01-.44-2.71-2.36-4.22-1.94-1.53-2.95-2.48-2.95-5.15,0-2.34.71-4.66,3.79-4.65,3.06,0,3.66,2.14,3.66,4.24v.91h-2.4v-.85c0-1.36-.25-2.21-1.3-2.21s-1.32.91-1.32,2.2c0,1.45.28,2.08,1.9,3.28,2.62,1.96,3.43,3.07,3.43,6.08,0,2.55-.83,4.93-4.06,4.93s-3.98-2.04-3.98-4.42v-1.06h2.42Z"/>
    <path class="cls-2" d="m73.27,326.85h1.52v-3.37h2.41v3.37h1.83v2.13h-1.83v8.68c0,.68.11,1.27.96,1.27.25,0,.64-.03.8-.08v1.84c-.45.2-1.11.25-1.61.25-1.57,0-2.56-.56-2.56-2.85v-9.12h-1.52v-2.13Z"/>
    <path class="cls-2" d="m82.4,334.4v2.14c0,1.2.26,2.37,1.44,2.37s1.37-1.02,1.37-2.16v-.09h2.37v.08c0,1.52-.34,4.22-3.7,4.22s-3.85-2.07-3.85-4.89v-4.81c0-1.99.66-4.63,3.85-4.63,2.85,0,3.74,1.99,3.74,4.62v3.14h-5.23Zm2.9-1.92v-1.55c0-1.29-.26-2.23-1.42-2.23-1.07,0-1.46.82-1.46,2.24v1.55h2.88Z"/>
    <path class="cls-2" d="m91.98,339.71v5.72h-2.42v-14.57c0-1.88,0-3.14-.03-4h2.31c.05.27.09.86.09,1.42.38-.91,1.14-1.63,2.54-1.63,1.93,0,2.86,1.33,2.86,4.06v5.78c0,3.15-1.11,4.5-3.12,4.5-1.28,0-1.9-.63-2.23-1.26Zm2.92-3.2v-5.64c0-1.44-.49-2.05-1.33-2.05-1.13,0-1.6.83-1.6,2.52v4.71c0,1.5.25,2.73,1.48,2.73,1.09,0,1.45-.85,1.45-2.28Z"/>
    <path class="cls-2" d="m109.92,325.32h-4.36c-.09,1.48-.24,3.53-.35,4.67.36-.53,1.16-.89,2.15-.89,2.34,0,3.2,1.73,3.2,4.66v1.92c0,3.02-.85,5.29-4.1,5.29-2.97,0-3.95-1.94-3.95-4.32v-.36h2.41v.56c0,1.01.32,2.1,1.54,2.1,1.33,0,1.6-1.03,1.6-2.95v-2.15c0-1.79-.29-2.71-1.53-2.71-1.03,0-1.42.6-1.64,1.77l-2.16-.23c.26-2.47.6-7.33.73-9.52h6.73l-.26,2.14Z"/>
    <path class="cls-2" d="m52.02,356.58v3.65h-1.09v-8.28h3.24c1.7,0,2.61.92,2.61,2.22,0,1.08-.62,1.73-1.41,1.95.68.18,1.26.69,1.26,2.12v.35c0,.57-.03,1.29.11,1.64h-1.07c-.15-.36-.14-1-.14-1.78v-.18c0-1.18-.33-1.69-1.82-1.69h-1.69Zm0-.92h1.8c1.27,0,1.82-.48,1.82-1.41,0-.88-.57-1.38-1.7-1.38h-1.92v2.79Z"/>
    <path class="cls-2" d="m59.02,357.4c0,1.23.63,2.1,1.65,2.1.96,0,1.26-.49,1.46-.93h1.05c-.24.77-.89,1.8-2.54,1.8-1.9,0-2.67-1.54-2.67-3.1,0-1.79.9-3.23,2.74-3.23,1.95,0,2.59,1.56,2.59,2.85,0,.18,0,.34-.02.5h-4.25Zm3.21-.73c-.01-.99-.51-1.79-1.54-1.79s-1.53.74-1.63,1.79h3.18Z"/>
    <path class="cls-2" d="m65.12,354.19c.81,2.47,1.41,4.31,1.59,5.07h.01c.15-.67.79-2.48,1.69-5.07h1.06l-2.22,6.04h-1.15l-2.11-6.04h1.12Z"/>
    <path class="cls-2" d="m70.54,351.49h1.04v1.3h-1.04v-1.3Zm0,2.7h1.04v6.04h-1.04v-6.04Z"/>
    <path class="cls-2" d="m73.98,357.4c0,1.23.63,2.1,1.65,2.1.96,0,1.26-.49,1.46-.93h1.05c-.24.77-.89,1.8-2.54,1.8-1.9,0-2.67-1.54-2.67-3.1,0-1.79.9-3.23,2.74-3.23,1.95,0,2.58,1.56,2.58,2.85,0,.18,0,.34-.02.5h-4.25Zm3.21-.73c-.01-.99-.51-1.79-1.54-1.79s-1.53.74-1.63,1.79h3.18Z"/>
    <path class="cls-2" d="m80.12,354.19c.75,2.83,1.18,4.45,1.28,5.07h.02c.11-.56.53-2.07,1.39-5.07h1.02c.94,3.42,1.23,4.41,1.32,4.95h.01c.15-.65.39-1.55,1.33-4.95h1.06l-1.86,6.04h-1.13c-.59-2.2-1.17-4.24-1.3-4.89h-.01c-.11.66-.65,2.49-1.33,4.89h-1.17l-1.75-6.04h1.1Z"/>
    <path class="cls-2" d="m91.75,355.83c0-.84,0-1.32-.01-1.64h1.02c.02.17.03.64.03,1.23.32-.82,1.04-1.34,2.03-1.37v1.04c-1.24.04-2.03.68-2.03,2.21v2.93h-1.04v-4.4Z"/>
    <path class="cls-2" d="m96.47,357.4c0,1.23.63,2.1,1.65,2.1.96,0,1.26-.49,1.46-.93h1.05c-.24.77-.89,1.8-2.54,1.8-1.9,0-2.67-1.54-2.67-3.1,0-1.79.9-3.23,2.74-3.23,1.95,0,2.58,1.56,2.58,2.85,0,.18,0,.34-.02.5h-4.25Zm3.21-.73c-.01-.99-.51-1.79-1.54-1.79s-1.53.74-1.63,1.79h3.18Z"/>
    <path class="cls-2" d="m102.67,358.5c.17.66.66,1.05,1.48,1.05.89,0,1.23-.38,1.23-.93s-.28-.83-1.43-1.11c-1.73-.42-2.08-.95-2.08-1.77s.63-1.7,2.18-1.7,2.19.9,2.27,1.74h-1.01c-.09-.39-.38-.93-1.31-.93-.85,0-1.1.41-1.1.8,0,.45.25.67,1.35.94,1.83.43,2.2,1.04,2.2,1.94,0,1.06-.84,1.83-2.34,1.83s-2.33-.79-2.48-1.87h1.04Z"/>
    <path class="cls-2" d="m112.52,358.46c0,.59,0,1.4.01,1.76h-1.01c-.02-.16-.04-.53-.04-.9-.3.67-.88,1.05-1.83,1.05-1.02,0-1.99-.51-1.99-2.21v-3.97h1.03v3.75c0,.79.25,1.52,1.25,1.52,1.11,0,1.54-.61,1.54-2.12v-3.15h1.04v4.28Z"/>
    <path class="cls-2" d="m114.31,360.22v-8.74h1.04v8.74h-1.04Z"/>
    <path class="cls-2" d="m116.41,354.19h1.04v-1.78h1.04v1.78h1.33v.85h-1.33v3.53c0,.59.14.89.69.89.14,0,.36,0,.53-.05v.78c-.26.1-.61.11-.9.11-.94,0-1.35-.49-1.35-1.49v-3.78h-1.04v-.85Z"/>
    <path class="cls-2" d="m121.59,358.5c.17.66.66,1.05,1.48,1.05.89,0,1.23-.38,1.23-.93s-.28-.83-1.43-1.11c-1.73-.42-2.08-.95-2.08-1.77s.63-1.7,2.18-1.7,2.19.9,2.27,1.74h-1.01c-.09-.39-.38-.93-1.31-.93-.85,0-1.1.41-1.1.8,0,.45.25.67,1.35.94,1.83.43,2.2,1.04,2.2,1.94,0,1.06-.84,1.83-2.34,1.83s-2.33-.79-2.48-1.87h1.04Z"/>
  </g>
  <g>
    <path class="cls-2" d="m260.03,467.98v1.09c0,1.49.48,2.31,1.63,2.31s1.55-.99,1.55-2.5c0-2.01-.44-2.71-2.36-4.22-1.94-1.53-2.95-2.48-2.95-5.15,0-2.34.71-4.66,3.79-4.65,3.06,0,3.66,2.14,3.66,4.24v.91h-2.4v-.85c0-1.36-.25-2.21-1.3-2.21s-1.32.91-1.32,2.2c0,1.45.28,2.08,1.9,3.28,2.62,1.96,3.43,3.07,3.43,6.08,0,2.55-.83,4.93-4.06,4.93s-3.98-2.04-3.98-4.42v-1.06h2.42Z"/>
    <path class="cls-2" d="m266.42,459.3h1.52v-3.37h2.41v3.37h1.83v2.13h-1.83v8.68c0,.68.11,1.27.96,1.27.25,0,.64-.03.8-.08v1.84c-.45.2-1.11.25-1.61.25-1.57,0-2.56-.56-2.56-2.85v-9.12h-1.52v-2.13Z"/>
    <path class="cls-2" d="m275.55,466.84v2.14c0,1.2.26,2.37,1.44,2.37s1.37-1.02,1.37-2.16v-.09h2.37v.08c0,1.52-.34,4.22-3.7,4.22s-3.85-2.07-3.85-4.89v-4.81c0-1.99.66-4.63,3.85-4.63,2.85,0,3.74,1.99,3.74,4.62v3.14h-5.23Zm2.9-1.92v-1.55c0-1.29-.26-2.23-1.42-2.23-1.07,0-1.46.82-1.46,2.24v1.55h2.88Z"/>
    <path class="cls-2" d="m285.13,472.15v5.72h-2.42v-14.57c0-1.88,0-3.14-.03-4h2.31c.05.27.09.86.09,1.42.38-.91,1.14-1.63,2.54-1.63,1.93,0,2.86,1.33,2.86,4.06v5.78c0,3.15-1.11,4.5-3.12,4.5-1.28,0-1.9-.63-2.23-1.26Zm2.92-3.2v-5.64c0-1.44-.49-2.05-1.33-2.05-1.13,0-1.6.83-1.6,2.52v4.71c0,1.5.25,2.73,1.48,2.73,1.09,0,1.45-.85,1.45-2.28Z"/>
    <path class="cls-2" d="m300.3,473.2v-4.54h-4.96v-1.79l3.98-11.24h3.22v11.04h1.35l-.19,2h-1.15v4.54h-2.23Zm0-10.13c0-1.72.06-3.46.1-5.17h-.03c-.85,2.95-1.78,5.83-2.72,8.76h2.65v-3.59Z"/>
    <path class="cls-2" d="m251.06,485.33h-2.67v-.94h6.46v.94h-2.68v7.34h-1.11v-7.34Z"/>
    <path class="cls-2" d="m255.26,489.84c0,1.23.63,2.1,1.65,2.1.96,0,1.26-.49,1.46-.93h1.05c-.24.77-.89,1.8-2.54,1.8-1.9,0-2.67-1.54-2.67-3.1,0-1.79.9-3.23,2.74-3.23,1.95,0,2.58,1.56,2.58,2.85,0,.18,0,.34-.02.5h-4.25Zm3.21-.73c-.01-.99-.51-1.79-1.54-1.79s-1.53.74-1.63,1.79h3.18Z"/>
    <path class="cls-2" d="m261.46,490.94c.17.66.66,1.05,1.48,1.05.89,0,1.23-.38,1.23-.93s-.28-.83-1.43-1.11c-1.73-.42-2.08-.95-2.08-1.77s.63-1.7,2.18-1.7,2.19.9,2.27,1.74h-1.01c-.09-.39-.38-.93-1.31-.93-.85,0-1.1.41-1.1.8,0,.45.25.67,1.35.94,1.83.43,2.2,1.04,2.2,1.94,0,1.06-.84,1.83-2.34,1.83s-2.33-.79-2.48-1.87h1.04Z"/>
    <path class="cls-2" d="m265.76,486.63h1.04v-1.78h1.04v1.78h1.33v.85h-1.33v3.53c0,.59.14.89.69.89.14,0,.36,0,.53-.05v.78c-.26.1-.61.11-.9.11-.94,0-1.35-.49-1.35-1.49v-3.78h-1.04v-.85Z"/>
    <path class="cls-2" d="m273.34,483.93h1.04v1.3h-1.04v-1.3Zm0,2.7h1.04v6.04h-1.04v-6.04Z"/>
    <path class="cls-2" d="m276.16,488.15c0-.52,0-1.05-.01-1.52h1.01c.03.18.04.81.04.99.24-.52.73-1.13,1.9-1.13s2.02.69,2.02,2.3v3.88h-1.04v-3.75c0-.91-.36-1.53-1.28-1.53-1.14,0-1.6.87-1.6,2.08v3.19h-1.04v-4.51Z"/>
    <path class="cls-2" d="m283.34,490.94c.17.66.66,1.05,1.48,1.05.89,0,1.23-.38,1.23-.93s-.28-.83-1.43-1.11c-1.73-.42-2.08-.95-2.08-1.77s.63-1.7,2.18-1.7,2.19.9,2.27,1.74h-1.01c-.09-.39-.38-.93-1.31-.93-.85,0-1.1.41-1.1.8,0,.45.25.67,1.35.94,1.83.43,2.2,1.04,2.2,1.94,0,1.06-.84,1.83-2.34,1.83s-2.33-.79-2.48-1.87h1.04Z"/>
    <path class="cls-2" d="m288.46,483.93h1.04v1.3h-1.04v-1.3Zm0,2.7h1.04v6.04h-1.04v-6.04Z"/>
    <path class="cls-2" d="m296.26,492.12c0,1.93-.8,3.04-2.77,3.04-1.83,0-2.39-1.02-2.5-1.85h1.06c.18.66.71,1.01,1.48,1.01,1.37,0,1.71-.87,1.71-2.26v-.49c-.32.68-.88,1.06-1.89,1.06-1.49,0-2.5-1.21-2.5-2.98,0-1.97,1.15-3.17,2.61-3.17,1.15,0,1.64.54,1.78.94.01-.27.04-.67.05-.8h.98c0,.35-.02,1.16-.02,1.74v3.75Zm-4.32-2.51c0,1.27.66,2.14,1.65,2.14,1.3,0,1.68-.87,1.68-2.21s-.36-2.16-1.65-2.16c-1.12,0-1.68.93-1.68,2.24Z"/>
    <path class="cls-2" d="m299.07,483.93v3.59c.31-.53.86-1.03,1.88-1.03.97,0,2.03.53,2.03,2.33v3.85h-1.04v-3.68c0-1.03-.43-1.6-1.31-1.6-1.08,0-1.57.72-1.57,1.98v3.3h-1.04v-8.74h1.04Z"/>
    <path class="cls-2" d="m303.92,486.63h1.04v-1.78h1.04v1.78h1.33v.85h-1.33v3.53c0,.59.14.89.69.89.14,0,.36,0,.53-.05v.78c-.26.1-.61.11-.9.11-.94,0-1.35-.49-1.35-1.49v-3.78h-1.04v-.85Z"/>
    <path class="cls-2" d="m309.1,490.94c.17.66.66,1.05,1.48,1.05.89,0,1.23-.38,1.23-.93s-.28-.83-1.43-1.11c-1.73-.42-2.08-.95-2.08-1.77s.63-1.7,2.18-1.7,2.19.9,2.27,1.74h-1.01c-.09-.39-.38-.93-1.31-.93-.85,0-1.1.41-1.1.8,0,.45.25.67,1.35.94,1.83.43,2.2,1.04,2.2,1.94,0,1.06-.84,1.83-2.34,1.83s-2.33-.79-2.48-1.87h1.04Z"/>
  </g>
</svg>